Ubuntu-B.ufo
<glyph name="numbersign" format="2">
	<unicode hex="0023"/>
	<advance width="699"/>
	<outline>
		<contour>
			<point x="358" y="693" type="line"/>
			<point x="228" y="693" type="line"/>
			<point x="195" y="523" type="line"/>
			<point x="55" y="523" type="line"/>
			<point x="55" y="408" type="line"/>
			<point x="173" y="408" type="line"/>
			<point x="149" y="285" type="line"/>
			<point x="55" y="285" type="line"/>
			<point x="55" y="170" type="line"/>
			<point x="127" y="170" type="line"/>
			<point x="95" y="0" type="line"/>
			<point x="225" y="0" type="line"/>
			<point x="257" y="170" type="line"/>
			<point x="373" y="170" type="line"/>
			<point x="341" y="0" type="line"/>
			<point x="471" y="0" type="line"/>
			<point x="503" y="170" type="line"/>
			<point x="644" y="170" type="line"/>
			<point x="644" y="285" type="line"/>
			<point x="525" y="285" type="line"/>
			<point x="549" y="408" type="line"/>
			<point x="644" y="408" type="line"/>
			<point x="644" y="523" type="line"/>
			<point x="571" y="523" type="line"/>
			<point x="604" y="693" type="line"/>
			<point x="474" y="693" type="line"/>
			<point x="441" y="523" type="line"/>
			<point x="325" y="523" type="line"/>
		</contour>
		<contour>
			<point x="303" y="408" type="line"/>
			<point x="419" y="408" type="line"/>
			<point x="395" y="285" type="line"/>
			<point x="279" y="285" type="line"/>
		</contour>
	</outline>
</glyph>
<glyph name="parenright" format="2">
	<unicode hex="0029"/>
	<advance width="356"/>
	<outline>
		<contour>
			<point x="139" y="299" type="curve" smooth="yes"/>
			<point x="139" y="143"/>
			<point x="84" y="-5"/>
			<point x="5" y="-118" type="curve"/>
			<point x="109" y="-185" type="line"/>
			<point x="221" y="-54"/>
			<point x="286" y="115"/>
			<point x="286" y="299" type="curve" smooth="yes"/>
			<point x="286" y="483"/>
			<point x="221" y="652"/>
			<point x="109" y="783" type="curve"/>
			<point x="5" y="716" type="line"/>
			<point x="84" y="603"/>
			<point x="139" y="455"/>
		</contour>
	</outline>
</glyph>
<glyph name="asterisk" format="2">
	<unicode hex="002A"/>
	<advance width="502"/>
	<outline>
		<contour>
			<point x="283" y="536" type="curve"/>
			<point x="296" y="571"/>
			<point x="316" y="633"/>
			<point x="316" y="668" type="curve" smooth="yes"/>
			<point x="316" y="693" type="line"/>
			<point x="186" y="693" type="line"/>
			<point x="186" y="668" type="line" smooth="yes"/>
			<point x="186" y="633"/>
			<point x="206" y="571"/>
			<point x="219" y="536" type="curve"/>
			<point x="191" y="559"/>
			<point x="137" y="598"/>
			<point x="104" y="608" type="curve" smooth="yes"/>
			<point x="80" y="616" type="line"/>
			<point x="40" y="492" type="line"/>
			<point x="64" y="484" type="line" smooth="yes"/>
			<point x="98" y="474"/>
			<point x="161" y="475"/>
			<point x="199" y="475" type="curve"/>
			<point x="168" y="454"/>
			<point x="116" y="417"/>
			<point x="95" y="388" type="curve" smooth="yes"/>
			<point x="79" y="367" type="line"/>
			<point x="185" y="292" type="line"/>
			<point x="200" y="312" type="line" smooth="yes"/>
			<point x="222" y="339"/>
			<point x="241" y="401"/>
			<point x="251" y="437" type="curve"/>
			<point x="261" y="401"/>
			<point x="280" y="339"/>
			<point x="302" y="312" type="curve" smooth="yes"/>
			<point x="317" y="292" type="line"/>
			<point x="423" y="367" type="line"/>
			<point x="407" y="388" type="line" smooth="yes"/>
			<point x="386" y="417"/>
			<point x="334" y="454"/>
			<point x="303" y="475" type="curve"/>
			<point x="341" y="475"/>
			<point x="404" y="474"/>
			<point x="438" y="484" type="curve" smooth="yes"/>
			<point x="462" y="492" type="line"/>
			<point x="422" y="616" type="line"/>
			<point x="398" y="608" type="line" smooth="yes"/>
			<point x="365" y="598"/>
			<point x="311" y="559"/>
		</contour>
	</outline>
</glyph>
<glyph name="plus" format="2">
	<unicode hex="002B"/>
	<advance width="568"/>
	<outline>
		<contour>
			<point x="49" y="236" type="line"/>
			<point x="216" y="236" type="line"/>
			<point x="216" y="51" type="line"/>
			<point x="352" y="51" type="line"/>
			<point x="352" y="236" type="line"/>
			<point x="519" y="236" type="line"/>
			<point x="519" y="361" type="line"/>
			<point x="352" y="361" type="line"/>
			<point x="352" y="546" type="line"/>
			<point x="216" y="546" type="line"/>
			<point x="216" y="361" type="line"/>
			<point x="49" y="361" type="line"/>
		</contour>
	</outline>
</glyph>
<glyph name="comma" format="2">
	<unicode hex="002C"/>
	<advance width="246"/>
	<outline>
		<contour>
			<point x="55" y="152" type="line"/>
			<point x="55" y="143"/>
			<point x="58" y="101"/>
			<point x="58" y="86" type="curve" smooth="yes"/>
			<point x="58" y="35"/>
			<point x="48" y="-47"/>
			<point x="17" y="-134" type="curve"/>
			<point x="134" y="-163" type="line"/>
			<point x="185" y="-80"/>
			<point x="214" y="21"/>
			<point x="214" y="101" type="curve" smooth="yes"/>
			<point x="214" y="110"/>
			<point x="214" y="120"/>
			<point x="211" y="152" type="curve"/>
		</contour>
	</outline>
</glyph>
<glyph name="hyphen" format="2">
	<unicode hex="002D"/>
	<advance width="340"/>
	<outline>
		<contour>
			<point x="25" y="231" type="line"/>
			<point x="315" y="231" type="line"/>
			<point x="315" y="366" type="line"/>
			<point x="25" y="366" type="line"/>
		</contour>
	</outline>
</glyph>
<glyph name="one" format="2">
	<unicode hex="0031"/>
	<advance width="568"/>
	<outline>
		<contour>
			<point x="115" y="434" type="line"/>
			<point x="162" y="450"/>
			<point x="214" y="472"/>
			<point x="254" y="499" type="curve"/>
			<point x="254" y="0" type="line"/>
			<point x="403" y="0" type="line"/>
			<point x="403" y="693" type="line"/>
			<point x="299" y="693" type="line"/>
			<point x="241" y="632"/>
			<point x="148" y="581"/>
			<point x="70" y="549" type="curve"/>
		</contour>
	</outline>
</glyph>
<glyph name="two" format="2">
	<unicode hex="0032"/>
	<advance width="568"/>
	<outline>
		<contour>
			<point x="496" y="511" type="curve" smooth="yes"/>
			<point x="496" y="633"/>
			<point x="426" y="709"/>
			<point x="263" y="709" type="curve" smooth="yes"/>
			<point x="174" y="709"/>
			<point x="94" y="670"/>
			<point x="35" y="615" type="curve"/>
			<point x="109" y="511" type="line"/>
			<point x="127" y="529"/>
			<point x="187" y="581"/>
			<point x="257" y="581" type="curve" smooth="yes"/>
			<point x="306" y="581"/>
			<point x="344" y="560"/>
			<point x="344" y="501" type="curve" smooth="yes"/>
			<point x="344" y="447"/>
			<point x="292" y="400"/>
			<point x="228" y="339" type="curve" smooth="yes"/>
			<point x="145" y="259"/>
			<point x="53" y="182"/>
			<point x="53" y="52" type="curve" smooth="yes"/>
			<point x="53" y="43"/>
			<point x="52" y="15"/>
			<point x="55" y="0" type="curve"/>
			<point x="517" y="0" type="line"/>
			<point x="517" y="125" type="line"/>
			<point x="219" y="125" type="line"/>
			<point x="227" y="151"/>
			<point x="291" y="215"/>
			<point x="329" y="251" type="curve" smooth="yes"/>
			<point x="407" y="324"/>
			<point x="496" y="410"/>
		</contour>
	</outline>
</glyph>
<glyph name="four" format="2">
	<unicode hex="0034"/>
	<advance width="568"/>
	<outline>
		<contour>
			<point x="319" y="277" type="line"/>
			<point x="162" y="277" type="line"/>
			<point x="202" y="361"/>
			<point x="267" y="443"/>
			<point x="319" y="511" type="curve"/>
		</contour>
		<contour>
			<point x="324" y="693" type="line"/>
			<point x="204" y="573"/>
			<point x="78" y="381"/>
			<point x="20" y="264" type="curve"/>
			<point x="20" y="155" type="line"/>
			<point x="319" y="155" type="line"/>
			<point x="319" y="0" type="line"/>
			<point x="465" y="0" type="line"/>
			<point x="465" y="155" type="line"/>
			<point x="539" y="155" type="line"/>
			<point x="539" y="277" type="line"/>
			<point x="465" y="277" type="line"/>
			<point x="465" y="693" type="line"/>
		</contour>
	</outline>
</glyph>
<glyph name="five" format="2">
	<unicode hex="0035"/>
	<advance width="568"/>
	<outline>
		<contour>
			<point x="360" y="204" type="curve" smooth="yes"/>
			<point x="360" y="155"/>
			<point x="321" y="112"/>
			<point x="229" y="112" type="curve" smooth="yes"/>
			<point x="153" y="112"/>
			<point x="98" y="129"/>
			<point x="65" y="144" type="curve"/>
			<point x="38" y="21" type="line"/>
			<point x="69" y="6"/>
			<point x="164" y="-15"/>
			<point x="235" y="-15" type="curve" smooth="yes"/>
			<point x="419" y="-15"/>
			<point x="509" y="81"/>
			<point x="509" y="209" type="curve" smooth="yes"/>
			<point x="509" y="348"/>
			<point x="419" y="427"/>
			<point x="224" y="440" type="curve"/>
			<point x="228" y="473"/>
			<point x="231" y="520"/>
			<point x="234" y="568" type="curve"/>
			<point x="484" y="568" type="line"/>
			<point x="484" y="693" type="line"/>
			<point x="109" y="693" type="line"/>
			<point x="104" y="581"/>
			<point x="95" y="448"/>
			<point x="80" y="324" type="curve"/>
			<point x="299" y="324"/>
			<point x="360" y="281"/>
		</contour>
	</outline>
</glyph>
<glyph name="six" format="2">
	<unicode hex="0036"/>
	<advance width="568"/>
	<outline>
		<contour>
			<point x="274" y="326" type="curve" smooth="yes"/>
			<point x="354" y="326"/>
			<point x="385" y="288"/>
			<point x="385" y="220" type="curve" smooth="yes"/>
			<point x="385" y="172"/>
			<point x="357" y="110"/>
			<point x="291" y="110" type="curve" smooth="yes"/>
			<point x="211" y="110"/>
			<point x="187" y="188"/>
			<point x="187" y="285" type="curve" smooth="yes"/>
			<point x="187" y="293"/>
			<point x="188" y="306"/>
			<point x="188" y="311" type="curve"/>
			<point x="207" y="320"/>
			<point x="245" y="326"/>
		</contour>
		<contour>
			<point x="293" y="442" type="curve" smooth="yes"/>
			<point x="266" y="442"/>
			<point x="234" y="437"/>
			<point x="205" y="424" type="curve"/>
			<point x="245" y="533"/>
			<point x="352" y="573"/>
			<point x="487" y="576" type="curve"/>
			<point x="479" y="698" type="line"/>
			<point x="208" y="695"/>
			<point x="37" y="550"/>
			<point x="37" y="283" type="curve" smooth="yes"/>
			<point x="37" y="98"/>
			<point x="125" y="-14"/>
			<point x="292" y="-14" type="curve" smooth="yes"/>
			<point x="457" y="-14"/>
			<point x="533" y="115"/>
			<point x="533" y="222" type="curve" smooth="yes"/>
			<point x="533" y="342"/>
			<point x="466" y="442"/>
		</contour>
	</outline>
</glyph>
<glyph name="question" format="2">
	<unicode hex="003F"/>
	<advance width="455"/>
	<outline>
		<contour>
			<point x="201" y="582" type="curve" smooth="yes"/>
			<point x="249" y="582"/>
			<point x="274" y="556"/>
			<point x="274" y="524" type="curve" smooth="yes"/>
			<point x="274" y="485"/>
			<point x="244" y="458"/>
			<point x="213" y="427" type="curve" smooth="yes"/>
			<point x="170" y="384"/>
			<point x="130" y="339"/>
			<point x="130" y="265" type="curve" smooth="yes"/>
			<point x="130" y="253"/>
			<point x="130" y="234"/>
			<point x="133" y="221" type="curve"/>
			<point x="265" y="221" type="line"/>
			<point x="264" y="229"/>
			<point x="264" y="242"/>
			<point x="264" y="247" type="curve" smooth="yes"/>
			<point x="264" y="293"/>
			<point x="305" y="334"/>
			<point x="337" y="366" type="curve" smooth="yes"/>
			<point x="381" y="410"/>
			<point x="430" y="458"/>
			<point x="430" y="533" type="curve" smooth="yes"/>
			<point x="430" y="608"/>
			<point x="387" y="709"/>
			<point x="216" y="709" type="curve" smooth="yes"/>
			<point x="148" y="709"/>
			<point x="72" y="690"/>
			<point x="20" y="657" type="curve"/>
			<point x="62" y="544" type="line"/>
			<point x="114" y="571"/>
			<point x="153" y="582"/>
		</contour>
		<contour>
			<point x="294" y="79" type="curve" smooth="yes"/>
			<point x="294" y="138"/>
			<point x="249" y="171"/>
			<point x="201" y="171" type="curve" smooth="yes"/>
			<point x="153" y="171"/>
			<point x="108" y="138"/>
			<point x="108" y="79" type="curve" smooth="yes"/>
			<point x="108" y="20"/>
			<point x="153" y="-13"/>
			<point x="201" y="-13" type="curve" smooth="yes"/>
			<point x="249" y="-13"/>
			<point x="294" y="20"/>
		</contour>
	</outline>
</glyph>
<glyph name="at" format="2">
	<unicode hex="0040"/>
	<advance width="974"/>
	<outline>
		<contour>
			<point x="701" y="28" type="qcurve"/>
			<point x="672" y="28"/>
			<point x="614" y="42"/>
			<point x="595" y="60" type="qcurve"/>
			<point x="551" y="29"/>
			<point x="484" y="29" type="qcurve"/>
			<point x="434" y="29"/>
			<point x="351" y="60"/>
			<point x="292" y="122"/>
			<point x="259" y="213"/>
			<point x="259" y="273" type="qcurve"/>
			<point x="259" y="324"/>
			<point x="292" y="412"/>
			<point x="356" y="477"/>
			<point x="449" y="515"/>
			<point x="508" y="515" type="qcurve"/>
			<point x="567" y="515"/>
			<point x="658" y="494"/>
			<point x="688" y="483" type="qcurve"/>
			<point x="688" y="169" type="line"/>
			<point x="688" y="146"/>
			<point x="707" y="130"/>
			<point x="725" y="130" type="qcurve"/>
			<point x="741" y="130"/>
			<point x="772" y="148"/>
			<point x="794" y="195"/>
			<point x="808" y="276"/>
			<point x="808" y="338" type="qcurve"/>
			<point x="808" y="400"/>
			<point x="765" y="503"/>
			<point x="684" y="576"/>
			<point x="567" y="617"/>
			<point x="493" y="617" type="qcurve"/>
			<point x="422" y="617"/>
			<point x="303" y="569"/>
			<point x="216" y="480"/>
			<point x="167" y="352"/>
			<point x="167" y="272" type="qcurve"/>
			<point x="167" y="189"/>
			<point x="215" y="64"/>
			<point x="304" y="-20"/>
			<point x="431" y="-63"/>
			<point x="511" y="-63" type="qcurve"/>
			<point x="561" y="-63"/>
			<point x="650" y="-50"/>
			<point x="680" y="-44" type="qcurve"/>
			<point x="695" y="-138" type="line"/>
			<point x="670" y="-146"/>
			<point x="568" y="-164"/>
			<point x="511" y="-164" type="qcurve"/>
			<point x="415" y="-164"/>
			<point x="247" y="-114"/>
			<point x="122" y="-8"/>
			<point x="50" y="157"/>
			<point x="50" y="272" type="qcurve"/>
			<point x="50" y="383"/>
			<point x="126" y="550"/>
			<point x="250" y="662"/>
			<point x="409" y="718"/>
			<point x="493" y="718" type="qcurve"/>
			<point x="585" y="718"/>
			<point x="743" y="667"/>
			<point x="858" y="569"/>
			<point x="924" y="424"/>
			<point x="924" y="330" type="qcurve"/>
			<point x="924" y="257"/>
			<point x="893" y="144"/>
			<point x="834" y="68"/>
			<point x="752" y="28"/>
		</contour>
		<contour>
			<point x="560" y="147" type="qcurve"/>
			<point x="558" y="155"/>
			<point x="556" y="186"/>
			<point x="556" y="200" type="qcurve"/>
			<point x="556" y="404" type="line"/>
			<point x="536" y="408"/>
			<point x="514" y="408" type="qcurve"/>
			<point x="481" y="408"/>
			<point x="435" y="387"/>
			<point x="407" y="351"/>
			<point x="394" y="302"/>
			<point x="394" y="273" type="qcurve"/>
			<point x="394" y="244"/>
			<point x="404" y="195"/>
			<point x="429" y="159"/>
			<point x="471" y="138"/>
			<point x="502" y="138" type="qcurve"/>
			<point x="520" y="138"/>
			<point x="552" y="143"/>
		</contour>
	</outline>
</glyph>
<glyph name="A" format="2">
	<unicode hex="0041"/>
	<advance width="721"/>
	<outline>
		<contour>
			<point x="711" y="0" type="line"/>
			<point x="607" y="298"/>
			<point x="526" y="500"/>
			<point x="435" y="693" type="curve"/>
			<point x="286" y="693" type="line"/>
			<point x="193" y="501"/>
			<point x="114" y="298"/>
			<point x="10" y="0" type="curve"/>
			<point x="172" y="0" type="line"/>
			<point x="187" y="48"/>
			<point x="206" y="99"/>
			<point x="223" y="150" type="curve"/>
			<point x="493" y="150" type="line"/>
			<point x="510" y="99"/>
			<point x="529" y="48"/>
			<point x="544" y="0" type="curve"/>
		</contour>
		<contour>
			<point x="357" y="536" type="curve"/>
			<point x="373" y="496"/>
			<point x="413" y="394"/>
			<point x="456" y="274" type="curve"/>
			<point x="259" y="274" type="line"/>
			<point x="302" y="394"/>
			<point x="344" y="496"/>
		</contour>
	</outline>
</glyph>
<glyph name="C" format="2">
	<unicode hex="0043"/>
	<advance width="648"/>
	<outline>
		<contour>
			<point x="396" y="-14" type="qcurve"/>
			<point x="227" y="-14"/>
			<point x="50" y="174"/>
			<point x="50" y="347" type="qcurve"/>
			<point x="50" y="433"/>
			<point x="104" y="568"/>
			<point x="198" y="661"/>
			<point x="328" y="709"/>
			<point x="404" y="709" type="qcurve"/>
			<point x="448" y="709"/>
			<point x="520" y="696"/>
			<point x="574" y="679"/>
			<point x="610" y="661"/>
			<point x="618" y="656" type="qcurve"/>
			<point x="573" y="530" type="line"/>
			<point x="541" y="547"/>
			<point x="456" y="571"/>
			<point x="402" y="571" type="qcurve"/>
			<point x="366" y="571"/>
			<point x="297" y="547"/>
			<point x="244" y="494"/>
			<point x="212" y="410"/>
			<point x="212" y="350" type="qcurve"/>
			<point x="212" y="302"/>
			<point x="233" y="219"/>
			<point x="280" y="159"/>
			<point x="356" y="124"/>
			<point x="410" y="124" type="qcurve"/>
			<point x="444" y="124"/>
			<point x="498" y="132"/>
			<point x="540" y="143"/>
			<point x="572" y="157"/>
			<point x="585" y="163" type="qcurve"/>
			<point x="628" y="38" type="line"/>
			<point x="595" y="18"/>
			<point x="475" y="-14"/>
		</contour>
	</outline>
</glyph>
<glyph name="D" format="2">
	<unicode hex="0044"/>
	<advance width="737"/>
	<outline>
		<contour>
			<point x="236" y="565" type="line"/>
			<point x="256" y="568"/>
			<point x="280" y="568"/>
			<point x="301" y="568" type="curve" smooth="yes"/>
			<point x="457" y="568"/>
			<point x="526" y="492"/>
			<point x="526" y="347" type="curve" smooth="yes"/>
			<point x="526" y="208"/>
			<point x="452" y="125"/>
			<point x="296" y="125" type="curve" smooth="yes"/>
			<point x="269" y="125"/>
			<point x="251" y="126"/>
			<point x="236" y="127" type="curve"/>
		</contour>
		<contour>
			<point x="687" y="347" type="curve" smooth="yes"/>
			<point x="687" y="598"/>
			<point x="530" y="701"/>
			<point x="293" y="701" type="curve" smooth="yes"/>
			<point x="237" y="701"/>
			<point x="152" y="697"/>
			<point x="80" y="684" type="curve"/>
			<point x="80" y="9" type="line"/>
			<point x="152" y="-6"/>
			<point x="232" y="-9"/>
			<point x="288" y="-9" type="curve" smooth="yes"/>
			<point x="533" y="-9"/>
			<point x="687" y="107"/>
		</contour>
	</outline>
</glyph>
<glyph name="L" format="2">
	<unicode hex="004C"/>
	<advance width="563"/>
	<outline>
		<contour>
			<point x="543" y="134" type="line"/>
			<point x="543" y="0" type="line"/>
			<point x="80" y="0" type="line"/>
			<point x="80" y="693" type="line"/>
			<point x="236" y="693" type="line"/>
			<point x="236" y="134" type="line"/>
		</contour>
	</outline>
</glyph>
<glyph name="R" format="2">
	<unicode hex="0052"/>
	<advance width="667"/>
	<outline>
		<contour>
			<point x="283" y="701" type="curve" smooth="yes"/>
			<point x="226" y="701"/>
			<point x="148" y="696"/>
			<point x="80" y="683" type="curve"/>
			<point x="80" y="0" type="line"/>
			<point x="236" y="0" type="line"/>
			<point x="236" y="253" type="line"/>
			<point x="313" y="253" type="line"/>
			<point x="366" y="190"/>
			<point x="421" y="91"/>
			<point x="472" y="0" type="curve"/>
			<point x="647" y="0" type="line"/>
			<point x="599" y="102"/>
			<point x="532" y="213"/>
			<point x="475" y="283" type="curve"/>
			<point x="559" y="318"/>
			<point x="605" y="376"/>
			<point x="605" y="473" type="curve" smooth="yes"/>
			<point x="605" y="629"/>
			<point x="491" y="701"/>
		</contour>
		<contour>
			<point x="292" y="568" type="curve" smooth="yes"/>
			<point x="392" y="568"/>
			<point x="444" y="542"/>
			<point x="444" y="474" type="curve" smooth="yes"/>
			<point x="444" y="403"/>
			<point x="397" y="377"/>
			<point x="280" y="377" type="curve" smooth="yes"/>
			<point x="236" y="377" type="line"/>
			<point x="236" y="565" type="line"/>
			<point x="252" y="566"/>
			<point x="269" y="568"/>
		</contour>
	</outline>
</glyph>
<glyph name="S" format="2">
	<unicode hex="0053"/>
	<advance width="582"/>
	<outline>
		<contour>
			<point x="269" y="119" type="curve" smooth="yes"/>
			<point x="181" y="119"/>
			<point x="122" y="140"/>
			<point x="81" y="163" type="curve"/>
			<point x="37" y="39" type="line"/>
			<point x="73" y="18"/>
			<point x="146" y="-14"/>
			<point x="269" y="-14" type="curve" smooth="yes"/>
			<point x="452" y="-14"/>
			<point x="542" y="61"/>
			<point x="542" y="190" type="curve" smooth="yes"/>
			<point x="542" y="324"/>
			<point x="473" y="368"/>
			<point x="329" y="421" type="curve"/>
			<point x="261" y="445"/>
			<point x="209" y="464"/>
			<point x="209" y="513" type="curve" smooth="yes"/>
			<point x="209" y="556"/>
			<point x="239" y="576"/>
			<point x="314" y="576" type="curve" smooth="yes"/>
			<point x="381" y="576"/>
			<point x="425" y="558"/>
			<point x="464" y="538" type="curve"/>
			<point x="509" y="661" type="line"/>
			<point x="465" y="685"/>
			<point x="397" y="709"/>
			<point x="304" y="709" type="curve" smooth="yes"/>
			<point x="148" y="709"/>
			<point x="49" y="629"/>
			<point x="49" y="501" type="curve" smooth="yes"/>
			<point x="49" y="373"/>
			<point x="148" y="328"/>
			<point x="239" y="296" type="curve"/>
			<point x="343" y="261"/>
			<point x="381" y="236"/>
			<point x="381" y="191" type="curve" smooth="yes"/>
			<point x="381" y="149"/>
			<point x="357" y="119"/>
		</contour>
	</outline>
</glyph>
<glyph name="T" format="2">
	<unicode hex="0054"/>
	<advance width="614"/>
	<outline>
		<contour>
			<point x="20" y="693" type="line"/>
			<point x="20" y="560" type="line"/>
			<point x="229" y="560" type="line"/>
			<point x="229" y="0" type="line"/>
			<point x="385" y="0" type="line"/>
			<point x="385" y="560" type="line"/>
			<point x="594" y="560" type="line"/>
			<point x="594" y="693" type="line"/>
		</contour>
	</outline>
</glyph>
<glyph name="U" format="2">
	<unicode hex="0055"/>
	<advance width="707"/>
	<outline>
		<contour>
			<point x="351" y="-14" type="curve" smooth="yes"/>
			<point x="548" y="-14"/>
			<point x="637" y="98"/>
			<point x="637" y="262" type="curve" smooth="yes"/>
			<point x="637" y="693" type="line"/>
			<point x="481" y="693" type="line"/>
			<point x="481" y="275" type="line" smooth="yes"/>
			<point x="481" y="163"/>
			<point x="429" y="121"/>
			<point x="353" y="121" type="curve" smooth="yes"/>
			<point x="278" y="121"/>
			<point x="226" y="162"/>
			<point x="226" y="275" type="curve" smooth="yes"/>
			<point x="226" y="693" type="line"/>
			<point x="70" y="693" type="line"/>
			<point x="70" y="262" type="line" smooth="yes"/>
			<point x="70" y="100"/>
			<point x="156" y="-14"/>
		</contour>
	</outline>
</glyph>
<glyph name="X" format="2">
	<unicode hex="0058"/>
	<advance width="675"/>
	<outline>
		<contour>
			<point x="478" y="0" type="line"/>
			<point x="449" y="58"/>
			<point x="380" y="177"/>
			<point x="335" y="239" type="qcurve"/>
			<point x="321" y="221"/>
			<point x="278" y="157"/>
			<point x="235" y="85"/>
			<point x="197" y="19"/>
			<point x="188" y="0" type="qcurve"/>
			<point x="10" y="0" type="line"/>
			<point x="54" y="81"/>
			<point x="171" y="259"/>
			<point x="243" y="359" type="qcurve"/>
			<point x="20" y="693" type="line"/>
			<point x="209" y="693" type="line"/>
			<point x="344" y="477" type="line"/>
			<point x="476" y="693" type="line"/>
			<point x="654" y="693" type="line"/>
			<point x="434" y="357" type="line"/>
			<point x="518" y="248"/>
			<point x="632" y="63"/>
			<point x="665" y="0" type="qcurve"/>
		</contour>
	</outline>
</glyph>
<glyph name="f" format="2">
	<unicode hex="0066"/>
	<advance width="422"/>
	<outline>
		<contour>
			<point x="298" y="776" type="curve" smooth="yes"/>
			<point x="147" y="776"/>
			<point x="70" y="690"/>
			<point x="70" y="554" type="curve" smooth="yes"/>
			<point x="70" y="0" type="line"/>
			<point x="219" y="0" type="line"/>
			<point x="219" y="402" type="line"/>
			<point x="403" y="402" type="line"/>
			<point x="403" y="526" type="line"/>
			<point x="219" y="526" type="line"/>
			<point x="219" y="552" type="line" smooth="yes"/>
			<point x="219" y="608"/>
			<point x="240" y="650"/>
			<point x="313" y="650" type="curve" smooth="yes"/>
			<point x="340" y="650"/>
			<point x="373" y="644"/>
			<point x="400" y="632" type="curve"/>
			<point x="429" y="751" type="line"/>
			<point x="404" y="762"/>
			<point x="354" y="776"/>
		</contour>
	</outline>
</glyph>
<glyph name="g" format="2">
	<unicode hex="0067"/>
	<advance width="594"/>
	<outline>
		<contour>
			<point x="197" y="280" type="curve" smooth="yes"/>
			<point x="197" y="360"/>
			<point x="235" y="418"/>
			<point x="314" y="418" type="curve" smooth="yes"/>
			<point x="341" y="418"/>
			<point x="360" y="416"/>
			<point x="375" y="413" type="curve"/>
			<point x="375" y="175" type="line"/>
			<point x="356" y="164"/>
			<point x="329" y="155"/>
			<point x="298" y="155" type="curve" smooth="yes"/>
			<point x="231" y="155"/>
			<point x="197" y="197"/>
		</contour>
		<contour>
			<point x="524" y="508" type="line"/>
			<point x="470" y="524"/>
			<point x="384" y="538"/>
			<point x="313" y="538" type="curve" smooth="yes"/>
			<point x="144" y="538"/>
			<point x="45" y="435"/>
			<point x="45" y="280" type="curve" smooth="yes"/>
			<point x="45" y="125"/>
			<point x="125" y="35"/>
			<point x="270" y="35" type="curve" smooth="yes"/>
			<point x="310" y="35"/>
			<point x="343" y="42"/>
			<point x="375" y="57" type="curve"/>
			<point x="375" y="38" type="line" smooth="yes"/>
			<point x="375" y="-21"/>
			<point x="343" y="-62"/>
			<point x="258" y="-62" type="curve" smooth="yes"/>
			<point x="193" y="-62"/>
			<point x="144" y="-51"/>
			<point x="97" y="-32" type="curve"/>
			<point x="71" y="-157" type="line"/>
			<point x="126" y="-176"/>
			<point x="192" y="-188"/>
			<point x="256" y="-188" type="curve" smooth="yes"/>
			<point x="439" y="-188"/>
			<point x="524" y="-106"/>
			<point x="524" y="66" type="curve" smooth="yes"/>
		</contour>
	</outline>
</glyph>
<glyph name="k" format="2">
	<unicode hex="006B"/>
	<advance width="579"/>
	<outline>
		<contour>
			<point x="219" y="336" type="line"/>
			<point x="241" y="360"/>
			<point x="288" y="412"/>
			<point x="332" y="463"/>
			<point x="371" y="509"/>
			<point x="385" y="526" type="qcurve"/>
			<point x="562" y="526" type="line"/>
			<point x="509" y="465"/>
			<point x="408" y="354"/>
			<point x="348" y="295" type="qcurve"/>
			<point x="378" y="268"/>
			<point x="442" y="193"/>
			<point x="502" y="113"/>
			<point x="552" y="33"/>
			<point x="569" y="0" type="qcurve"/>
			<point x="398" y="0" type="line"/>
			<point x="382" y="26"/>
			<point x="341" y="89"/>
			<point x="295" y="152"/>
			<point x="244" y="210"/>
			<point x="219" y="230" type="qcurve"/>
			<point x="219" y="0" type="line"/>
			<point x="70" y="0" type="line"/>
			<point x="70" y="752" type="line"/>
			<point x="219" y="776" type="line"/>
		</contour>
	</outline>
</glyph>
<glyph name="l" format="2">
	<unicode hex="006C"/>
	<advance width="316"/>
	<outline>
		<contour>
			<point x="301" y="113" type="line"/>
			<point x="230" y="118"/>
			<point x="219" y="150"/>
			<point x="219" y="203" type="curve" smooth="yes"/>
			<point x="219" y="776" type="line"/>
			<point x="70" y="752" type="line"/>
			<point x="70" y="173" type="line" smooth="yes"/>
			<point x="70" y="61"/>
			<point x="108" y="-7"/>
			<point x="280" y="-10" type="curve"/>
		</contour>
	</outline>
</glyph>
<glyph name="o" format="2">
	<unicode hex="006F"/>
	<advance width="607"/>
	<outline>
		<contour>
			<point x="562" y="264" type="qcurve"/>
			<point x="562" y="202"/>
			<point x="526" y="99"/>
			<point x="458" y="26"/>
			<point x="363" y="-14"/>
			<point x="304" y="-14" type="qcurve"/>
			<point x="246" y="-14"/>
			<point x="151" y="26"/>
			<point x="83" y="99"/>
			<point x="45" y="202"/>
			<point x="45" y="264" type="qcurve"/>
			<point x="45" y="326"/>
			<point x="84" y="428"/>
			<point x="153" y="500"/>
			<point x="248" y="540"/>
			<point x="304" y="540" type="qcurve"/>
			<point x="361" y="540"/>
			<point x="456" y="500"/>
			<point x="524" y="428"/>
			<point x="562" y="326"/>
		</contour>
		<contour>
			<point x="410" y="264" type="qcurve"/>
			<point x="410" y="333"/>
			<point x="355" y="412"/>
			<point x="304" y="412" type="qcurve"/>
			<point x="253" y="412"/>
			<point x="197" y="333"/>
			<point x="197" y="264" type="qcurve"/>
			<point x="197" y="195"/>
			<point x="253" y="114"/>
			<point x="304" y="114" type="qcurve"/>
			<point x="355" y="114"/>
			<point x="410" y="195"/>
		</contour>
	</outline>
</glyph>
<glyph name="r" format="2">
	<unicode hex="0072"/>
	<advance width="422"/>
	<outline>
		<contour>
			<point x="387" y="394" type="line"/>
			<point x="367" y="399"/>
			<point x="313" y="410"/>
			<point x="282" y="410" type="qcurve"/>
			<point x="268" y="410"/>
			<point x="229" y="405"/>
			<point x="219" y="402" type="qcurve"/>
			<point x="219" y="0" type="line"/>
			<point x="70" y="0" type="line"/>
			<point x="70" y="498" type="line"/>
			<point x="110" y="512"/>
			<point x="219" y="537"/>
			<point x="286" y="537" type="qcurve"/>
			<point x="298" y="537"/>
			<point x="332" y="534"/>
			<point x="366" y="529"/>
			<point x="400" y="522"/>
			<point x="412" y="517" type="qcurve"/>
		</contour>
	</outline>
</glyph>
<glyph name="v" format="2">
	<unicode hex="0076"/>
	<advance width="550"/>
	<outline>
		<contour>
			<point x="337" y="0" type="line"/>
			<point x="405" y="133"/>
			<point x="477" y="315"/>
			<point x="540" y="526" type="curve"/>
			<point x="386" y="526" type="line"/>
			<point x="359" y="422"/>
			<point x="312" y="275"/>
			<point x="277" y="179" type="curve"/>
			<point x="240" y="274"/>
			<point x="195" y="422"/>
			<point x="168" y="526" type="curve"/>
			<point x="10" y="526" type="line"/>
			<point x="73" y="315"/>
			<point x="145" y="133"/>
			<point x="213" y="0" type="curve"/>
		</contour>
	</outline>
</glyph>
<glyph name="x" format="2">
	<unicode hex="0078"/>
	<advance width="554"/>
	<outline>
		<contour>
			<point x="175" y="526" type="line"/>
			<point x="14" y="526" type="line"/>
			<point x="73" y="442"/>
			<point x="133" y="355"/>
			<point x="193" y="271" type="curve"/>
			<point x="125" y="187"/>
			<point x="43" y="68"/>
			<point x="10" y="0" type="curve"/>
			<point x="162" y="0" type="line"/>
			<point x="189" y="53"/>
			<point x="233" y="127"/>
			<point x="273" y="178" type="curve"/>
			<point x="316" y="124"/>
			<point x="362" y="41"/>
			<point x="384" y="0" type="curve"/>
			<point x="544" y="0" type="line"/>
			<point x="505" y="75"/>
			<point x="437" y="173"/>
			<point x="357" y="273" type="curve"/>
			<point x="537" y="526" type="line"/>
			<point x="383" y="526" type="line"/>
			<point x="279" y="366" type="line"/>
		</contour>
	</outline>
</glyph>
<glyph name="z" format="2">
	<unicode hex="007A"/>
	<advance width="500"/>
	<outline>
		<contour>
			<point x="465" y="526" type="line"/>
			<point x="47" y="526" type="line"/>
			<point x="47" y="402" type="line"/>
			<point x="271" y="402" type="line"/>
			<point x="200" y="317"/>
			<point x="91" y="184"/>
			<point x="35" y="88" type="curve"/>
			<point x="35" y="0" type="line"/>
			<point x="470" y="0" type="line"/>
			<point x="470" y="124" type="line"/>
			<point x="216" y="124" type="line"/>
			<point x="293" y="236"/>
			<point x="417" y="372"/>
			<point x="465" y="426" type="curve"/>
		</contour>
	</outline>
</glyph>
<glyph name="braceleft" format="2">
	<unicode hex="007B"/>
	<advance width="371"/>
	<outline>
		<contour>
			<point x="35" y="240" type="line"/>
			<point x="94" y="240"/>
			<point x="120" y="202"/>
			<point x="120" y="146" type="curve" smooth="yes"/>
			<point x="120" y="-5" type="line" smooth="yes"/>
			<point x="120" y="-120"/>
			<point x="173" y="-185"/>
			<point x="341" y="-185" type="curve" smooth="yes"/>
			<point x="361" y="-185" type="line"/>
			<point x="361" y="-66" type="line"/>
			<point x="336" y="-66" type="line" smooth="yes"/>
			<point x="276" y="-66"/>
			<point x="260" y="-39"/>
			<point x="260" y="16" type="curve" smooth="yes"/>
			<point x="260" y="149" type="line" smooth="yes"/>
			<point x="260" y="218"/>
			<point x="246" y="264"/>
			<point x="190" y="299" type="curve"/>
			<point x="246" y="334"/>
			<point x="260" y="380"/>
			<point x="260" y="449" type="curve" smooth="yes"/>
			<point x="260" y="582" type="line" smooth="yes"/>
			<point x="260" y="637"/>
			<point x="276" y="664"/>
			<point x="336" y="664" type="curve" smooth="yes"/>
			<point x="361" y="664" type="line"/>
			<point x="361" y="783" type="line"/>
			<point x="341" y="783" type="line" smooth="yes"/>
			<point x="173" y="783"/>
			<point x="120" y="718"/>
			<point x="120" y="603" type="curve" smooth="yes"/>
			<point x="120" y="452" type="line" smooth="yes"/>
			<point x="120" y="396"/>
			<point x="94" y="358"/>
			<point x="35" y="358" type="curve"/>
		</contour>
	</outline>
</glyph>
<glyph name="cent" format="2">
	<unicode hex="00A2"/>
	<advance width="568"/>
	<outline>
		<contour>
			<point x="224" y="-109" type="line"/>
			<point x="366" y="-109" type="line"/>
			<point x="366" y="28" type="line"/>
			<point x="409" y="33"/>
			<point x="443" y="42"/>
			<point x="470" y="53" type="curve"/>
			<point x="449" y="175" type="line"/>
			<point x="414" y="160"/>
			<point x="370" y="154"/>
			<point x="334" y="154" type="curve" smooth="yes"/>
			<point x="237" y="154"/>
			<point x="197" y="202"/>
			<point x="197" y="293" type="curve" smooth="yes"/>
			<point x="197" y="378"/>
			<point x="244" y="432"/>
			<point x="328" y="432" type="curve" smooth="yes"/>
			<point x="369" y="432"/>
			<point x="401" y="423"/>
			<point x="429" y="412" type="curve"/>
			<point x="462" y="531" type="line"/>
			<point x="431" y="544"/>
			<point x="401" y="552"/>
			<point x="366" y="557" type="curve"/>
			<point x="366" y="692" type="line"/>
			<point x="224" y="692" type="line"/>
			<point x="224" y="546" type="line"/>
			<point x="112" y="511"/>
			<point x="45" y="411"/>
			<point x="45" y="293" type="curve" smooth="yes"/>
			<point x="45" y="169"/>
			<point x="101" y="70"/>
			<point x="224" y="37" type="curve"/>
		</contour>
	</outline>
</glyph>
<glyph name="dieresis" format="2">
	<unicode hex="00A8"/>
	<advance width="536"/>
	<outline>
		<contour>
			<point x="156" y="602" type="qcurve"/>
			<point x="125" y="602"/>
			<point x="79" y="643"/>
			<point x="79" y="678" type="qcurve"/>
			<point x="79" y="713"/>
			<point x="125" y="754"/>
			<point x="156" y="754" type="qcurve"/>
			<point x="187" y="754"/>
			<point x="233" y="713"/>
			<point x="233" y="678" type="qcurve"/>
			<point x="233" y="643"/>
			<point x="187" y="602"/>
		</contour>
		<contour>
			<point x="379" y="602" type="qcurve"/>
			<point x="348" y="602"/>
			<point x="302" y="643"/>
			<point x="302" y="678" type="qcurve"/>
			<point x="302" y="713"/>
			<point x="348" y="754"/>
			<point x="379" y="754" type="qcurve"/>
			<point x="410" y="754"/>
			<point x="456" y="713"/>
			<point x="456" y="678" type="qcurve"/>
			<point x="456" y="643"/>
			<point x="410" y="602"/>
		</contour>
	</outline>
</glyph>
<glyph name="logicalnot" format="2">
	<unicode hex="00AC"/>
	<advance width="568"/>
	<outline>
		<contour>
			<point x="520" y="410" type="line"/>
			<point x="50" y="410" type="line"/>
			<point x="50" y="285" type="line"/>
			<point x="384" y="285" type="line"/>
			<point x="384" y="51" type="line"/>
			<point x="520" y="51" type="line"/>
		</contour>
	</outline>
</glyph>
<glyph name="macron" format="2">
	<unicode hex="00AF"/>
	<advance width="376"/>
	<outline>
		<contour>
			<point x="27" y="623" type="line"/>
			<point x="349" y="623" type="line"/>
			<point x="349" y="725" type="line"/>
			<point x="27" y="725" type="line"/>
		</contour>
	</outline>
</glyph>
<glyph name="degree" format="2">
	<unicode hex="00B0"/>
	<advance width="363"/>
	<outline>
		<contour>
			<point x="181" y="781" type="qcurve"/>
			<point x="213" y="781"/>
			<point x="272" y="760"/>
			<point x="316" y="719"/>
			<point x="342" y="662"/>
			<point x="342" y="626" type="qcurve"/>
			<point x="342" y="590"/>
			<point x="316" y="533"/>
			<point x="272" y="492"/>
			<point x="213" y="471"/>
			<point x="181" y="471" type="qcurve"/>
			<point x="149" y="471"/>
			<point x="90" y="492"/>
			<point x="46" y="533"/>
			<point x="20" y="590"/>
			<point x="20" y="626" type="qcurve"/>
			<point x="20" y="662"/>
			<point x="46" y="719"/>
			<point x="90" y="760"/>
			<point x="149" y="781"/>
		</contour>
		<contour>
			<point x="181" y="569" type="qcurve"/>
			<point x="202" y="569"/>
			<point x="236" y="600"/>
			<point x="236" y="626" type="qcurve"/>
			<point x="236" y="652"/>
			<point x="202" y="683"/>
			<point x="181" y="683" type="qcurve"/>
			<point x="160" y="683"/>
			<point x="126" y="652"/>
			<point x="126" y="626" type="qcurve"/>
			<point x="126" y="600"/>
			<point x="160" y="569"/>
		</contour>
	</outline>
</glyph>
<glyph name="ordmasculine" format="2">
	<unicode hex="00BA"/>
	<advance width="457"/>
	<outline>
		<contour>
			<point x="424" y="506" type="curve" smooth="yes"/>
			<point x="424" y="633"/>
			<point x="344" y="709"/>
			<point x="229" y="709" type="curve" smooth="yes"/>
			<point x="114" y="709"/>
			<point x="33" y="633"/>
			<point x="33" y="506" type="curve" smooth="yes"/>
			<point x="33" y="382"/>
			<point x="114" y="306"/>
			<point x="229" y="306" type="curve" smooth="yes"/>
			<point x="344" y="306"/>
			<point x="424" y="382"/>
		</contour>
		<contour>
			<point x="310" y="506" type="curve" smooth="yes"/>
			<point x="310" y="446"/>
			<point x="281" y="406"/>
			<point x="229" y="406" type="curve" smooth="yes"/>
			<point x="177" y="406"/>
			<point x="147" y="446"/>
			<point x="147" y="506" type="curve" smooth="yes"/>
			<point x="147" y="570"/>
			<point x="178" y="609"/>
			<point x="229" y="609" type="curve" smooth="yes"/>
			<point x="281" y="609"/>
			<point x="310" y="570"/>
		</contour>
	</outline>
</glyph>
<glyph name="Eth" format="2">
	<unicode hex="00D0"/>
	<advance width="748"/>
	<outline>
		<contour>
			<point x="247" y="302" type="line"/>
			<point x="373" y="302" type="line"/>
			<point x="373" y="417" type="line"/>
			<point x="247" y="417" type="line"/>
			<point x="247" y="565" type="line"/>
			<point x="267" y="568"/>
			<point x="291" y="568"/>
			<point x="312" y="568" type="curve" smooth="yes"/>
			<point x="468" y="568"/>
			<point x="537" y="492"/>
			<point x="537" y="347" type="curve" smooth="yes"/>
			<point x="537" y="208"/>
			<point x="463" y="125"/>
			<point x="307" y="125" type="curve" smooth="yes"/>
			<point x="280" y="125"/>
			<point x="262" y="126"/>
			<point x="247" y="127" type="curve"/>
		</contour>
		<contour>
			<point x="698" y="347" type="curve" smooth="yes"/>
			<point x="698" y="598"/>
			<point x="541" y="701"/>
			<point x="304" y="701" type="curve" smooth="yes"/>
			<point x="248" y="701"/>
			<point x="163" y="697"/>
			<point x="91" y="684" type="curve"/>
			<point x="91" y="417" type="line"/>
			<point x="10" y="417" type="line"/>
			<point x="10" y="302" type="line"/>
			<point x="91" y="302" type="line"/>
			<point x="91" y="9" type="line"/>
			<point x="163" y="-6"/>
			<point x="243" y="-9"/>
			<point x="299" y="-9" type="curve" smooth="yes"/>
			<point x="544" y="-9"/>
			<point x="698" y="107"/>
		</contour>
	</outline>
</glyph>
<glyph name="Oslash" format="2">
	<unicode hex="00D8"/>
	<advance width="790"/>
	<outline>
		<contour>
			<point x="740" y="347" type="qcurve"/>
			<point x="740" y="258"/>
			<point x="687" y="123"/>
			<point x="595" y="32"/>
			<point x="468" y="-14"/>
			<point x="395" y="-14" type="qcurve"/>
			<point x="345" y="-14"/>
			<point x="254" y="7"/>
			<point x="215" y="30" type="qcurve"/>
			<point x="157" y="-45" type="line"/>
			<point x="72" y="18" type="line"/>
			<point x="133" y="96" type="line"/>
			<point x="94" y="141"/>
			<point x="50" y="266"/>
			<point x="50" y="347" type="qcurve"/>
			<point x="50" y="436"/>
			<point x="106" y="571"/>
			<point x="201" y="663"/>
			<point x="326" y="709"/>
			<point x="395" y="709" type="qcurve"/>
			<point x="494" y="709"/>
			<point x="573" y="665" type="qcurve"/>
			<point x="629" y="738" type="line"/>
			<point x="714" y="675" type="line"/>
			<point x="655" y="599" type="line"/>
			<point x="695" y="554"/>
			<point x="740" y="428"/>
		</contour>
		<contour>
			<point x="579" y="347" type="qcurve"/>
			<point x="579" y="419"/>
			<point x="555" y="470" type="qcurve"/>
			<point x="304" y="145" type="line"/>
			<point x="345" y="123"/>
			<point x="395" y="123" type="qcurve"/>
			<point x="438" y="123"/>
			<point x="507" y="155"/>
			<point x="554" y="214"/>
			<point x="579" y="296"/>
		</contour>
		<contour>
			<point x="211" y="347" type="qcurve"/>
			<point x="211" y="278"/>
			<point x="234" y="227" type="qcurve"/>
			<point x="484" y="550" type="line"/>
			<point x="445" y="572"/>
			<point x="395" y="572" type="qcurve"/>
			<point x="351" y="572"/>
			<point x="283" y="539"/>
			<point x="236" y="480"/>
			<point x="211" y="397"/>
		</contour>
	</outline>
</glyph>
<glyph name="eth" format="2">
	<unicode hex="00F0"/>
	<advance width="601"/>
	<outline>
		<contour>
			<point x="572" y="633" type="line"/>
			<point x="543" y="717" type="line"/>
			<point x="428" y="678" type="line"/>
			<point x="392" y="719"/>
			<point x="350" y="753"/>
			<point x="303" y="780" type="curve"/>
			<point x="220" y="694" type="line"/>
			<point x="247" y="675"/>
			<point x="272" y="656"/>
			<point x="295" y="633" type="curve"/>
			<point x="215" y="606" type="line"/>
			<point x="244" y="522" type="line"/>
			<point x="355" y="559" type="line"/>
			<point x="376" y="526"/>
			<point x="390" y="491"/>
			<point x="398" y="456" type="curve"/>
			<point x="371" y="469"/>
			<point x="330" y="481"/>
			<point x="295" y="481" type="curve" smooth="yes"/>
			<point x="127" y="481"/>
			<point x="45" y="382"/>
			<point x="45" y="234" type="curve" smooth="yes"/>
			<point x="45" y="99"/>
			<point x="128" y="-14"/>
			<point x="296" y="-14" type="curve" smooth="yes"/>
			<point x="477" y="-14"/>
			<point x="558" y="125"/>
			<point x="558" y="324" type="curve" smooth="yes"/>
			<point x="558" y="429"/>
			<point x="530" y="523"/>
			<point x="483" y="603" type="curve"/>
		</contour>
		<contour>
			<point x="406" y="313" type="curve" smooth="yes"/>
			<point x="406" y="211"/>
			<point x="385" y="115"/>
			<point x="296" y="115" type="curve" smooth="yes"/>
			<point x="227" y="115"/>
			<point x="195" y="164"/>
			<point x="195" y="236" type="curve" smooth="yes"/>
			<point x="195" y="305"/>
			<point x="220" y="362"/>
			<point x="305" y="362" type="curve" smooth="yes"/>
			<point x="337" y="362"/>
			<point x="372" y="356"/>
			<point x="405" y="329" type="curve"/>
			<point x="406" y="322"/>
			<point x="406" y="316"/>
		</contour>
	</outline>
</glyph>
<glyph name="Eogonek" format="2">
	<unicode hex="0118"/>
	<advance width="606"/>
	<outline>
		<contour>
			<point x="492" y="-221" type="curve" smooth="yes"/>
			<point x="523" y="-221"/>
			<point x="564" y="-216"/>
			<point x="591" y="-205" type="curve"/>
			<point x="579" y="-105" type="line"/>
			<point x="556" y="-112"/>
			<point x="540" y="-113"/>
			<point x="528" y="-113" type="curve" smooth="yes"/>
			<point x="505" y="-113"/>
			<point x="498" y="-103"/>
			<point x="498" y="-88" type="curve" smooth="yes"/>
			<point x="498" y="-73"/>
			<point x="509" y="-58"/>
			<point x="526" y="-41" type="curve" smooth="yes"/>
			<point x="541" y="-26"/>
			<point x="558" y="-11"/>
			<point x="571" y="0" type="curve"/>
			<point x="571" y="131" type="line"/>
			<point x="236" y="131" type="line"/>
			<point x="236" y="298" type="line"/>
			<point x="513" y="298" type="line"/>
			<point x="513" y="426" type="line"/>
			<point x="236" y="426" type="line"/>
			<point x="236" y="562" type="line"/>
			<point x="548" y="562" type="line"/>
			<point x="548" y="693" type="line"/>
			<point x="80" y="693" type="line"/>
			<point x="80" y="0" type="line"/>
			<point x="452" y="0" type="line"/>
			<point x="435" y="-13"/>
			<point x="416" y="-30"/>
			<point x="400" y="-50" type="curve" smooth="yes"/>
			<point x="380" y="-75"/>
			<point x="367" y="-102"/>
			<point x="367" y="-130" type="curve" smooth="yes"/>
			<point x="367" y="-185"/>
			<point x="403" y="-221"/>
		</contour>
	</outline>
</glyph>
<glyph name="hbar" format="2">
	<unicode hex="0127"/>
	<advance width="599"/>
	<outline>
		<contour>
			<point x="18" y="689" type="line"/>
			<point x="80" y="689" type="line"/>
			<point x="80" y="752" type="line"/>
			<point x="229" y="776" type="line"/>
			<point x="229" y="689" type="line"/>
			<point x="372" y="689" type="line"/>
			<point x="372" y="596" type="line"/>
			<point x="229" y="596" type="line"/>
			<point x="229" y="509" type="line"/>
			<point x="244" y="514"/>
			<point x="291" y="523"/>
			<point x="313" y="523" type="qcurve"/>
			<point x="377" y="523"/>
			<point x="462" y="488"/>
			<point x="513" y="424"/>
			<point x="534" y="336"/>
			<point x="534" y="282" type="qcurve"/>
			<point x="534" y="0" type="line"/>
			<point x="385" y="0" type="line"/>
			<point x="385" y="264" type="line"/>
			<point x="385" y="336"/>
			<point x="348" y="396"/>
			<point x="298" y="396" type="qcurve"/>
			<point x="278" y="396"/>
			<point x="243" y="389"/>
			<point x="229" y="385" type="qcurve"/>
			<point x="229" y="0" type="line"/>
			<point x="80" y="0" type="line"/>
			<point x="80" y="596" type="line"/>
			<point x="18" y="596" type="line"/>
		</contour>
	</outline>
</glyph>
<glyph name="Iogonek" format="2">
	<unicode hex="012E"/>
	<advance width="316"/>
	<outline>
		<contour>
			<point x="80" y="0" type="line"/>
			<point x="117" y="0" type="line"/>
			<point x="100" y="-13"/>
			<point x="81" y="-30"/>
			<point x="65" y="-50" type="curve" smooth="yes"/>
			<point x="45" y="-75"/>
			<point x="32" y="-102"/>
			<point x="32" y="-130" type="curve" smooth="yes"/>
			<point x="32" y="-185"/>
			<point x="68" y="-221"/>
			<point x="157" y="-221" type="curve" smooth="yes"/>
			<point x="188" y="-221"/>
			<point x="229" y="-216"/>
			<point x="256" y="-205" type="curve"/>
			<point x="244" y="-105" type="line"/>
			<point x="221" y="-112"/>
			<point x="205" y="-113"/>
			<point x="193" y="-113" type="curve" smooth="yes"/>
			<point x="170" y="-113"/>
			<point x="163" y="-103"/>
			<point x="163" y="-88" type="curve" smooth="yes"/>
			<point x="163" y="-73"/>
			<point x="174" y="-58"/>
			<point x="191" y="-41" type="curve" smooth="yes"/>
			<point x="206" y="-26"/>
			<point x="223" y="-11"/>
			<point x="236" y="0" type="curve"/>
			<point x="236" y="693" type="line"/>
			<point x="80" y="693" type="line"/>
		</contour>
	</outline>
</glyph>
<glyph name="dotlessi" format="2">
	<unicode hex="0131"/>
	<advance width="289"/>
	<outline>
		<contour>
			<point x="219" y="526" type="line"/>
			<point x="70" y="526" type="line"/>
			<point x="70" y="0" type="line"/>
			<point x="219" y="0" type="line"/>
		</contour>
	</outline>
</glyph>
<glyph name="kgreenlandic" format="2">
	<unicode hex="0138"/>
	<advance width="582"/>
	<outline>
		<contour>
			<point x="219" y="526" type="line"/>
			<point x="70" y="526" type="line"/>
			<point x="70" y="0" type="line"/>
			<point x="219" y="0" type="line"/>
			<point x="219" y="224" type="line"/>
			<point x="286" y="168"/>
			<point x="358" y="69"/>
			<point x="401" y="0" type="curve"/>
			<point x="572" y="0" type="line"/>
			<point x="524" y="89"/>
			<point x="429" y="210"/>
			<point x="348" y="288" type="curve"/>
			<point x="407" y="347"/>
			<point x="506" y="455"/>
			<point x="564" y="526" type="curve"/>
			<point x="387" y="526" type="line"/>
			<point x="347" y="475"/>
			<point x="278" y="393"/>
			<point x="219" y="329" type="curve"/>
		</contour>
	</outline>
</glyph>
<glyph name="Eng" format="2">
	<unicode hex="014A"/>
	<advance width="756"/>
	<outline>
		<contour>
			<point x="521" y="42" type="line"/>
			<point x="458" y="151"/>
			<point x="313" y="360"/>
			<point x="234" y="454" type="qcurve"/>
			<point x="234" y="0" type="line"/>
			<point x="80" y="0" type="line"/>
			<point x="80" y="693" type="line"/>
			<point x="207" y="693" type="line"/>
			<point x="240" y="660"/>
			<point x="320" y="564"/>
			<point x="403" y="455"/>
			<point x="485" y="338"/>
			<point x="521" y="284" type="qcurve"/>
			<point x="521" y="693" type="line"/>
			<point x="676" y="693" type="line"/>
			<point x="676" y="17" type="line"/>
			<point x="676" y="-87"/>
			<point x="582" y="-187"/>
			<point x="479" y="-187" type="qcurve"/>
			<point x="465" y="-187"/>
			<point x="416" y="-182"/>
			<point x="392" y="-174" type="qcurve"/>
			<point x="412" y="-53" type="line"/>
			<point x="427" y="-58"/>
			<point x="446" y="-61"/>
			<point x="465" y="-61" type="qcurve"/>
			<point x="497" y="-61"/>
			<point x="521" y="-19"/>
			<point x="521" y="21" type="qcurve"/>
		</contour>
	</outline>
</glyph>
<glyph name="tbar" format="2">
	<unicode hex="0167"/>
	<advance width="444"/>
	<outline>
		<contour>
			<point x="65" y="215" type="line"/>
			<point x="65" y="79"/>
			<point x="110" y="-12"/>
			<point x="273" y="-12" type="curve" smooth="yes"/>
			<point x="337" y="-12"/>
			<point x="378" y="0"/>
			<point x="414" y="15" type="curve"/>
			<point x="393" y="131" type="line"/>
			<point x="365" y="120"/>
			<point x="329" y="114"/>
			<point x="297" y="114" type="curve" smooth="yes"/>
			<point x="230" y="114"/>
			<point x="214" y="154"/>
			<point x="214" y="217" type="curve" smooth="yes"/>
			<point x="214" y="228" type="line"/>
			<point x="392" y="228" type="line"/>
			<point x="392" y="321" type="line"/>
			<point x="214" y="321" type="line"/>
			<point x="214" y="402" type="line"/>
			<point x="393" y="402" type="line"/>
			<point x="393" y="526" type="line"/>
			<point x="214" y="526" type="line"/>
			<point x="214" y="681" type="line"/>
			<point x="65" y="657" type="line"/>
		</contour>
	</outline>
</glyph>
<glyph name="uogonek" format="2">
	<unicode hex="0173"/>
	<advance width="589"/>
	<outline>
		<contour>
			<point x="422" y="-218" type="curve" smooth="yes"/>
			<point x="453" y="-218"/>
			<point x="494" y="-213"/>
			<point x="521" y="-202" type="curve"/>
			<point x="509" y="-102" type="line"/>
			<point x="486" y="-109"/>
			<point x="470" y="-110"/>
			<point x="458" y="-110" type="curve" smooth="yes"/>
			<point x="435" y="-110"/>
			<point x="428" y="-100"/>
			<point x="428" y="-85" type="curve" smooth="yes"/>
			<point x="428" y="-70"/>
			<point x="439" y="-55"/>
			<point x="456" y="-38" type="curve" smooth="yes"/>
			<point x="479" y="-15"/>
			<point x="506" y="7"/>
			<point x="519" y="18" type="curve"/>
			<point x="519" y="526" type="line"/>
			<point x="370" y="526" type="line"/>
			<point x="370" y="120" type="line"/>
			<point x="351" y="117"/>
			<point x="325" y="115"/>
			<point x="304" y="115" type="curve" smooth="yes"/>
			<point x="235" y="115"/>
			<point x="214" y="155"/>
			<point x="214" y="251" type="curve" smooth="yes"/>
			<point x="214" y="526" type="line"/>
			<point x="65" y="526" type="line"/>
			<point x="65" y="233" type="line" smooth="yes"/>
			<point x="65" y="89"/>
			<point x="116" y="-12"/>
			<point x="295" y="-12" type="curve" smooth="yes"/>
			<point x="318" y="-12"/>
			<point x="345" y="-12"/>
			<point x="366" y="-9" type="curve"/>
			<point x="354" y="-20"/>
			<point x="341" y="-32"/>
			<point x="330" y="-47" type="curve" smooth="yes"/>
			<point x="310" y="-72"/>
			<point x="297" y="-99"/>
			<point x="297" y="-127" type="curve" smooth="yes"/>
			<point x="297" y="-182"/>
			<point x="333" y="-218"/>
		</contour>
	</outline>
</glyph>
<glyph name="uni0181" format="2">
	<unicode hex="0181"/>
	<advance width="811"/>
	<outline>
		<contour>
			<point x="15" y="523" type="qcurve"/>
			<point x="15" y="588"/>
			<point x="94" y="660"/>
			<point x="213" y="694"/>
			<point x="351" y="701"/>
			<point x="410" y="701" type="qcurve"/>
			<point x="484" y="701"/>
			<point x="603" y="682"/>
			<point x="687" y="636"/>
			<point x="732" y="561"/>
			<point x="732" y="506" type="qcurve"/>
			<point x="732" y="423"/>
			<point x="652" y="375" type="qcurve"/>
			<point x="718" y="350"/>
			<point x="766" y="264"/>
			<point x="766" y="210" type="qcurve"/>
			<point x="766" y="101"/>
			<point x="607" y="-9"/>
			<point x="450" y="-9" type="qcurve"/>
			<point x="393" y="-9"/>
			<point x="280" y="-2"/>
			<point x="219" y="11" type="qcurve"/>
			<point x="219" y="565" type="line"/>
			<point x="178" y="561"/>
			<point x="140" y="529"/>
			<point x="140" y="506" type="qcurve"/>
			<point x="140" y="501"/>
			<point x="141" y="478"/>
			<point x="145" y="462" type="qcurve"/>
			<point x="27" y="446" type="line"/>
			<point x="23" y="460"/>
			<point x="15" y="504"/>
		</contour>
		<contour>
			<point x="371" y="302" type="line"/>
			<point x="371" y="123" type="line"/>
			<point x="388" y="121"/>
			<point x="428" y="119"/>
			<point x="452" y="119" type="qcurve"/>
			<point x="522" y="119"/>
			<point x="608" y="159"/>
			<point x="608" y="213" type="qcurve"/>
			<point x="608" y="261"/>
			<point x="536" y="302"/>
			<point x="469" y="302" type="qcurve"/>
		</contour>
		<contour>
			<point x="371" y="421" type="line"/>
			<point x="447" y="421" type="line"/>
			<point x="519" y="421"/>
			<point x="581" y="458"/>
			<point x="581" y="499" type="qcurve"/>
			<point x="581" y="541"/>
			<point x="517" y="575"/>
			<point x="455" y="575" type="qcurve"/>
			<point x="411" y="575"/>
			<point x="371" y="572" type="qcurve"/>
		</contour>
	</outline>
</glyph>
<glyph name="uni0182" format="2">
	<unicode hex="0182"/>
	<advance width="650"/>
	<outline>
		<contour>
			<point x="540" y="561" type="line"/>
			<point x="540" y="693" type="line"/>
			<point x="80" y="693" type="line"/>
			<point x="80" y="16" type="line"/>
			<point x="152" y="-1"/>
			<point x="227" y="-7"/>
			<point x="283" y="-7" type="curve" smooth="yes"/>
			<point x="490" y="-7"/>
			<point x="605" y="68"/>
			<point x="605" y="221" type="curve" smooth="yes"/>
			<point x="605" y="386"/>
			<point x="485" y="447"/>
			<point x="280" y="447" type="curve" smooth="yes"/>
			<point x="229" y="447" type="line"/>
			<point x="229" y="561" type="line"/>
		</contour>
		<contour>
			<point x="291" y="126" type="curve" smooth="yes"/>
			<point x="264" y="126"/>
			<point x="244" y="127"/>
			<point x="229" y="128" type="curve"/>
			<point x="229" y="318" type="line"/>
			<point x="275" y="318" type="line" smooth="yes"/>
			<point x="382" y="318"/>
			<point x="447" y="300"/>
			<point x="447" y="220" type="curve" smooth="yes"/>
			<point x="447" y="144"/>
			<point x="373" y="126"/>
		</contour>
	</outline>
</glyph>
<glyph name="uni018A" format="2">
	<unicode hex="018A"/>
	<advance width="876"/>
	<outline>
		<contour>
			<point x="826" y="347" type="qcurve"/>
			<point x="826" y="257"/>
			<point x="770" y="123"/>
			<point x="667" y="35"/>
			<point x="519" y="-9"/>
			<point x="427" y="-9" type="qcurve"/>
			<point x="385" y="-9"/>
			<point x="273" y="-2"/>
			<point x="219" y="9" type="qcurve"/>
			<point x="219" y="565" type="line"/>
			<point x="178" y="561"/>
			<point x="140" y="529"/>
			<point x="140" y="506" type="qcurve"/>
			<point x="140" y="501"/>
			<point x="141" y="478"/>
			<point x="145" y="462" type="qcurve"/>
			<point x="27" y="446" type="line"/>
			<point x="23" y="460"/>
			<point x="15" y="504"/>
			<point x="15" y="523" type="qcurve"/>
			<point x="15" y="568"/>
			<point x="56" y="630"/>
			<point x="125" y="670"/>
			<point x="212" y="691"/>
			<point x="305" y="700"/>
			<point x="395" y="701"/>
			<point x="432" y="701" type="qcurve"/>
			<point x="521" y="701"/>
			<point x="666" y="661"/>
			<point x="770" y="575"/>
			<point x="826" y="441"/>
		</contour>
		<contour>
			<point x="375" y="127" type="line"/>
			<point x="386" y="126"/>
			<point x="415" y="125"/>
			<point x="435" y="125" type="qcurve"/>
			<point x="552" y="125"/>
			<point x="665" y="243"/>
			<point x="665" y="347" type="qcurve"/>
			<point x="665" y="456"/>
			<point x="557" y="568"/>
			<point x="440" y="568" type="qcurve"/>
			<point x="424" y="568"/>
			<point x="390" y="567"/>
			<point x="375" y="565" type="qcurve"/>
		</contour>
	</outline>
</glyph>
<glyph name="uni018D" format="2">
	<unicode hex="018D"/>
	<advance width="593"/>
	<outline>
		<contour>
			<point x="551" y="301" type="curve" smooth="yes"/>
			<point x="551" y="444"/>
			<point x="452" y="539"/>
			<point x="296" y="539" type="curve" smooth="yes"/>
			<point x="141" y="539"/>
			<point x="42" y="439"/>
			<point x="42" y="292" type="curve" smooth="yes"/>
			<point x="42" y="196"/>
			<point x="91" y="126"/>
			<point x="183" y="73" type="curve" smooth="yes"/>
			<point x="275" y="19"/>
			<point x="326" y="4"/>
			<point x="326" y="-34" type="curve" smooth="yes"/>
			<point x="326" y="-66"/>
			<point x="288" y="-66"/>
			<point x="264" y="-66" type="curve" smooth="yes"/>
			<point x="208" y="-66"/>
			<point x="162" y="-56"/>
			<point x="122" y="-40" type="curve"/>
			<point x="91" y="-156" type="line"/>
			<point x="144" y="-176"/>
			<point x="190" y="-188"/>
			<point x="273" y="-188" type="curve" smooth="yes"/>
			<point x="409" y="-188"/>
			<point x="475" y="-129"/>
			<point x="475" y="-42" type="curve" smooth="yes"/>
			<point x="475" y="18"/>
			<point x="446" y="48"/>
			<point x="404" y="82" type="curve"/>
			<point x="497" y="130"/>
			<point x="551" y="206"/>
		</contour>
		<contour>
			<point x="193" y="293" type="curve" smooth="yes"/>
			<point x="193" y="376"/>
			<point x="237" y="412"/>
			<point x="296" y="412" type="curve" smooth="yes"/>
			<point x="355" y="412"/>
			<point x="400" y="376"/>
			<point x="400" y="293" type="curve" smooth="yes"/>
			<point x="400" y="243"/>
			<point x="369" y="182"/>
			<point x="302" y="155" type="curve"/>
			<point x="219" y="198"/>
			<point x="193" y="236"/>
		</contour>
	</outline>
</glyph>
<glyph name="uni018F" format="2">
	<unicode hex="018F"/>
	<advance width="730"/>
	<outline>
		<contour>
			<point x="516" y="396" type="line"/>
			<point x="511" y="445"/>
			<point x="482" y="513"/>
			<point x="433" y="555"/>
			<point x="361" y="574"/>
			<point x="312" y="574" type="qcurve"/>
			<point x="282" y="574"/>
			<point x="229" y="564"/>
			<point x="182" y="550"/>
			<point x="145" y="535"/>
			<point x="132" y="529" type="qcurve"/>
			<point x="92" y="651" type="line"/>
			<point x="104" y="658"/>
			<point x="148" y="678"/>
			<point x="208" y="696"/>
			<point x="281" y="709"/>
			<point x="322" y="709" type="qcurve"/>
			<point x="417" y="709"/>
			<point x="553" y="654"/>
			<point x="640" y="557"/>
			<point x="680" y="426"/>
			<point x="680" y="350" type="qcurve"/>
			<point x="680" y="259"/>
			<point x="632" y="122"/>
			<point x="545" y="31"/>
			<point x="426" y="-14"/>
			<point x="355" y="-14" type="qcurve"/>
			<point x="286" y="-14"/>
			<point x="174" y="30"/>
			<point x="94" y="117"/>
			<point x="50" y="247"/>
			<point x="50" y="333" type="qcurve"/>
			<point x="50" y="344"/>
			<point x="55" y="385"/>
			<point x="57" y="396" type="qcurve"/>
		</contour>
		<contour>
			<point x="212" y="268" type="line"/>
			<point x="218" y="197"/>
			<point x="292" y="118"/>
			<point x="356" y="118" type="qcurve"/>
			<point x="394" y="118"/>
			<point x="449" y="142"/>
			<point x="486" y="183"/>
			<point x="507" y="237"/>
			<point x="511" y="268" type="qcurve"/>
		</contour>
	</outline>
</glyph>
<glyph name="uni0190" format="2">
	<unicode hex="0190"/>
	<advance width="615"/>
	<outline>
		<contour>
			<point x="468" y="423" type="line"/>
			<point x="363" y="423" type="line" smooth="yes"/>
			<point x="291" y="423"/>
			<point x="234" y="443"/>
			<point x="234" y="507" type="curve" smooth="yes"/>
			<point x="234" y="552"/>
			<point x="272" y="575"/>
			<point x="337" y="575" type="curve" smooth="yes"/>
			<point x="410" y="575"/>
			<point x="462" y="557"/>
			<point x="511" y="529" type="curve"/>
			<point x="561" y="652" type="line"/>
			<point x="508" y="685"/>
			<point x="432" y="708"/>
			<point x="336" y="708" type="curve" smooth="yes"/>
			<point x="186" y="708"/>
			<point x="75" y="642"/>
			<point x="75" y="509" type="curve" smooth="yes"/>
			<point x="75" y="458"/>
			<point x="102" y="405"/>
			<point x="158" y="370" type="curve"/>
			<point x="97" y="338"/>
			<point x="45" y="286"/>
			<point x="45" y="198" type="curve" smooth="yes"/>
			<point x="45" y="50"/>
			<point x="155" y="-15"/>
			<point x="342" y="-15" type="curve" smooth="yes"/>
			<point x="435" y="-15"/>
			<point x="530" y="13"/>
			<point x="585" y="42" type="curve"/>
			<point x="539" y="164" type="line"/>
			<point x="503" y="149"/>
			<point x="424" y="119"/>
			<point x="353" y="119" type="curve" smooth="yes"/>
			<point x="265" y="119"/>
			<point x="206" y="141"/>
			<point x="206" y="204" type="curve" smooth="yes"/>
			<point x="206" y="281"/>
			<point x="277" y="295"/>
			<point x="374" y="295" type="curve" smooth="yes"/>
			<point x="468" y="295" type="line"/>
		</contour>
	</outline>
</glyph>
<glyph name="uni0195" format="2">
	<unicode hex="0195"/>
	<advance width="881"/>
	<outline>
		<contour>
			<point x="591" y="-14" type="curve" smooth="yes"/>
			<point x="743" y="-14"/>
			<point x="816" y="60"/>
			<point x="816" y="227" type="curve" smooth="yes"/>
			<point x="816" y="526" type="line"/>
			<point x="667" y="526" type="line"/>
			<point x="667" y="244" type="line" smooth="yes"/>
			<point x="667" y="152"/>
			<point x="652" y="114"/>
			<point x="591" y="114" type="curve" smooth="yes"/>
			<point x="530" y="114"/>
			<point x="514" y="152"/>
			<point x="514" y="244" type="curve" smooth="yes"/>
			<point x="514" y="297" type="line" smooth="yes"/>
			<point x="514" y="440"/>
			<point x="474" y="538"/>
			<point x="303" y="538" type="curve" smooth="yes"/>
			<point x="274" y="538"/>
			<point x="239" y="531"/>
			<point x="219" y="524" type="curve"/>
			<point x="219" y="776" type="line"/>
			<point x="70" y="752" type="line"/>
			<point x="70" y="0" type="line"/>
			<point x="219" y="0" type="line"/>
			<point x="219" y="400" type="line"/>
			<point x="238" y="405"/>
			<point x="261" y="411"/>
			<point x="288" y="411" type="curve" smooth="yes"/>
			<point x="354" y="411"/>
			<point x="365" y="375"/>
			<point x="365" y="279" type="curve" smooth="yes"/>
			<point x="365" y="227" type="line" smooth="yes"/>
			<point x="365" y="60"/>
			<point x="439" y="-14"/>
		</contour>
	</outline>
</glyph>
<glyph name="Ohorn" format="2">
	<unicode hex="01A0"/>
	<advance width="790"/>
	<outline>
		<contour>
			<point x="740" y="347" type="qcurve"/>
			<point x="740" y="258"/>
			<point x="687" y="123"/>
			<point x="595" y="32"/>
			<point x="468" y="-14"/>
			<point x="395" y="-14" type="qcurve"/>
			<point x="324" y="-14"/>
			<point x="198" y="32"/>
			<point x="104" y="123"/>
			<point x="50" y="258"/>
			<point x="50" y="347" type="qcurve"/>
			<point x="50" y="436"/>
			<point x="106" y="571"/>
			<point x="201" y="663"/>
			<point x="326" y="709"/>
			<point x="395" y="709" type="qcurve"/>
			<point x="501" y="709"/>
			<point x="583" y="659" type="qcurve"/>
			<point x="592" y="680"/>
			<point x="599" y="727"/>
			<point x="599" y="752" type="qcurve"/>
			<point x="599" y="764"/>
			<point x="598" y="788"/>
			<point x="597" y="801" type="qcurve"/>
			<point x="735" y="801" type="line"/>
			<point x="737" y="787"/>
			<point x="739" y="761"/>
			<point x="739" y="747" type="qcurve"/>
			<point x="739" y="700"/>
			<point x="708" y="617"/>
			<point x="670" y="581" type="qcurve"/>
			<point x="703" y="536"/>
			<point x="740" y="420"/>
		</contour>
		<contour>
			<point x="211" y="347" type="qcurve"/>
			<point x="211" y="296"/>
			<point x="236" y="214"/>
			<point x="283" y="155"/>
			<point x="351" y="123"/>
			<point x="395" y="123" type="qcurve"/>
			<point x="438" y="123"/>
			<point x="507" y="155"/>
			<point x="554" y="214"/>
			<point x="579" y="296"/>
			<point x="579" y="347" type="qcurve"/>
			<point x="579" y="398"/>
			<point x="554" y="481"/>
			<point x="507" y="540"/>
			<point x="438" y="572"/>
			<point x="395" y="572" type="qcurve"/>
			<point x="351" y="572"/>
			<point x="283" y="539"/>
			<point x="236" y="480"/>
			<point x="211" y="397"/>
		</contour>
	</outline>
</glyph>
<glyph name="uni01A3" format="2">
	<unicode hex="01A3"/>
	<advance width="869"/>
	<outline>
		<contour>
			<point x="548" y="264" type="curve" smooth="yes"/>
			<point x="548" y="310"/>
			<point x="540" y="352"/>
			<point x="523" y="391" type="curve"/>
			<point x="542" y="404"/>
			<point x="563" y="410"/>
			<point x="587" y="410" type="curve" smooth="yes"/>
			<point x="644" y="410"/>
			<point x="655" y="366"/>
			<point x="655" y="275" type="curve" smooth="yes"/>
			<point x="655" y="-185" type="line"/>
			<point x="804" y="-185" type="line"/>
			<point x="804" y="283" type="line" smooth="yes"/>
			<point x="804" y="425"/>
			<point x="773" y="537"/>
			<point x="597" y="537" type="curve" smooth="yes"/>
			<point x="541" y="537"/>
			<point x="488" y="523"/>
			<point x="447" y="492" type="curve"/>
			<point x="405" y="524"/>
			<point x="355" y="540"/>
			<point x="297" y="540" type="curve" smooth="yes"/>
			<point x="153" y="540"/>
			<point x="45" y="429"/>
			<point x="45" y="264" type="curve" smooth="yes"/>
			<point x="45" y="98"/>
			<point x="149" y="-14"/>
			<point x="297" y="-14" type="curve" smooth="yes"/>
			<point x="448" y="-14"/>
			<point x="548" y="98"/>
		</contour>
		<contour>
			<point x="396" y="264" type="curve" smooth="yes"/>
			<point x="396" y="172"/>
			<point x="360" y="114"/>
			<point x="297" y="114" type="curve" smooth="yes"/>
			<point x="234" y="114"/>
			<point x="197" y="172"/>
			<point x="197" y="264" type="curve" smooth="yes"/>
			<point x="197" y="356"/>
			<point x="225" y="412"/>
			<point x="297" y="412" type="curve" smooth="yes"/>
			<point x="360" y="412"/>
			<point x="396" y="356"/>
		</contour>
	</outline>
</glyph>
<glyph name="uni01A5" format="2">
	<unicode hex="01A5"/>
	<advance width="604"/>
	<outline>
		<contour>
			<point x="70" y="588" type="line"/>
			<point x="70" y="684"/>
			<point x="154" y="776"/>
			<point x="257" y="776" type="qcurve"/>
			<point x="270" y="776"/>
			<point x="315" y="772"/>
			<point x="337" y="764" type="qcurve"/>
			<point x="319" y="657" type="line"/>
			<point x="308" y="660"/>
			<point x="287" y="664"/>
			<point x="274" y="664" type="qcurve"/>
			<point x="219" y="664"/>
			<point x="219" y="593" type="qcurve"/>
			<point x="219" y="528" type="line"/>
			<point x="236" y="533"/>
			<point x="278" y="538"/>
			<point x="294" y="538" type="qcurve"/>
			<point x="355" y="538"/>
			<point x="453" y="499"/>
			<point x="522" y="428"/>
			<point x="559" y="326"/>
			<point x="559" y="263" type="qcurve"/>
			<point x="559" y="202"/>
			<point x="529" y="102"/>
			<point x="471" y="30"/>
			<point x="385" y="-10"/>
			<point x="329" y="-10" type="qcurve"/>
			<point x="298" y="-10"/>
			<point x="244" y="2"/>
			<point x="219" y="13" type="qcurve"/>
			<point x="219" y="-185" type="line"/>
			<point x="70" y="-185" type="line"/>
		</contour>
		<contour>
			<point x="407" y="259" type="qcurve"/>
			<point x="407" y="328"/>
			<point x="346" y="411"/>
			<point x="289" y="411" type="qcurve"/>
			<point x="269" y="411"/>
			<point x="230" y="406"/>
			<point x="219" y="402" type="qcurve"/>
			<point x="219" y="137" type="line"/>
			<point x="233" y="128"/>
			<point x="278" y="116"/>
			<point x="301" y="116" type="qcurve"/>
			<point x="407" y="116"/>
		</contour>
	</outline>
</glyph>
<glyph name="uni01A6" format="2">
	<unicode hex="01A6"/>
	<advance width="667"/>
	<outline>
		<contour>
			<point x="296" y="700" type="qcurve"/>
			<point x="445" y="700"/>
			<point x="605" y="585"/>
			<point x="605" y="473" type="qcurve"/>
			<point x="605" y="400"/>
			<point x="538" y="309"/>
			<point x="475" y="283" type="qcurve"/>
			<point x="496" y="257"/>
			<point x="558" y="160"/>
			<point x="623" y="48"/>
			<point x="682" y="-65"/>
			<point x="700" y="-108" type="qcurve"/>
			<point x="525" y="-108" type="line"/>
			<point x="506" y="-66"/>
			<point x="450" y="39"/>
			<point x="390" y="141"/>
			<point x="333" y="229"/>
			<point x="313" y="253" type="qcurve"/>
			<point x="236" y="253" type="line"/>
			<point x="236" y="0" type="line"/>
			<point x="80" y="0" type="line"/>
			<point x="80" y="776" type="line"/>
			<point x="235" y="776" type="line"/>
			<point x="235" y="698" type="line"/>
			<point x="248" y="699"/>
			<point x="285" y="700"/>
		</contour>
		<contour>
			<point x="292" y="568" type="qcurve"/>
			<point x="275" y="568"/>
			<point x="248" y="566"/>
			<point x="236" y="565" type="qcurve"/>
			<point x="236" y="377" type="line"/>
			<point x="280" y="377" type="line"/>
			<point x="368" y="377"/>
			<point x="444" y="421"/>
			<point x="444" y="474" type="qcurve"/>
			<point x="444" y="525"/>
			<point x="367" y="568"/>
		</contour>
	</outline>
</glyph>
<glyph name="uni01A7" format="2">
	<unicode hex="01A7"/>
	<advance width="582"/>
	<outline>
		<contour>
			<point x="313" y="119" type="qcurve"/>
			<point x="379" y="119"/>
			<point x="470" y="146"/>
			<point x="501" y="163" type="qcurve"/>
			<point x="545" y="39" type="line"/>
			<point x="531" y="31"/>
			<point x="490" y="13"/>
			<point x="433" y="-3"/>
			<point x="359" y="-14"/>
			<point x="313" y="-14" type="qcurve"/>
			<point x="176" y="-14"/>
			<point x="40" y="93"/>
			<point x="40" y="190" type="qcurve"/>
			<point x="40" y="240"/>
			<point x="66" y="310"/>
			<point x="119" y="362"/>
			<point x="199" y="401"/>
			<point x="253" y="421" type="qcurve"/>
			<point x="278" y="430"/>
			<point x="322" y="447"/>
			<point x="355" y="468"/>
			<point x="373" y="494"/>
			<point x="373" y="513" type="qcurve"/>
			<point x="373" y="545"/>
			<point x="324" y="576"/>
			<point x="268" y="576" type="qcurve"/>
			<point x="218" y="576"/>
			<point x="147" y="553"/>
			<point x="118" y="538" type="qcurve"/>
			<point x="73" y="661" type="line"/>
			<point x="106" y="679"/>
			<point x="208" y="709"/>
			<point x="278" y="709" type="qcurve"/>
			<point x="336" y="709"/>
			<point x="431" y="680"/>
			<point x="497" y="626"/>
			<point x="533" y="549"/>
			<point x="533" y="501" type="qcurve"/>
			<point x="533" y="453"/>
			<point x="499" y="386"/>
			<point x="445" y="339"/>
			<point x="377" y="308"/>
			<point x="343" y="296" type="qcurve"/>
			<point x="265" y="270"/>
			<point x="201" y="225"/>
			<point x="201" y="191" type="qcurve"/>
			<point x="201" y="175"/>
			<point x="211" y="149"/>
			<point x="237" y="130"/>
			<point x="280" y="119"/>
		</contour>
	</outline>
</glyph>
<glyph name="uni01AA" format="2">
	<unicode hex="01AA"/>
	<advance width="417"/>
	<outline>
		<contour>
			<point x="408" y="-187" type="line"/>
			<point x="343" y="-186"/>
			<point x="262" y="-160"/>
			<point x="215" y="-113"/>
			<point x="198" y="-46"/>
			<point x="198" y="-4" type="qcurve"/>
			<point x="198" y="461" type="line"/>
			<point x="187" y="455"/>
			<point x="147" y="441"/>
			<point x="118" y="441" type="qcurve"/>
			<point x="89" y="441"/>
			<point x="33" y="461"/>
			<point x="-12" y="503"/>
			<point x="-40" y="565"/>
			<point x="-40" y="607" type="qcurve"/>
			<point x="-40" y="650"/>
			<point x="-9" y="715"/>
			<point x="43" y="759"/>
			<point x="111" y="780"/>
			<point x="148" y="780" type="qcurve"/>
			<point x="203" y="780"/>
			<point x="279" y="747"/>
			<point x="326" y="685"/>
			<point x="347" y="595"/>
			<point x="347" y="537" type="qcurve"/>
			<point x="347" y="26" type="line"/>
			<point x="347" y="6"/>
			<point x="353" y="-26"/>
			<point x="370" y="-48"/>
			<point x="402" y="-62"/>
			<point x="429" y="-64" type="qcurve"/>
		</contour>
		<contour>
			<point x="198" y="598" type="line"/>
			<point x="198" y="627"/>
			<point x="172" y="669"/>
			<point x="142" y="669" type="qcurve"/>
			<point x="116" y="669"/>
			<point x="88" y="633"/>
			<point x="88" y="613" type="qcurve"/>
			<point x="88" y="589"/>
			<point x="117" y="554"/>
			<point x="142" y="554" type="qcurve"/>
			<point x="157" y="554"/>
			<point x="187" y="567"/>
			<point x="198" y="577" type="qcurve"/>
		</contour>
	</outline>
</glyph>
<glyph name="uni01AB" format="2">
	<unicode hex="01AB"/>
	<advance width="444"/>
	<outline>
		<contour>
			<point x="292" y="-11" type="curve"/>
			<point x="293" y="-18"/>
			<point x="293" y="-20"/>
			<point x="293" y="-24" type="curve" smooth="yes"/>
			<point x="293" y="-63"/>
			<point x="270" y="-76"/>
			<point x="235" y="-76" type="curve" smooth="yes"/>
			<point x="211" y="-76"/>
			<point x="198" y="-75"/>
			<point x="179" y="-68" type="curve"/>
			<point x="160" y="-174" type="line"/>
			<point x="191" y="-185"/>
			<point x="231" y="-187"/>
			<point x="248" y="-187" type="curve" smooth="yes"/>
			<point x="355" y="-187"/>
			<point x="417" y="-135"/>
			<point x="417" y="-22" type="curve" smooth="yes"/>
			<point x="417" y="34"/>
			<point x="412" y="71"/>
			<point x="404" y="128" type="curve"/>
			<point x="373" y="117"/>
			<point x="329" y="114"/>
			<point x="297" y="114" type="curve" smooth="yes"/>
			<point x="230" y="114"/>
			<point x="214" y="154"/>
			<point x="214" y="217" type="curve" smooth="yes"/>
			<point x="214" y="402" type="line"/>
			<point x="393" y="402" type="line"/>
			<point x="393" y="526" type="line"/>
			<point x="214" y="526" type="line"/>
			<point x="214" y="681" type="line"/>
			<point x="65" y="657" type="line"/>
			<point x="65" y="215" type="line" smooth="yes"/>
			<point x="65" y="79"/>
			<point x="110" y="-12"/>
			<point x="273" y="-12" type="curve" smooth="yes"/>
			<point x="276" y="-12"/>
			<point x="285" y="-12"/>
		</contour>
	</outline>
</glyph>
<glyph name="uni01AD" format="2">
	<unicode hex="01AD"/>
	<advance width="444"/>
	<outline>
		<contour>
			<point x="214" y="526" type="line"/>
			<point x="214" y="552" type="line" smooth="yes"/>
			<point x="214" y="608"/>
			<point x="233" y="650"/>
			<point x="306" y="650" type="curve" smooth="yes"/>
			<point x="333" y="650"/>
			<point x="364" y="645"/>
			<point x="391" y="633" type="curve"/>
			<point x="420" y="752" type="line"/>
			<point x="395" y="763"/>
			<point x="347" y="776"/>
			<point x="291" y="776" type="curve" smooth="yes"/>
			<point x="140" y="776"/>
			<point x="65" y="690"/>
			<point x="65" y="554" type="curve" smooth="yes"/>
			<point x="65" y="215" type="line" smooth="yes"/>
			<point x="65" y="79"/>
			<point x="112" y="-12"/>
			<point x="275" y="-12" type="curve" smooth="yes"/>
			<point x="339" y="-12"/>
			<point x="382" y="1"/>
			<point x="418" y="16" type="curve"/>
			<point x="397" y="132" type="line"/>
			<point x="369" y="121"/>
			<point x="331" y="114"/>
			<point x="299" y="114" type="curve" smooth="yes"/>
			<point x="232" y="114"/>
			<point x="214" y="154"/>
			<point x="214" y="217" type="curve" smooth="yes"/>
			<point x="214" y="402" type="line"/>
			<point x="399" y="402" type="line"/>
			<point x="399" y="526" type="line"/>
		</contour>
	</outline>
</glyph>
<glyph name="Uhorn" format="2">
	<unicode hex="01AF"/>
	<advance width="747"/>
	<outline>
		<contour>
			<point x="351" y="-14" type="curve" smooth="yes"/>
			<point x="548" y="-14"/>
			<point x="637" y="98"/>
			<point x="637" y="262" type="curve" smooth="yes"/>
			<point x="637" y="598" type="line"/>
			<point x="735" y="619"/>
			<point x="757" y="686"/>
			<point x="757" y="747" type="curve" smooth="yes"/>
			<point x="757" y="766"/>
			<point x="756" y="782"/>
			<point x="753" y="801" type="curve"/>
			<point x="619" y="801" type="line"/>
			<point x="620" y="784"/>
			<point x="621" y="772"/>
			<point x="621" y="756" type="curve" smooth="yes"/>
			<point x="621" y="723"/>
			<point x="601" y="693"/>
			<point x="538" y="693" type="curve" smooth="yes"/>
			<point x="481" y="693" type="line"/>
			<point x="481" y="275" type="line" smooth="yes"/>
			<point x="481" y="163"/>
			<point x="429" y="121"/>
			<point x="353" y="121" type="curve" smooth="yes"/>
			<point x="278" y="121"/>
			<point x="226" y="162"/>
			<point x="226" y="275" type="curve" smooth="yes"/>
			<point x="226" y="693" type="line"/>
			<point x="70" y="693" type="line"/>
			<point x="70" y="262" type="line" smooth="yes"/>
			<point x="70" y="100"/>
			<point x="156" y="-14"/>
		</contour>
	</outline>
</glyph>
<glyph name="uni01B1" format="2">
	<unicode hex="01B1"/>
	<advance width="773"/>
	<outline>
		<contour>
			<point x="387" y="-14" type="curve" smooth="yes"/>
			<point x="579" y="-14"/>
			<point x="723" y="103"/>
			<point x="723" y="315" type="curve" smooth="yes"/>
			<point x="723" y="410"/>
			<point x="688" y="493"/>
			<point x="619" y="564" type="curve"/>
			<point x="738" y="564" type="line"/>
			<point x="738" y="693" type="line"/>
			<point x="435" y="693" type="line"/>
			<point x="435" y="577" type="line"/>
			<point x="504" y="516"/>
			<point x="562" y="443"/>
			<point x="562" y="320" type="curve" smooth="yes"/>
			<point x="562" y="191"/>
			<point x="495" y="121"/>
			<point x="387" y="121" type="curve" smooth="yes"/>
			<point x="279" y="121"/>
			<point x="212" y="191"/>
			<point x="212" y="320" type="curve" smooth="yes"/>
			<point x="212" y="444"/>
			<point x="269" y="516"/>
			<point x="338" y="577" type="curve"/>
			<point x="338" y="693" type="line"/>
			<point x="35" y="693" type="line"/>
			<point x="35" y="564" type="line"/>
			<point x="154" y="564" type="line"/>
			<point x="86" y="493"/>
			<point x="51" y="411"/>
			<point x="51" y="315" type="curve" smooth="yes"/>
			<point x="51" y="103"/>
			<point x="195" y="-14"/>
		</contour>
	</outline>
</glyph>
<glyph name="uni01B2" format="2">
	<unicode hex="01B2"/>
	<advance width="724"/>
	<outline>
		<contour>
			<point x="414" y="701" type="curve" smooth="yes"/>
			<point x="393" y="701"/>
			<point x="357" y="697"/>
			<point x="336" y="692" type="curve"/>
			<point x="350" y="562" type="line"/>
			<point x="364" y="566"/>
			<point x="379" y="568"/>
			<point x="394" y="568" type="curve" smooth="yes"/>
			<point x="495" y="568"/>
			<point x="513" y="487"/>
			<point x="513" y="344" type="curve" smooth="yes"/>
			<point x="513" y="209"/>
			<point x="471" y="121"/>
			<point x="355" y="121" type="curve" smooth="yes"/>
			<point x="286" y="121"/>
			<point x="226" y="162"/>
			<point x="226" y="285" type="curve" smooth="yes"/>
			<point x="226" y="693" type="line"/>
			<point x="70" y="693" type="line"/>
			<point x="70" y="272" type="line" smooth="yes"/>
			<point x="70" y="100"/>
			<point x="164" y="-14"/>
			<point x="353" y="-14" type="curve" smooth="yes"/>
			<point x="549" y="-14"/>
			<point x="674" y="107"/>
			<point x="674" y="344" type="curve" smooth="yes"/>
			<point x="674" y="583"/>
			<point x="597" y="701"/>
		</contour>
	</outline>
</glyph>
<glyph name="uni01B5" format="2">
	<unicode hex="01B5"/>
	<advance width="610"/>
	<outline>
		<contour>
			<point x="557" y="299" type="line"/>
			<point x="557" y="409" type="line"/>
			<point x="420" y="409" type="line"/>
			<point x="477" y="481"/>
			<point x="530" y="545"/>
			<point x="569" y="585" type="curve"/>
			<point x="569" y="693" type="line"/>
			<point x="51" y="693" type="line"/>
			<point x="51" y="562" type="line"/>
			<point x="362" y="562" type="line"/>
			<point x="326" y="519"/>
			<point x="284" y="466"/>
			<point x="243" y="409" type="curve"/>
			<point x="62" y="409" type="line"/>
			<point x="62" y="299" type="line"/>
			<point x="165" y="299" type="line"/>
			<point x="114" y="224"/>
			<point x="68" y="153"/>
			<point x="35" y="93" type="curve"/>
			<point x="35" y="0" type="line"/>
			<point x="580" y="0" type="line"/>
			<point x="580" y="131" type="line"/>
			<point x="227" y="131" type="line"/>
			<point x="258" y="184"/>
			<point x="297" y="242"/>
			<point x="338" y="299" type="curve"/>
		</contour>
	</outline>
</glyph>
<glyph name="uni01B8" format="2">
	<unicode hex="01B8"/>
	<advance width="614"/>
	<outline>
		<contour>
			<point x="436" y="392" type="line"/>
			<point x="386" y="442"/>
			<point x="314" y="516"/>
			<point x="275" y="563" type="curve"/>
			<point x="558" y="563" type="line"/>
			<point x="558" y="693" type="line"/>
			<point x="73" y="693" type="line"/>
			<point x="73" y="600" type="line"/>
			<point x="105" y="559"/>
			<point x="191" y="466"/>
			<point x="252" y="403" type="curve"/>
			<point x="109" y="378"/>
			<point x="55" y="313"/>
			<point x="55" y="205" type="curve" smooth="yes"/>
			<point x="55" y="53"/>
			<point x="175" y="-15"/>
			<point x="355" y="-15" type="curve" smooth="yes"/>
			<point x="466" y="-15"/>
			<point x="556" y="21"/>
			<point x="594" y="42" type="curve"/>
			<point x="548" y="166" type="line"/>
			<point x="504" y="143"/>
			<point x="433" y="118"/>
			<point x="356" y="118" type="curve" smooth="yes"/>
			<point x="268" y="118"/>
			<point x="216" y="143"/>
			<point x="216" y="207" type="curve" smooth="yes"/>
			<point x="216" y="284"/>
			<point x="286" y="306"/>
			<point x="387" y="306" type="curve" smooth="yes"/>
			<point x="436" y="306" type="line"/>
		</contour>
	</outline>
</glyph>
<glyph name="uni01BF" format="2">
	<unicode hex="01BF"/>
	<advance width="588"/>
	<outline>
		<contour>
			<point x="391" y="304" type="curve" smooth="yes"/>
			<point x="391" y="190"/>
			<point x="335" y="136"/>
			<point x="219" y="88" type="curve"/>
			<point x="219" y="402" type="line"/>
			<point x="235" y="406"/>
			<point x="256" y="410"/>
			<point x="284" y="410" type="curve" smooth="yes"/>
			<point x="351" y="410"/>
			<point x="391" y="369"/>
		</contour>
		<contour>
			<point x="543" y="302" type="curve" smooth="yes"/>
			<point x="543" y="448"/>
			<point x="444" y="538"/>
			<point x="285" y="538" type="curve" smooth="yes"/>
			<point x="197" y="538"/>
			<point x="118" y="515"/>
			<point x="70" y="496" type="curve"/>
			<point x="70" y="-185" type="line"/>
			<point x="219" y="-185" type="line"/>
			<point x="219" y="-46" type="line"/>
			<point x="396" y="18"/>
			<point x="543" y="103"/>
		</contour>
	</outline>
</glyph>
<glyph name="uni01E5" format="2">
	<unicode hex="01E5"/>
	<advance width="602"/>
	<outline>
		<contour>
			<point x="524" y="508" type="line"/>
			<point x="470" y="524"/>
			<point x="384" y="538"/>
			<point x="313" y="538" type="curve" smooth="yes"/>
			<point x="144" y="538"/>
			<point x="45" y="435"/>
			<point x="45" y="280" type="curve" smooth="yes"/>
			<point x="45" y="125"/>
			<point x="125" y="35"/>
			<point x="270" y="35" type="curve" smooth="yes"/>
			<point x="310" y="35"/>
			<point x="343" y="42"/>
			<point x="375" y="57" type="curve"/>
			<point x="375" y="38" type="line" smooth="yes"/>
			<point x="375" y="-21"/>
			<point x="343" y="-62"/>
			<point x="258" y="-62" type="curve" smooth="yes"/>
			<point x="193" y="-62"/>
			<point x="144" y="-51"/>
			<point x="97" y="-32" type="curve"/>
			<point x="71" y="-157" type="line"/>
			<point x="126" y="-176"/>
			<point x="192" y="-188"/>
			<point x="256" y="-188" type="curve" smooth="yes"/>
			<point x="439" y="-188"/>
			<point x="524" y="-106"/>
			<point x="524" y="66" type="curve" smooth="yes"/>
			<point x="524" y="246" type="line"/>
			<point x="592" y="246" type="line"/>
			<point x="592" y="336" type="line"/>
			<point x="524" y="336" type="line"/>
		</contour>
		<contour>
			<point x="300" y="246" type="line"/>
			<point x="375" y="246" type="line"/>
			<point x="375" y="173" type="line"/>
			<point x="356" y="162"/>
			<point x="329" y="153"/>
			<point x="298" y="153" type="curve" smooth="yes"/>
			<point x="226" y="153"/>
			<point x="195" y="196"/>
			<point x="195" y="280" type="curve" smooth="yes"/>
			<point x="195" y="360"/>
			<point x="233" y="420"/>
			<point x="314" y="420" type="curve" smooth="yes"/>
			<point x="341" y="420"/>
			<point x="360" y="418"/>
			<point x="375" y="415" type="curve"/>
			<point x="375" y="336" type="line"/>
			<point x="300" y="336" type="line"/>
		</contour>
	</outline>
</glyph>
<glyph name="uni0220" format="2">
	<unicode hex="0220"/>
	<advance width="704"/>
	<outline>
		<contour>
			<point x="80" y="0" type="line"/>
			<point x="236" y="0" type="line"/>
			<point x="236" y="567" type="line"/>
			<point x="260" y="571"/>
			<point x="296" y="574"/>
			<point x="331" y="574" type="curve" smooth="yes"/>
			<point x="415" y="574"/>
			<point x="473" y="531"/>
			<point x="473" y="414" type="curve" smooth="yes"/>
			<point x="473" y="-185" type="line"/>
			<point x="629" y="-185" type="line"/>
			<point x="629" y="412" type="line" smooth="yes"/>
			<point x="629" y="585"/>
			<point x="559" y="709"/>
			<point x="341" y="709" type="curve" smooth="yes"/>
			<point x="234" y="709"/>
			<point x="144" y="694"/>
			<point x="80" y="678" type="curve"/>
		</contour>
	</outline>
</glyph>
<glyph name="uni0221" format="2">
	<unicode hex="0221"/>
	<advance width="782"/>
	<outline>
		<contour>
			<point x="534" y="776" type="line"/>
			<point x="385" y="752" type="line"/>
			<point x="385" y="514" type="line"/>
			<point x="352" y="529"/>
			<point x="321" y="537"/>
			<point x="280" y="537" type="curve" smooth="yes"/>
			<point x="132" y="537"/>
			<point x="45" y="432"/>
			<point x="45" y="260" type="curve" smooth="yes"/>
			<point x="45" y="92"/>
			<point x="146" y="-13"/>
			<point x="319" y="-13" type="curve" smooth="yes"/>
			<point x="331" y="-13"/>
			<point x="343" y="-13"/>
			<point x="358" y="-12" type="curve"/>
			<point x="276" y="-103" type="line"/>
			<point x="352" y="-175" type="line"/>
			<point x="426" y="-94" type="line"/>
			<point x="457" y="-151"/>
			<point x="511" y="-185"/>
			<point x="591" y="-185" type="curve" smooth="yes"/>
			<point x="691" y="-185"/>
			<point x="774" y="-129"/>
			<point x="774" y="-12" type="curve" smooth="yes"/>
			<point x="774" y="96"/>
			<point x="700" y="155"/>
			<point x="615" y="155" type="curve" smooth="yes"/>
			<point x="576" y="155"/>
			<point x="549" y="142"/>
			<point x="534" y="134" type="curve"/>
		</contour>
		<contour>
			<point x="197" y="267" type="curve" smooth="yes"/>
			<point x="197" y="363"/>
			<point x="232" y="411"/>
			<point x="303" y="411" type="curve" smooth="yes"/>
			<point x="334" y="411"/>
			<point x="366" y="402"/>
			<point x="385" y="390" type="curve"/>
			<point x="385" y="119" type="line"/>
			<point x="370" y="116"/>
			<point x="347" y="114"/>
			<point x="320" y="114" type="curve" smooth="yes"/>
			<point x="239" y="114"/>
			<point x="197" y="175"/>
		</contour>
		<contour>
			<point x="534" y="20" type="line"/>
			<point x="547" y="33"/>
			<point x="570" y="42"/>
			<point x="591" y="42" type="curve" smooth="yes"/>
			<point x="626" y="42"/>
			<point x="646" y="15"/>
			<point x="646" y="-18" type="curve" smooth="yes"/>
			<point x="646" y="-46"/>
			<point x="627" y="-75"/>
			<point x="591" y="-75" type="curve" smooth="yes"/>
			<point x="548" y="-75"/>
			<point x="534" y="-43"/>
			<point x="534" y="-2" type="curve" smooth="yes"/>
		</contour>
	</outline>
</glyph>
<glyph name="uni0228" format="2">
	<unicode hex="0228"/>
	<advance width="606"/>
	<outline>
		<contour>
			<point x="80" y="0" type="line"/>
			<point x="80" y="693" type="line"/>
			<point x="548" y="693" type="line"/>
			<point x="548" y="562" type="line"/>
			<point x="236" y="562" type="line"/>
			<point x="236" y="426" type="line"/>
			<point x="513" y="426" type="line"/>
			<point x="513" y="298" type="line"/>
			<point x="236" y="298" type="line"/>
			<point x="236" y="131" type="line"/>
			<point x="571" y="131" type="line"/>
			<point x="571" y="0" type="line"/>
			<point x="386" y="0" type="line"/>
			<point x="381" y="-10"/>
			<point x="371" y="-32"/>
			<point x="368" y="-40" type="qcurve"/>
			<point x="400" y="-56"/>
			<point x="424" y="-100"/>
			<point x="424" y="-123" type="qcurve"/>
			<point x="424" y="-171"/>
			<point x="348" y="-221"/>
			<point x="286" y="-221" type="qcurve"/>
			<point x="264" y="-221"/>
			<point x="220" y="-214"/>
			<point x="198" y="-208" type="qcurve"/>
			<point x="216" y="-121" type="line"/>
			<point x="223" y="-123"/>
			<point x="260" y="-132"/>
			<point x="278" y="-132" type="qcurve"/>
			<point x="292" y="-132"/>
			<point x="313" y="-121"/>
			<point x="314" y="-107" type="qcurve"/>
			<point x="315" y="-95"/>
			<point x="294" y="-75"/>
			<point x="271" y="-70" type="qcurve"/>
			<point x="259" y="-67" type="line"/>
			<point x="264" y="-53"/>
			<point x="280" y="-15"/>
			<point x="287" y="0" type="qcurve"/>
		</contour>
	</outline>
</glyph>
<glyph name="uni0238" format="2">
	<unicode hex="0238"/>
	<advance width="919"/>
	<outline>
		<contour>
			<point x="722" y="267" type="qcurve"/>
			<point x="722" y="411"/>
			<point x="616" y="411" type="qcurve"/>
			<point x="593" y="411"/>
			<point x="548" y="399"/>
			<point x="534" y="390" type="qcurve"/>
			<point x="534" y="119" type="line"/>
			<point x="545" y="117"/>
			<point x="579" y="114"/>
			<point x="599" y="114" type="qcurve"/>
			<point x="660" y="114"/>
			<point x="722" y="198"/>
		</contour>
		<contour>
			<point x="460" y="12" type="qcurve"/>
			<point x="426" y="1"/>
			<point x="354" y="-13"/>
			<point x="319" y="-13" type="qcurve"/>
			<point x="254" y="-13"/>
			<point x="152" y="25"/>
			<point x="82" y="96"/>
			<point x="45" y="197"/>
			<point x="45" y="260" type="qcurve"/>
			<point x="45" y="324"/>
			<point x="77" y="427"/>
			<point x="137" y="499"/>
			<point x="224" y="537"/>
			<point x="280" y="537" type="qcurve"/>
			<point x="311" y="537"/>
			<point x="360" y="525"/>
			<point x="385" y="514" type="qcurve"/>
			<point x="385" y="752" type="line"/>
			<point x="534" y="776" type="line"/>
			<point x="534" y="514" type="line"/>
			<point x="559" y="525"/>
			<point x="613" y="537"/>
			<point x="644" y="537" type="qcurve"/>
			<point x="700" y="537"/>
			<point x="786" y="498"/>
			<point x="844" y="426"/>
			<point x="874" y="325"/>
			<point x="874" y="263" type="qcurve"/>
			<point x="874" y="200"/>
			<point x="837" y="98"/>
			<point x="767" y="26"/>
			<point x="665" y="-13"/>
			<point x="600" y="-13" type="qcurve"/>
			<point x="566" y="-13"/>
			<point x="494" y="1"/>
		</contour>
		<contour>
			<point x="197" y="267" type="qcurve"/>
			<point x="197" y="198"/>
			<point x="259" y="114"/>
			<point x="320" y="114" type="qcurve"/>
			<point x="340" y="114"/>
			<point x="374" y="117"/>
			<point x="385" y="119" type="qcurve"/>
			<point x="385" y="390" type="line"/>
			<point x="371" y="399"/>
			<point x="326" y="411"/>
			<point x="303" y="411" type="qcurve"/>
			<point x="197" y="411"/>
		</contour>
	</outline>
</glyph>
<glyph name="uni023C" format="2">
	<unicode hex="023C"/>
	<advance width="514"/>
	<outline>
		<contour>
			<point x="449" y="590" type="line"/>
			<point x="369" y="612" type="line"/>
			<point x="345" y="539" type="line"/>
			<point x="336" y="539"/>
			<point x="327" y="540"/>
			<point x="316" y="540" type="curve" smooth="yes"/>
			<point x="146" y="540"/>
			<point x="45" y="415"/>
			<point x="45" y="263" type="curve" smooth="yes"/>
			<point x="45" y="152"/>
			<point x="84" y="61"/>
			<point x="175" y="16" type="curve"/>
			<point x="149" y="-66" type="line"/>
			<point x="227" y="-89" type="line"/>
			<point x="253" y="-8" type="line"/>
			<point x="274" y="-12"/>
			<point x="296" y="-14"/>
			<point x="319" y="-14" type="curve" smooth="yes"/>
			<point x="382" y="-14"/>
			<point x="435" y="-2"/>
			<point x="470" y="13" type="curve"/>
			<point x="449" y="135" type="line"/>
			<point x="414" y="120"/>
			<point x="370" y="114"/>
			<point x="334" y="114" type="curve" smooth="yes"/>
			<point x="319" y="114"/>
			<point x="306" y="115"/>
			<point x="294" y="117" type="curve"/>
			<point x="388" y="404" type="line"/>
			<point x="415" y="397"/>
			<point x="436" y="391"/>
			<point x="452" y="384" type="curve"/>
			<point x="484" y="503" type="line"/>
			<point x="467" y="510"/>
			<point x="448" y="517"/>
			<point x="427" y="524" type="curve"/>
		</contour>
		<contour>
			<point x="197" y="263" type="curve" smooth="yes"/>
			<point x="197" y="343"/>
			<point x="231" y="399"/>
			<point x="303" y="410" type="curve"/>
			<point x="222" y="160" type="line"/>
			<point x="203" y="185"/>
			<point x="197" y="220"/>
		</contour>
	</outline>
</glyph>
<glyph name="uni023F" format="2">
	<unicode hex="023F"/>
	<advance width="485"/>
	<outline>
		<contour>
			<point x="222" y="107" type="curve" smooth="yes"/>
			<point x="170" y="107"/>
			<point x="131" y="113"/>
			<point x="80" y="133" type="curve"/>
			<point x="40" y="30" type="line"/>
			<point x="139" y="-26"/>
			<point x="181" y="-185"/>
			<point x="333" y="-185" type="curve" smooth="yes"/>
			<point x="350" y="-185"/>
			<point x="392" y="-182"/>
			<point x="425" y="-173" type="curve"/>
			<point x="411" y="-59" type="line"/>
			<point x="385" y="-63"/>
			<point x="365" y="-65"/>
			<point x="350" y="-65" type="curve" smooth="yes"/>
			<point x="307" y="-65"/>
			<point x="286" y="-49"/>
			<point x="236" y="1" type="curve"/>
			<point x="245" y="0"/>
			<point x="254" y="0"/>
			<point x="263" y="0" type="curve" smooth="yes"/>
			<point x="376" y="0"/>
			<point x="444" y="52"/>
			<point x="444" y="144" type="curve" smooth="yes"/>
			<point x="444" y="232"/>
			<point x="412" y="272"/>
			<point x="281" y="320" type="curve"/>
			<point x="221" y="343"/>
			<point x="200" y="356"/>
			<point x="200" y="381" type="curve" smooth="yes"/>
			<point x="200" y="407"/>
			<point x="223" y="420"/>
			<point x="270" y="420" type="curve" smooth="yes"/>
			<point x="321" y="420"/>
			<point x="360" y="409"/>
			<point x="395" y="397" type="curve"/>
			<point x="421" y="513" type="line"/>
			<point x="386" y="526"/>
			<point x="323" y="540"/>
			<point x="259" y="540" type="curve" smooth="yes"/>
			<point x="131" y="540"/>
			<point x="53" y="479"/>
			<point x="53" y="380" type="curve" smooth="yes"/>
			<point x="53" y="278"/>
			<point x="117" y="242"/>
			<point x="209" y="208" type="curve" smooth="yes"/>
			<point x="269" y="185"/>
			<point x="296" y="170"/>
			<point x="296" y="146" type="curve" smooth="yes"/>
			<point x="296" y="117"/>
			<point x="277" y="107"/>
		</contour>
	</outline>
</glyph>
<glyph name="uni0246" format="2">
	<unicode hex="0246"/>
	<advance width="606"/>
	<outline>
		<contour>
			<point x="576" y="0" type="line"/>
			<point x="576" y="131" type="line"/>
			<point x="358" y="131" type="line"/>
			<point x="422" y="298" type="line"/>
			<point x="518" y="298" type="line"/>
			<point x="518" y="426" type="line"/>
			<point x="470" y="426" type="line"/>
			<point x="593" y="747" type="line"/>
			<point x="506" y="776" type="line"/>
			<point x="474" y="693" type="line"/>
			<point x="80" y="693" type="line"/>
			<point x="80" y="0" type="line"/>
			<point x="212" y="0" type="line"/>
			<point x="185" y="-71" type="line"/>
			<point x="270" y="-101" type="line"/>
			<point x="308" y="0" type="line"/>
		</contour>
		<contour>
			<point x="236" y="562" type="line"/>
			<point x="425" y="562" type="line"/>
			<point x="373" y="426" type="line"/>
			<point x="236" y="426" type="line"/>
		</contour>
		<contour>
			<point x="236" y="298" type="line"/>
			<point x="325" y="298" type="line"/>
			<point x="261" y="131" type="line"/>
			<point x="236" y="131" type="line"/>
		</contour>
	</outline>
</glyph>
<glyph name="uni024D" format="2">
	<unicode hex="024D"/>
	<advance width="428"/>
	<outline>
		<contour>
			<point x="420" y="517" type="line"/>
			<point x="388" y="530"/>
			<point x="326" y="537"/>
			<point x="294" y="537" type="curve" smooth="yes"/>
			<point x="205" y="537"/>
			<point x="131" y="517"/>
			<point x="78" y="498" type="curve"/>
			<point x="78" y="277" type="line"/>
			<point x="10" y="277" type="line"/>
			<point x="10" y="184" type="line"/>
			<point x="78" y="184" type="line"/>
			<point x="78" y="0" type="line"/>
			<point x="227" y="0" type="line"/>
			<point x="227" y="184" type="line"/>
			<point x="354" y="184" type="line"/>
			<point x="354" y="277" type="line"/>
			<point x="227" y="277" type="line"/>
			<point x="227" y="402" type="line"/>
			<point x="240" y="406"/>
			<point x="271" y="410"/>
			<point x="290" y="410" type="curve" smooth="yes"/>
			<point x="331" y="410"/>
			<point x="368" y="401"/>
			<point x="395" y="394" type="curve"/>
		</contour>
	</outline>
</glyph>
<glyph name="uni024F" format="2">
	<unicode hex="024F"/>
	<advance width="563"/>
	<outline>
		<contour>
			<point x="553" y="270" type="line"/>
			<point x="553" y="363" type="line"/>
			<point x="494" y="363" type="line"/>
			<point x="511" y="415"/>
			<point x="528" y="470"/>
			<point x="545" y="526" type="curve"/>
			<point x="393" y="526" type="line"/>
			<point x="381" y="481"/>
			<point x="367" y="423"/>
			<point x="351" y="363" type="curve"/>
			<point x="219" y="363" type="line"/>
			<point x="200" y="423"/>
			<point x="185" y="481"/>
			<point x="174" y="526" type="curve"/>
			<point x="18" y="526" type="line"/>
			<point x="35" y="469"/>
			<point x="52" y="414"/>
			<point x="71" y="363" type="curve"/>
			<point x="10" y="363" type="line"/>
			<point x="10" y="270" type="line"/>
			<point x="105" y="270" type="line"/>
			<point x="142" y="175"/>
			<point x="180" y="94"/>
			<point x="216" y="22" type="curve"/>
			<point x="196" y="-29"/>
			<point x="171" y="-59"/>
			<point x="118" y="-59" type="curve" smooth="yes"/>
			<point x="91" y="-59"/>
			<point x="70" y="-56"/>
			<point x="39" y="-45" type="curve"/>
			<point x="13" y="-164" type="line"/>
			<point x="38" y="-175"/>
			<point x="79" y="-185"/>
			<point x="126" y="-185" type="curve" smooth="yes"/>
			<point x="238" y="-185"/>
			<point x="288" y="-136"/>
			<point x="344" y="-17" type="curve" smooth="yes"/>
			<point x="387" y="75"/>
			<point x="425" y="169"/>
			<point x="461" y="270" type="curve"/>
		</contour>
		<contour>
			<point x="288" y="150" type="curve"/>
			<point x="275" y="182"/>
			<point x="262" y="223"/>
			<point x="247" y="270" type="curve"/>
			<point x="326" y="270" type="line"/>
			<point x="313" y="223"/>
			<point x="300" y="182"/>
		</contour>
	</outline>
</glyph>
<glyph name="uni0292" format="2">
	<unicode hex="0292"/>
	<advance width="515"/>
	<outline>
		<contour>
			<point x="124" y="143" type="line"/>
			<point x="178" y="143" type="line" smooth="yes"/>
			<point x="273" y="143"/>
			<point x="325" y="110"/>
			<point x="325" y="41" type="curve" smooth="yes"/>
			<point x="325" y="-20"/>
			<point x="283" y="-57"/>
			<point x="200" y="-57" type="curve" smooth="yes"/>
			<point x="147" y="-57"/>
			<point x="82" y="-45"/>
			<point x="38" y="-26" type="curve"/>
			<point x="5" y="-145" type="line"/>
			<point x="51" y="-167"/>
			<point x="135" y="-185"/>
			<point x="210" y="-185" type="curve" smooth="yes"/>
			<point x="375" y="-185"/>
			<point x="475" y="-112"/>
			<point x="475" y="35" type="curve" smooth="yes"/>
			<point x="475" y="147"/>
			<point x="399" y="213"/>
			<point x="303" y="240" type="curve"/>
			<point x="361" y="312"/>
			<point x="421" y="381"/>
			<point x="454" y="424" type="curve"/>
			<point x="454" y="526" type="line"/>
			<point x="31" y="526" type="line"/>
			<point x="31" y="402" type="line"/>
			<point x="265" y="402" type="line"/>
			<point x="227" y="353"/>
			<point x="167" y="279"/>
			<point x="124" y="230" type="curve"/>
		</contour>
	</outline>
</glyph>
<glyph name="breve" format="2">
	<unicode hex="02D8"/>
	<advance width="410"/>
	<outline>
		<contour>
			<point x="205" y="598" type="curve" smooth="yes"/>
			<point x="297" y="598"/>
			<point x="367" y="657"/>
			<point x="367" y="756" type="curve" smooth="yes"/>
			<point x="367" y="764" type="line"/>
			<point x="266" y="764" type="line"/>
			<point x="262" y="708"/>
			<point x="237" y="693"/>
			<point x="205" y="693" type="curve" smooth="yes"/>
			<point x="173" y="693"/>
			<point x="148" y="708"/>
			<point x="144" y="764" type="curve"/>
			<point x="43" y="764" type="line"/>
			<point x="43" y="756" type="line" smooth="yes"/>
			<point x="43" y="657"/>
			<point x="113" y="598"/>
		</contour>
	</outline>
</glyph>
<glyph name="ring" format="2">
	<unicode hex="02DA"/>
	<advance width="324"/>
	<outline>
		<contour>
			<point x="280" y="699" type="qcurve"/>
			<point x="280" y="671"/>
			<point x="261" y="628"/>
			<point x="228" y="599"/>
			<point x="185" y="584"/>
			<point x="161" y="584" type="qcurve"/>
			<point x="138" y="584"/>
			<point x="96" y="599"/>
			<point x="63" y="628"/>
			<point x="44" y="671"/>
			<point x="44" y="699" type="qcurve"/>
			<point x="44" y="727"/>
			<point x="63" y="770"/>
			<point x="96" y="799"/>
			<point x="138" y="814"/>
			<point x="161" y="814" type="qcurve"/>
			<point x="185" y="814"/>
			<point x="228" y="799"/>
			<point x="261" y="770"/>
			<point x="280" y="727"/>
		</contour>
		<contour>
			<point x="207" y="699" type="qcurve"/>
			<point x="207" y="722"/>
			<point x="179" y="746"/>
			<point x="161" y="746" type="qcurve"/>
			<point x="144" y="746"/>
			<point x="116" y="722"/>
			<point x="116" y="699" type="qcurve"/>
			<point x="116" y="676"/>
			<point x="144" y="652"/>
			<point x="161" y="652" type="qcurve"/>
			<point x="179" y="652"/>
			<point x="207" y="676"/>
		</contour>
	</outline>
</glyph>
<glyph name="ogonek" format="2">
	<unicode hex="02DB"/>
	<advance width="312"/>
	<outline>
		<contour>
			<point x="176" y="-221" type="curve" smooth="yes"/>
			<point x="207" y="-221"/>
			<point x="248" y="-216"/>
			<point x="275" y="-205" type="curve"/>
			<point x="263" y="-105" type="line"/>
			<point x="240" y="-112"/>
			<point x="224" y="-113"/>
			<point x="212" y="-113" type="curve" smooth="yes"/>
			<point x="189" y="-113"/>
			<point x="182" y="-103"/>
			<point x="182" y="-88" type="curve" smooth="yes"/>
			<point x="182" y="-73"/>
			<point x="193" y="-58"/>
			<point x="210" y="-41" type="curve" smooth="yes"/>
			<point x="233" y="-18"/>
			<point x="260" y="4"/>
			<point x="273" y="15" type="curve"/>
			<point x="156" y="15" type="line"/>
			<point x="133" y="-1"/>
			<point x="107" y="-22"/>
			<point x="84" y="-50" type="curve" smooth="yes"/>
			<point x="64" y="-75"/>
			<point x="51" y="-102"/>
			<point x="51" y="-130" type="curve" smooth="yes"/>
			<point x="51" y="-185"/>
			<point x="87" y="-221"/>
		</contour>
	</outline>
</glyph>
<glyph name="Phi" format="2">
	<unicode hex="03A6"/>
	<advance width="870"/>
	<outline>
		<contour>
			<point x="511" y="212" type="line"/>
			<point x="551" y="215"/>
			<point x="610" y="241"/>
			<point x="649" y="283"/>
			<point x="669" y="338"/>
			<point x="669" y="369" type="qcurve"/>
			<point x="669" y="400"/>
			<point x="650" y="455"/>
			<point x="611" y="498"/>
			<point x="551" y="526"/>
			<point x="511" y="530" type="qcurve"/>
		</contour>
		<contour>
			<point x="511" y="0" type="line"/>
			<point x="359" y="0" type="line"/>
			<point x="359" y="82" type="line"/>
			<point x="279" y="86"/>
			<point x="161" y="136"/>
			<point x="84" y="215"/>
			<point x="46" y="314"/>
			<point x="46" y="367" type="qcurve"/>
			<point x="46" y="419"/>
			<point x="84" y="519"/>
			<point x="161" y="600"/>
			<point x="279" y="654"/>
			<point x="359" y="660" type="qcurve"/>
			<point x="359" y="738" type="line"/>
			<point x="511" y="738" type="line"/>
			<point x="511" y="660" type="line"/>
			<point x="591" y="654"/>
			<point x="709" y="600"/>
			<point x="786" y="519"/>
			<point x="824" y="419"/>
			<point x="824" y="367" type="qcurve"/>
			<point x="824" y="314"/>
			<point x="786" y="215"/>
			<point x="709" y="136"/>
			<point x="591" y="86"/>
			<point x="511" y="82" type="qcurve"/>
		</contour>
		<contour>
			<point x="359" y="530" type="line"/>
			<point x="319" y="526"/>
			<point x="259" y="498"/>
			<point x="220" y="455"/>
			<point x="201" y="400"/>
			<point x="201" y="369" type="qcurve"/>
			<point x="201" y="338"/>
			<point x="221" y="283"/>
			<point x="260" y="241"/>
			<point x="319" y="215"/>
			<point x="359" y="212" type="qcurve"/>
		</contour>
	</outline>
</glyph>
<glyph name="zeta" format="2">
	<unicode hex="03B6"/>
	<advance width="500"/>
	<outline>
		<contour>
			<point x="505" y="-41" type="curve" smooth="yes"/>
			<point x="505" y="48"/>
			<point x="463" y="91"/>
			<point x="329" y="131" type="curve" smooth="yes"/>
			<point x="238" y="158"/>
			<point x="212" y="195"/>
			<point x="212" y="256" type="curve" smooth="yes"/>
			<point x="212" y="430"/>
			<point x="402" y="582"/>
			<point x="487" y="659" type="curve"/>
			<point x="487" y="769" type="line"/>
			<point x="86" y="769" type="line"/>
			<point x="86" y="645" type="line"/>
			<point x="297" y="645" type="line"/>
			<point x="209" y="557"/>
			<point x="60" y="413"/>
			<point x="60" y="245" type="curve" smooth="yes"/>
			<point x="60" y="104"/>
			<point x="132" y="50"/>
			<point x="258" y="15" type="curve"/>
			<point x="340" y="-6"/>
			<point x="357" y="-27"/>
			<point x="357" y="-61" type="curve" smooth="yes"/>
			<point x="357" y="-86"/>
			<point x="344" y="-109"/>
			<point x="323" y="-148" type="curve"/>
			<point x="449" y="-191" type="line"/>
			<point x="481" y="-144"/>
			<point x="505" y="-96"/>
		</contour>
	</outline>
</glyph>
<glyph name="pi" format="2">
	<unicode hex="03C0"/>
	<advance width="593"/>
	<outline>
		<contour>
			<point x="70" y="526" type="line"/>
			<point x="70" y="0" type="line"/>
			<point x="219" y="0" type="line"/>
			<point x="219" y="402" type="line"/>
			<point x="374" y="402" type="line"/>
			<point x="374" y="0" type="line"/>
			<point x="523" y="0" type="line"/>
			<point x="523" y="526" type="line"/>
		</contour>
	</outline>
</glyph>
<glyph name="sigma" format="2">
	<unicode hex="03C3"/>
	<advance width="631"/>
	<outline>
		<contour>
			<point x="558" y="241" type="curve" smooth="yes"/>
			<point x="558" y="293"/>
			<point x="544" y="357"/>
			<point x="501" y="402" type="curve"/>
			<point x="621" y="402" type="line"/>
			<point x="621" y="526" type="line"/>
			<point x="331" y="526" type="line" smooth="yes"/>
			<point x="159" y="526"/>
			<point x="45" y="431"/>
			<point x="45" y="259" type="curve" smooth="yes"/>
			<point x="45" y="94"/>
			<point x="150" y="-14"/>
			<point x="304" y="-14" type="curve" smooth="yes"/>
			<point x="459" y="-14"/>
			<point x="558" y="93"/>
		</contour>
		<contour>
			<point x="408" y="250" type="curve" smooth="yes"/>
			<point x="408" y="173"/>
			<point x="372" y="114"/>
			<point x="304" y="114" type="curve" smooth="yes"/>
			<point x="236" y="114"/>
			<point x="197" y="167"/>
			<point x="197" y="259" type="curve" smooth="yes"/>
			<point x="197" y="360"/>
			<point x="252" y="402"/>
			<point x="331" y="402" type="curve" smooth="yes"/>
			<point x="351" y="402" type="line"/>
			<point x="390" y="371"/>
			<point x="408" y="315"/>
		</contour>
	</outline>
</glyph>
<glyph name="omega" format="2">
	<unicode hex="03C9"/>
	<advance width="842"/>
	<outline>
		<contour>
			<point x="495" y="248" type="line"/>
			<point x="495" y="187"/>
			<point x="522" y="114"/>
			<point x="567" y="114" type="qcurve"/>
			<point x="609" y="114"/>
			<point x="644" y="190"/>
			<point x="644" y="259" type="qcurve"/>
			<point x="644" y="320"/>
			<point x="607" y="437"/>
			<point x="562" y="498" type="qcurve"/>
			<point x="684" y="540" type="line"/>
			<point x="740" y="479"/>
			<point x="794" y="328"/>
			<point x="794" y="252" type="qcurve"/>
			<point x="794" y="180"/>
			<point x="762" y="80"/>
			<point x="704" y="18"/>
			<point x="625" y="-10"/>
			<point x="577" y="-10" type="qcurve"/>
			<point x="517" y="-10"/>
			<point x="446" y="40"/>
			<point x="421" y="79" type="qcurve"/>
			<point x="396" y="40"/>
			<point x="325" y="-10"/>
			<point x="265" y="-10" type="qcurve"/>
			<point x="217" y="-10"/>
			<point x="138" y="18"/>
			<point x="80" y="80"/>
			<point x="48" y="180"/>
			<point x="48" y="252" type="qcurve"/>
			<point x="48" y="328"/>
			<point x="102" y="479"/>
			<point x="158" y="540" type="qcurve"/>
			<point x="280" y="498" type="line"/>
			<point x="235" y="437"/>
			<point x="198" y="320"/>
			<point x="198" y="259" type="qcurve"/>
			<point x="198" y="190"/>
			<point x="233" y="114"/>
			<point x="275" y="114" type="qcurve"/>
			<point x="320" y="114"/>
			<point x="347" y="187"/>
			<point x="347" y="248" type="qcurve"/>
			<point x="347" y="420" type="line"/>
			<point x="495" y="420" type="line"/>
		</contour>
	</outline>
</glyph>
<glyph name="afii10051" format="2">
	<unicode hex="0402"/>
	<advance width="814"/>
	<outline>
		<contour>
			<point x="594" y="693" type="line"/>
			<point x="594" y="560" type="line"/>
			<point x="365" y="560" type="line"/>
			<point x="365" y="429" type="line"/>
			<point x="375" y="430"/>
			<point x="404" y="433"/>
			<point x="433" y="435"/>
			<point x="461" y="437"/>
			<point x="471" y="437" type="qcurve"/>
			<point x="552" y="437"/>
			<point x="665" y="406"/>
			<point x="737" y="346"/>
			<point x="769" y="261"/>
			<point x="769" y="207" type="qcurve"/>
			<point x="769" y="151"/>
			<point x="732" y="70"/>
			<point x="668" y="18"/>
			<point x="583" y="-7"/>
			<point x="534" y="-7" type="qcurve"/>
			<point x="518" y="-7"/>
			<point x="476" y="-4"/>
			<point x="459" y="-1" type="qcurve"/>
			<point x="464" y="115" type="line"/>
			<point x="483" y="112"/>
			<point x="510" y="112" type="qcurve"/>
			<point x="561" y="112"/>
			<point x="621" y="150"/>
			<point x="621" y="205" type="qcurve"/>
			<point x="621" y="259"/>
			<point x="547" y="307"/>
			<point x="462" y="307" type="qcurve"/>
			<point x="452" y="307"/>
			<point x="426" y="306"/>
			<point x="399" y="304"/>
			<point x="374" y="302"/>
			<point x="365" y="301" type="qcurve"/>
			<point x="365" y="0" type="line"/>
			<point x="209" y="0" type="line"/>
			<point x="209" y="560" type="line"/>
			<point x="20" y="560" type="line"/>
			<point x="20" y="693" type="line"/>
		</contour>
	</outline>
</glyph>
<glyph name="afii10058" format="2">
	<unicode hex="0409"/>
	<advance width="1130"/>
	<outline>
		<contour>
			<point x="236" y="693" type="line"/>
			<point x="236" y="504"/>
			<point x="223" y="343"/>
			<point x="190" y="246" type="curve" smooth="yes"/>
			<point x="163" y="167"/>
			<point x="116" y="133"/>
			<point x="20" y="122" type="curve"/>
			<point x="37" y="-14" type="line"/>
			<point x="360" y="-2"/>
			<point x="371" y="294"/>
			<point x="383" y="561" type="curve"/>
			<point x="553" y="561" type="line"/>
			<point x="553" y="16" type="line"/>
			<point x="625" y="-1"/>
			<point x="708" y="-7"/>
			<point x="763" y="-7" type="curve" smooth="yes"/>
			<point x="970" y="-7"/>
			<point x="1085" y="68"/>
			<point x="1085" y="221" type="curve" smooth="yes"/>
			<point x="1085" y="386"/>
			<point x="965" y="447"/>
			<point x="760" y="447" type="curve" smooth="yes"/>
			<point x="709" y="447" type="line"/>
			<point x="709" y="693" type="line"/>
		</contour>
		<contour>
			<point x="771" y="126" type="curve" smooth="yes"/>
			<point x="744" y="126"/>
			<point x="724" y="127"/>
			<point x="709" y="128" type="curve"/>
			<point x="709" y="318" type="line"/>
			<point x="755" y="318" type="line" smooth="yes"/>
			<point x="862" y="318"/>
			<point x="927" y="300"/>
			<point x="927" y="220" type="curve" smooth="yes"/>
			<point x="927" y="144"/>
			<point x="853" y="126"/>
		</contour>
	</outline>
</glyph>
<glyph name="afii10060" format="2">
	<unicode hex="040B"/>
	<advance width="771"/>
	<outline>
		<contour>
			<point x="20" y="693" type="line"/>
			<point x="20" y="560" type="line"/>
			<point x="209" y="560" type="line"/>
			<point x="209" y="0" type="line"/>
			<point x="365" y="0" type="line"/>
			<point x="365" y="299" type="line"/>
			<point x="389" y="302"/>
			<point x="422" y="305"/>
			<point x="450" y="305" type="curve" smooth="yes"/>
			<point x="542" y="305"/>
			<point x="575" y="271"/>
			<point x="575" y="199" type="curve" smooth="yes"/>
			<point x="575" y="0" type="line"/>
			<point x="731" y="0" type="line"/>
			<point x="731" y="199" type="line" smooth="yes"/>
			<point x="731" y="343"/>
			<point x="668" y="437"/>
			<point x="459" y="437" type="curve" smooth="yes"/>
			<point x="431" y="437"/>
			<point x="396" y="433"/>
			<point x="365" y="429" type="curve"/>
			<point x="365" y="560" type="line"/>
			<point x="594" y="560" type="line"/>
			<point x="594" y="693" type="line"/>
		</contour>
	</outline>
</glyph>
<glyph name="afii10020" format="2">
	<unicode hex="0413"/>
	<advance width="593"/>
	<outline>
		<contour>
			<point x="236" y="561" type="line"/>
			<point x="553" y="561" type="line"/>
			<point x="553" y="693" type="line"/>
			<point x="80" y="693" type="line"/>
			<point x="80" y="0" type="line"/>
			<point x="236" y="0" type="line"/>
		</contour>
	</outline>
</glyph>
<glyph name="afii10025" format="2">
	<unicode hex="0417"/>
	<advance width="610"/>
	<outline>
		<contour>
			<point x="142" y="295" type="line"/>
			<point x="236" y="295" type="line" smooth="yes"/>
			<point x="331" y="295"/>
			<point x="404" y="281"/>
			<point x="404" y="204" type="curve" smooth="yes"/>
			<point x="404" y="141"/>
			<point x="345" y="119"/>
			<point x="257" y="119" type="curve" smooth="yes"/>
			<point x="186" y="119"/>
			<point x="107" y="149"/>
			<point x="71" y="164" type="curve"/>
			<point x="25" y="42" type="line"/>
			<point x="80" y="13"/>
			<point x="175" y="-14"/>
			<point x="268" y="-14" type="curve" smooth="yes"/>
			<point x="455" y="-14"/>
			<point x="565" y="50"/>
			<point x="565" y="198" type="curve" smooth="yes"/>
			<point x="565" y="286"/>
			<point x="513" y="338"/>
			<point x="452" y="370" type="curve"/>
			<point x="508" y="405"/>
			<point x="535" y="458"/>
			<point x="535" y="509" type="curve" smooth="yes"/>
			<point x="535" y="642"/>
			<point x="424" y="708"/>
			<point x="274" y="708" type="curve" smooth="yes"/>
			<point x="178" y="708"/>
			<point x="102" y="685"/>
			<point x="49" y="652" type="curve"/>
			<point x="99" y="529" type="line"/>
			<point x="148" y="557"/>
			<point x="200" y="575"/>
			<point x="273" y="575" type="curve" smooth="yes"/>
			<point x="338" y="575"/>
			<point x="376" y="552"/>
			<point x="376" y="507" type="curve" smooth="yes"/>
			<point x="376" y="443"/>
			<point x="319" y="423"/>
			<point x="247" y="423" type="curve" smooth="yes"/>
			<point x="142" y="423" type="line"/>
		</contour>
	</outline>
</glyph>
<glyph name="afii10037" format="2">
	<unicode hex="0423"/>
	<advance width="652"/>
	<outline>
		<contour>
			<point x="449" y="203" type="curve" smooth="yes"/>
			<point x="508" y="339"/>
			<point x="573" y="488"/>
			<point x="642" y="693" type="curve"/>
			<point x="475" y="693" type="line"/>
			<point x="439" y="572"/>
			<point x="401" y="446"/>
			<point x="358" y="330" type="curve"/>
			<point x="302" y="449"/>
			<point x="235" y="590"/>
			<point x="193" y="693" type="curve"/>
			<point x="20" y="693" type="line"/>
			<point x="79" y="560"/>
			<point x="173" y="362"/>
			<point x="282" y="192" type="curve"/>
			<point x="247" y="131"/>
			<point x="209" y="118"/>
			<point x="168" y="118" type="curve" smooth="yes"/>
			<point x="136" y="118"/>
			<point x="104" y="124"/>
			<point x="71" y="136" type="curve"/>
			<point x="43" y="11" type="line"/>
			<point x="86" y="-5"/>
			<point x="137" y="-14"/>
			<point x="182" y="-14" type="curve" smooth="yes"/>
			<point x="277" y="-14"/>
			<point x="371" y="26"/>
		</contour>
	</outline>
</glyph>
<glyph name="afii10042" format="2">
	<unicode hex="0428"/>
	<advance width="1020"/>
	<outline>
		<contour>
			<point x="940" y="693" type="line"/>
			<point x="784" y="693" type="line"/>
			<point x="784" y="132" type="line"/>
			<point x="588" y="132" type="line"/>
			<point x="588" y="693" type="line"/>
			<point x="432" y="693" type="line"/>
			<point x="432" y="132" type="line"/>
			<point x="236" y="132" type="line"/>
			<point x="236" y="693" type="line"/>
			<point x="80" y="693" type="line"/>
			<point x="80" y="0" type="line"/>
			<point x="940" y="0" type="line"/>
		</contour>
	</outline>
</glyph>
<glyph name="afii10043" format="2">
	<unicode hex="0429"/>
	<advance width="1080"/>
	<outline>
		<contour>
			<point x="80" y="0" type="line"/>
			<point x="910" y="0" type="line"/>
			<point x="910" y="-185" type="line"/>
			<point x="1060" y="-185" type="line"/>
			<point x="1060" y="132" type="line"/>
			<point x="940" y="132" type="line"/>
			<point x="940" y="693" type="line"/>
			<point x="784" y="693" type="line"/>
			<point x="784" y="132" type="line"/>
			<point x="588" y="132" type="line"/>
			<point x="588" y="693" type="line"/>
			<point x="432" y="693" type="line"/>
			<point x="432" y="132" type="line"/>
			<point x="236" y="132" type="line"/>
			<point x="236" y="693" type="line"/>
			<point x="80" y="693" type="line"/>
		</contour>
	</outline>
</glyph>
<glyph name="afii10046" format="2">
	<unicode hex="042C"/>
	<advance width="659"/>
	<outline>
		<contour>
			<point x="614" y="227" type="curve" smooth="yes"/>
			<point x="614" y="388"/>
			<point x="506" y="464"/>
			<point x="281" y="464" type="curve" smooth="yes"/>
			<point x="266" y="464"/>
			<point x="253" y="464"/>
			<point x="236" y="463" type="curve"/>
			<point x="236" y="693" type="line"/>
			<point x="80" y="693" type="line"/>
			<point x="80" y="16" type="line"/>
			<point x="152" y="-1"/>
			<point x="231" y="-9"/>
			<point x="288" y="-9" type="curve" smooth="yes"/>
			<point x="493" y="-9"/>
			<point x="614" y="72"/>
		</contour>
		<contour>
			<point x="267" y="332" type="curve" smooth="yes"/>
			<point x="382" y="332"/>
			<point x="454" y="309"/>
			<point x="454" y="227" type="curve" smooth="yes"/>
			<point x="454" y="147"/>
			<point x="379" y="123"/>
			<point x="295" y="123" type="curve" smooth="yes"/>
			<point x="268" y="123"/>
			<point x="251" y="123"/>
			<point x="236" y="124" type="curve"/>
			<point x="236" y="331" type="line"/>
			<point x="247" y="332"/>
			<point x="260" y="332"/>
		</contour>
	</outline>
</glyph>
<glyph name="afii10047" format="2">
	<unicode hex="042D"/>
	<advance width="681"/>
	<outline>
		<contour>
			<point x="631" y="347" type="curve" smooth="yes"/>
			<point x="631" y="595"/>
			<point x="478" y="710"/>
			<point x="284" y="710" type="curve" smooth="yes"/>
			<point x="205" y="710"/>
			<point x="123" y="693"/>
			<point x="47" y="653" type="curve"/>
			<point x="93" y="531" type="line"/>
			<point x="130" y="550"/>
			<point x="199" y="574"/>
			<point x="278" y="574" type="curve" smooth="yes"/>
			<point x="385" y="574"/>
			<point x="447" y="525"/>
			<point x="463" y="418" type="curve"/>
			<point x="176" y="418" type="line"/>
			<point x="176" y="286" type="line"/>
			<point x="466" y="286" type="line"/>
			<point x="450" y="178"/>
			<point x="385" y="122"/>
			<point x="278" y="122" type="curve" smooth="yes"/>
			<point x="191" y="122"/>
			<point x="128" y="154"/>
			<point x="90" y="170" type="curve"/>
			<point x="40" y="45" type="line"/>
			<point x="116" y="6"/>
			<point x="189" y="-14"/>
			<point x="281" y="-14" type="curve" smooth="yes"/>
			<point x="474" y="-14"/>
			<point x="631" y="92"/>
		</contour>
	</outline>
</glyph>
<glyph name="afii10069" format="2">
	<unicode hex="0434"/>
	<advance width="678"/>
	<outline>
		<contour>
			<point x="20" y="122" type="line"/>
			<point x="85" y="122" type="line"/>
			<point x="113" y="156"/>
			<point x="144" y="257"/>
			<point x="157" y="370"/>
			<point x="159" y="482"/>
			<point x="159" y="526" type="qcurve"/>
			<point x="569" y="526" type="line"/>
			<point x="569" y="122" type="line"/>
			<point x="658" y="122" type="line"/>
			<point x="658" y="-150" type="line"/>
			<point x="531" y="-150" type="line"/>
			<point x="531" y="0" type="line"/>
			<point x="147" y="0" type="line"/>
			<point x="147" y="-150" type="line"/>
			<point x="20" y="-150" type="line"/>
		</contour>
		<contour>
			<point x="420" y="122" type="line"/>
			<point x="420" y="404" type="line"/>
			<point x="298" y="404" type="line"/>
			<point x="296" y="369"/>
			<point x="291" y="294"/>
			<point x="278" y="221"/>
			<point x="256" y="151"/>
			<point x="238" y="122" type="qcurve"/>
		</contour>
	</outline>
</glyph>
<glyph name="afii10076" format="2">
	<unicode hex="043A"/>
	<advance width="586"/>
	<outline>
		<contour>
			<point x="219" y="526" type="line"/>
			<point x="70" y="526" type="line"/>
			<point x="70" y="0" type="line"/>
			<point x="219" y="0" type="line"/>
			<point x="219" y="211" type="line"/>
			<point x="278" y="163"/>
			<point x="358" y="72"/>
			<point x="406" y="0" type="curve"/>
			<point x="576" y="0" type="line"/>
			<point x="520" y="93"/>
			<point x="413" y="223"/>
			<point x="333" y="284" type="curve"/>
			<point x="412" y="352"/>
			<point x="521" y="469"/>
			<point x="575" y="526" type="curve"/>
			<point x="394" y="526" type="line"/>
			<point x="351" y="478"/>
			<point x="279" y="399"/>
			<point x="219" y="342" type="curve"/>
		</contour>
	</outline>
</glyph>
<glyph name="afii10079" format="2">
	<unicode hex="043D"/>
	<advance width="593"/>
	<outline>
		<contour>
			<point x="523" y="526" type="line"/>
			<point x="374" y="526" type="line"/>
			<point x="374" y="330" type="line"/>
			<point x="219" y="330" type="line"/>
			<point x="219" y="526" type="line"/>
			<point x="70" y="526" type="line"/>
			<point x="70" y="0" type="line"/>
			<point x="219" y="0" type="line"/>
			<point x="219" y="208" type="line"/>
			<point x="374" y="208" type="line"/>
			<point x="374" y="0" type="line"/>
			<point x="523" y="0" type="line"/>
		</contour>
	</outline>
</glyph>
<glyph name="afii10088" format="2">
	<unicode hex="0446"/>
	<advance width="632"/>
	<outline>
		<contour>
			<point x="523" y="526" type="line"/>
			<point x="374" y="526" type="line"/>
			<point x="374" y="122" type="line"/>
			<point x="219" y="122" type="line"/>
			<point x="219" y="526" type="line"/>
			<point x="70" y="526" type="line"/>
			<point x="70" y="0" type="line"/>
			<point x="485" y="0" type="line"/>
			<point x="485" y="-150" type="line"/>
			<point x="612" y="-150" type="line"/>
			<point x="612" y="122" type="line"/>
			<point x="523" y="122" type="line"/>
		</contour>
	</outline>
</glyph>
<glyph name="afii10093" format="2">
	<unicode hex="044B"/>
	<advance width="824"/>
	<outline>
		<contour>
			<point x="754" y="526" type="line"/>
			<point x="605" y="526" type="line"/>
			<point x="605" y="0" type="line"/>
			<point x="754" y="0" type="line"/>
		</contour>
		<contour>
			<point x="293" y="104" type="curve" smooth="yes"/>
			<point x="264" y="104"/>
			<point x="235" y="105"/>
			<point x="219" y="108" type="curve"/>
			<point x="219" y="228" type="line"/>
			<point x="231" y="231"/>
			<point x="259" y="234"/>
			<point x="279" y="234" type="curve" smooth="yes"/>
			<point x="335" y="234"/>
			<point x="381" y="219"/>
			<point x="381" y="170" type="curve" smooth="yes"/>
			<point x="381" y="123"/>
			<point x="348" y="104"/>
		</contour>
		<contour>
			<point x="219" y="526" type="line"/>
			<point x="70" y="526" type="line"/>
			<point x="70" y="16" type="line"/>
			<point x="146" y="-3"/>
			<point x="215" y="-11"/>
			<point x="303" y="-11" type="curve" smooth="yes"/>
			<point x="439" y="-11"/>
			<point x="529" y="43"/>
			<point x="529" y="166" type="curve" smooth="yes"/>
			<point x="529" y="290"/>
			<point x="430" y="348"/>
			<point x="307" y="348" type="curve" smooth="yes"/>
			<point x="268" y="348"/>
			<point x="238" y="344"/>
			<point x="219" y="339" type="curve"/>
		</contour>
	</outline>
</glyph>
<glyph name="afii10097" format="2">
	<unicode hex="044F"/>
	<advance width="584"/>
	<outline>
		<contour>
			<point x="288" y="187" type="line"/>
			<point x="256" y="140"/>
			<point x="206" y="45"/>
			<point x="183" y="0" type="qcurve"/>
			<point x="30" y="0" type="line"/>
			<point x="59" y="65"/>
			<point x="119" y="173"/>
			<point x="147" y="212" type="qcurve"/>
			<point x="105" y="234"/>
			<point x="55" y="303"/>
			<point x="55" y="355" type="qcurve"/>
			<point x="55" y="443"/>
			<point x="182" y="537"/>
			<point x="294" y="537" type="qcurve"/>
			<point x="319" y="537"/>
			<point x="380" y="533"/>
			<point x="440" y="525"/>
			<point x="495" y="516"/>
			<point x="514" y="511" type="qcurve"/>
			<point x="514" y="0" type="line"/>
			<point x="365" y="0" type="line"/>
			<point x="365" y="187" type="line"/>
		</contour>
		<contour>
			<point x="365" y="419" type="line"/>
			<point x="355" y="420"/>
			<point x="313" y="423"/>
			<point x="298" y="423" type="qcurve"/>
			<point x="243" y="423"/>
			<point x="203" y="386"/>
			<point x="203" y="357" type="qcurve"/>
			<point x="203" y="339"/>
			<point x="219" y="314"/>
			<point x="245" y="299"/>
			<point x="277" y="293"/>
			<point x="293" y="293" type="qcurve"/>
			<point x="365" y="293" type="line"/>
		</contour>
	</outline>
</glyph>
<glyph name="afii10106" format="2">
	<unicode hex="0459"/>
	<advance width="902"/>
	<outline>
		<contour>
			<point x="408" y="404" type="line"/>
			<point x="408" y="16" type="line"/>
			<point x="484" y="-3"/>
			<point x="553" y="-11"/>
			<point x="641" y="-11" type="curve" smooth="yes"/>
			<point x="777" y="-11"/>
			<point x="867" y="43"/>
			<point x="867" y="166" type="curve" smooth="yes"/>
			<point x="867" y="290"/>
			<point x="760" y="338"/>
			<point x="645" y="338" type="curve" smooth="yes"/>
			<point x="606" y="338"/>
			<point x="576" y="334"/>
			<point x="557" y="329" type="curve"/>
			<point x="557" y="526" type="line"/>
			<point x="162" y="526" type="line"/>
			<point x="162" y="466" type="line" smooth="yes"/>
			<point x="162" y="372"/>
			<point x="161" y="258"/>
			<point x="131" y="191" type="curve"/>
			<point x="112" y="152"/>
			<point x="78" y="128"/>
			<point x="10" y="115" type="curve"/>
			<point x="30" y="-9" type="line"/>
			<point x="176" y="4"/>
			<point x="239" y="72"/>
			<point x="271" y="156" type="curve" smooth="yes"/>
			<point x="298" y="228"/>
			<point x="303" y="326"/>
			<point x="306" y="404" type="curve"/>
		</contour>
		<contour>
			<point x="631" y="104" type="curve" smooth="yes"/>
			<point x="602" y="104"/>
			<point x="573" y="105"/>
			<point x="557" y="108" type="curve"/>
			<point x="557" y="228" type="line"/>
			<point x="569" y="231"/>
			<point x="597" y="234"/>
			<point x="617" y="234" type="curve" smooth="yes"/>
			<point x="673" y="234"/>
			<point x="719" y="219"/>
			<point x="719" y="170" type="curve" smooth="yes"/>
			<point x="719" y="123"/>
			<point x="686" y="104"/>
		</contour>
	</outline>
</glyph>
<glyph name="afii10193" format="2">
	<unicode hex="045F"/>
	<advance width="593"/>
	<outline>
		<contour>
			<point x="523" y="526" type="line"/>
			<point x="374" y="526" type="line"/>
			<point x="374" y="122" type="line"/>
			<point x="219" y="122" type="line"/>
			<point x="219" y="526" type="line"/>
			<point x="70" y="526" type="line"/>
			<point x="70" y="0" type="line"/>
			<point x="231" y="0" type="line"/>
			<point x="231" y="-150" type="line"/>
			<point x="358" y="-150" type="line"/>
			<point x="358" y="0" type="line"/>
			<point x="523" y="0" type="line"/>
		</contour>
	</outline>
</glyph>
<glyph name="uni0472" format="2">
	<unicode hex="0472"/>
	<advance width="790"/>
	<outline>
		<contour>
			<point x="740" y="347" type="curve" smooth="yes"/>
			<point x="740" y="584"/>
			<point x="585" y="709"/>
			<point x="395" y="709" type="curve" smooth="yes"/>
			<point x="211" y="709"/>
			<point x="50" y="584"/>
			<point x="50" y="347" type="curve" smooth="yes"/>
			<point x="50" y="110"/>
			<point x="205" y="-14"/>
			<point x="395" y="-14" type="curve" smooth="yes"/>
			<point x="591" y="-14"/>
			<point x="740" y="110"/>
		</contour>
		<contour>
			<point x="507" y="384" type="curve" smooth="yes"/>
			<point x="443" y="384"/>
			<point x="400" y="430"/>
			<point x="315" y="430" type="curve" smooth="yes"/>
			<point x="284" y="430"/>
			<point x="250" y="421"/>
			<point x="214" y="396" type="curve"/>
			<point x="229" y="504"/>
			<point x="294" y="572"/>
			<point x="395" y="572" type="curve" smooth="yes"/>
			<point x="495" y="572"/>
			<point x="559" y="505"/>
			<point x="575" y="401" type="curve"/>
			<point x="550" y="390"/>
			<point x="528" y="384"/>
		</contour>
		<contour>
			<point x="304" y="303" type="curve" smooth="yes"/>
			<point x="368" y="303"/>
			<point x="411" y="257"/>
			<point x="496" y="257" type="curve" smooth="yes"/>
			<point x="520" y="257"/>
			<point x="545" y="262"/>
			<point x="572" y="275" type="curve"/>
			<point x="551" y="180"/>
			<point x="490" y="123"/>
			<point x="395" y="123" type="curve" smooth="yes"/>
			<point x="299" y="123"/>
			<point x="238" y="181"/>
			<point x="218" y="276" type="curve"/>
			<point x="253" y="296"/>
			<point x="279" y="303"/>
		</contour>
	</outline>
</glyph>
<glyph name="uni0474" format="2">
	<unicode hex="0474"/>
	<advance width="791"/>
	<outline>
		<contour>
			<point x="434" y="0" type="line"/>
			<point x="284" y="0" type="line"/>
			<point x="249" y="74"/>
			<point x="185" y="226"/>
			<point x="119" y="392"/>
			<point x="49" y="581"/>
			<point x="10" y="693" type="qcurve"/>
			<point x="179" y="693" type="line"/>
			<point x="203" y="617"/>
			<point x="247" y="485"/>
			<point x="291" y="363"/>
			<point x="335" y="246"/>
			<point x="361" y="185" type="qcurve"/>
			<point x="494" y="560" type="line"/>
			<point x="502" y="582"/>
			<point x="524" y="632"/>
			<point x="562" y="675"/>
			<point x="622" y="703"/>
			<point x="668" y="703" type="qcurve"/>
			<point x="708" y="703"/>
			<point x="776" y="681"/>
			<point x="811" y="650" type="qcurve"/>
			<point x="751" y="546" type="line"/>
			<point x="740" y="556"/>
			<point x="710" y="568"/>
			<point x="692" y="568" type="qcurve"/>
			<point x="672" y="568"/>
			<point x="645" y="546"/>
			<point x="637" y="527" type="qcurve"/>
		</contour>
	</outline>
</glyph>
<glyph name="uni0475" format="2">
	<unicode hex="0475"/>
	<advance width="597"/>
	<outline>
		<contour>
			<point x="479" y="374" type="line"/>
			<point x="491" y="405"/>
			<point x="508" y="415"/>
			<point x="532" y="415" type="curve" smooth="yes"/>
			<point x="543" y="415"/>
			<point x="556" y="414"/>
			<point x="576" y="405" type="curve"/>
			<point x="607" y="514" type="line"/>
			<point x="572" y="529"/>
			<point x="533" y="534"/>
			<point x="504" y="534" type="curve" smooth="yes"/>
			<point x="416" y="534"/>
			<point x="383" y="494"/>
			<point x="356" y="417" type="curve"/>
			<point x="277" y="180" type="line"/>
			<point x="242" y="271"/>
			<point x="195" y="425"/>
			<point x="168" y="526" type="curve"/>
			<point x="10" y="526" type="line"/>
			<point x="70" y="322"/>
			<point x="148" y="136"/>
			<point x="213" y="0" type="curve"/>
			<point x="337" y="0" type="line"/>
		</contour>
	</outline>
</glyph>
<glyph name="uni048D" format="2">
	<unicode hex="048D"/>
	<advance width="566"/>
	<outline>
		<contour>
			<point x="10" y="394" type="line"/>
			<point x="72" y="394" type="line"/>
			<point x="72" y="16" type="line"/>
			<point x="148" y="-3"/>
			<point x="217" y="-11"/>
			<point x="305" y="-11" type="curve" smooth="yes"/>
			<point x="441" y="-11"/>
			<point x="531" y="43"/>
			<point x="531" y="166" type="curve" smooth="yes"/>
			<point x="531" y="290"/>
			<point x="424" y="338"/>
			<point x="309" y="338" type="curve" smooth="yes"/>
			<point x="270" y="338"/>
			<point x="240" y="334"/>
			<point x="221" y="329" type="curve"/>
			<point x="221" y="394" type="line"/>
			<point x="364" y="394" type="line"/>
			<point x="364" y="487" type="line"/>
			<point x="221" y="487" type="line"/>
			<point x="221" y="546" type="line"/>
			<point x="72" y="546" type="line"/>
			<point x="72" y="487" type="line"/>
			<point x="10" y="487" type="line"/>
		</contour>
		<contour>
			<point x="295" y="104" type="curve" smooth="yes"/>
			<point x="266" y="104"/>
			<point x="237" y="105"/>
			<point x="221" y="108" type="curve"/>
			<point x="221" y="228" type="line"/>
			<point x="233" y="231"/>
			<point x="261" y="234"/>
			<point x="281" y="234" type="curve" smooth="yes"/>
			<point x="337" y="234"/>
			<point x="383" y="219"/>
			<point x="383" y="170" type="curve" smooth="yes"/>
			<point x="383" y="123"/>
			<point x="350" y="104"/>
		</contour>
	</outline>
</glyph>
<glyph name="uni048E" format="2">
	<unicode hex="048E"/>
	<advance width="654"/>
	<outline>
		<contour>
			<point x="298" y="701" type="qcurve"/>
			<point x="453" y="701"/>
			<point x="619" y="592"/>
			<point x="619" y="468" type="qcurve"/>
			<point x="619" y="396"/>
			<point x="556" y="300"/>
			<point x="502" y="272" type="qcurve"/>
			<point x="556" y="181" type="line"/>
			<point x="452" y="124" type="line"/>
			<point x="385" y="237" type="line"/>
			<point x="365" y="235"/>
			<point x="324" y="232"/>
			<point x="302" y="232" type="qcurve"/>
			<point x="236" y="232" type="line"/>
			<point x="236" y="0" type="line"/>
			<point x="80" y="0" type="line"/>
			<point x="80" y="683" type="line"/>
			<point x="105" y="688"/>
			<point x="164" y="695"/>
			<point x="222" y="699"/>
			<point x="277" y="701"/>
		</contour>
		<contour>
			<point x="308" y="568" type="qcurve"/>
			<point x="291" y="568"/>
			<point x="248" y="566"/>
			<point x="236" y="565" type="qcurve"/>
			<point x="236" y="355" type="line"/>
			<point x="288" y="355" type="line"/>
			<point x="296" y="355"/>
			<point x="309" y="355"/>
			<point x="316" y="356" type="qcurve"/>
			<point x="268" y="439" type="line"/>
			<point x="371" y="497" type="line"/>
			<point x="431" y="393" type="line"/>
			<point x="458" y="420"/>
			<point x="458" y="469" type="qcurve"/>
			<point x="458" y="498"/>
			<point x="437" y="536"/>
			<point x="398" y="559"/>
			<point x="342" y="568"/>
		</contour>
	</outline>
</glyph>
<glyph name="uni048F" format="2">
	<unicode hex="048F"/>
	<advance width="614"/>
	<outline>
		<contour>
			<point x="569" y="263" type="qcurve"/>
			<point x="569" y="186"/>
			<point x="522" y="68"/>
			<point x="477" y="33" type="qcurve"/>
			<point x="531" y="-60" type="line"/>
			<point x="437" y="-112" type="line"/>
			<point x="377" y="-7" type="line"/>
			<point x="368" y="-8"/>
			<point x="349" y="-10"/>
			<point x="339" y="-10" type="qcurve"/>
			<point x="308" y="-10"/>
			<point x="244" y="2"/>
			<point x="219" y="13" type="qcurve"/>
			<point x="219" y="-185" type="line"/>
			<point x="70" y="-185" type="line"/>
			<point x="70" y="508" type="line"/>
			<point x="90" y="514"/>
			<point x="145" y="525"/>
			<point x="206" y="533"/>
			<point x="268" y="538"/>
			<point x="295" y="538" type="qcurve"/>
			<point x="360" y="538"/>
			<point x="462" y="499"/>
			<point x="532" y="428"/>
			<point x="569" y="326"/>
		</contour>
		<contour>
			<point x="417" y="259" type="qcurve"/>
			<point x="417" y="328"/>
			<point x="355" y="411"/>
			<point x="294" y="411" type="qcurve"/>
			<point x="274" y="411"/>
			<point x="230" y="408"/>
			<point x="219" y="406" type="qcurve"/>
			<point x="219" y="127" type="line"/>
			<point x="233" y="118"/>
			<point x="288" y="106"/>
			<point x="311" y="106" type="qcurve"/>
			<point x="312" y="106" type="line"/>
			<point x="255" y="205" type="line"/>
			<point x="348" y="258" type="line"/>
			<point x="401" y="166" type="line"/>
			<point x="417" y="201"/>
		</contour>
	</outline>
</glyph>
<glyph name="uni0495" format="2">
	<unicode hex="0495"/>
	<advance width="569"/>
	<outline>
		<contour>
			<point x="468" y="526" type="line"/>
			<point x="70" y="526" type="line"/>
			<point x="70" y="0" type="line"/>
			<point x="219" y="0" type="line"/>
			<point x="219" y="202" type="line"/>
			<point x="227" y="202"/>
			<point x="257" y="206"/>
			<point x="270" y="206" type="curve" smooth="yes"/>
			<point x="348" y="206"/>
			<point x="399" y="173"/>
			<point x="399" y="59" type="curve" smooth="yes"/>
			<point x="399" y="-22"/>
			<point x="367" y="-73"/>
			<point x="295" y="-73" type="curve" smooth="yes"/>
			<point x="280" y="-73"/>
			<point x="264" y="-72"/>
			<point x="248" y="-71" type="curve"/>
			<point x="240" y="-183" type="line"/>
			<point x="260" y="-185"/>
			<point x="279" y="-186"/>
			<point x="298" y="-186" type="curve" smooth="yes"/>
			<point x="436" y="-186"/>
			<point x="534" y="-114"/>
			<point x="534" y="62" type="curve" smooth="yes"/>
			<point x="534" y="240"/>
			<point x="437" y="321"/>
			<point x="297" y="321" type="curve" smooth="yes"/>
			<point x="274" y="321"/>
			<point x="243" y="319"/>
			<point x="219" y="315" type="curve"/>
			<point x="219" y="404" type="line"/>
			<point x="468" y="404" type="line"/>
		</contour>
	</outline>
</glyph>
<glyph name="uni0499" format="2">
	<unicode hex="0499"/>
	<advance width="495"/>
	<outline>
		<contour>
			<point x="45" y="509" type="line"/>
			<point x="80" y="522"/>
			<point x="172" y="538"/>
			<point x="226" y="538" type="qcurve"/>
			<point x="267" y="538"/>
			<point x="345" y="523"/>
			<point x="406" y="488"/>
			<point x="443" y="431"/>
			<point x="443" y="388" type="qcurve"/>
			<point x="443" y="349"/>
			<point x="407" y="294"/>
			<point x="374" y="276" type="qcurve"/>
			<point x="418" y="257"/>
			<point x="460" y="195"/>
			<point x="460" y="147" type="qcurve"/>
			<point x="460" y="111"/>
			<point x="435" y="57"/>
			<point x="391" y="19"/>
			<point x="332" y="-4"/>
			<point x="298" y="-9" type="qcurve"/>
			<point x="294" y="-17"/>
			<point x="286" y="-34"/>
			<point x="284" y="-40" type="qcurve"/>
			<point x="316" y="-56"/>
			<point x="340" y="-100"/>
			<point x="340" y="-123" type="qcurve"/>
			<point x="340" y="-171"/>
			<point x="264" y="-221"/>
			<point x="202" y="-221" type="qcurve"/>
			<point x="180" y="-221"/>
			<point x="136" y="-214"/>
			<point x="114" y="-208" type="qcurve"/>
			<point x="132" y="-121" type="line"/>
			<point x="139" y="-123"/>
			<point x="176" y="-132"/>
			<point x="194" y="-132" type="qcurve"/>
			<point x="208" y="-132"/>
			<point x="229" y="-121"/>
			<point x="230" y="-107" type="qcurve"/>
			<point x="231" y="-95"/>
			<point x="210" y="-75"/>
			<point x="187" y="-70" type="qcurve"/>
			<point x="175" y="-67" type="line"/>
			<point x="179" y="-56"/>
			<point x="191" y="-27"/>
			<point x="197" y="-13" type="qcurve"/>
			<point x="151" y="-10"/>
			<point x="62" y="8"/>
			<point x="30" y="22" type="qcurve"/>
			<point x="57" y="138" type="line"/>
			<point x="78" y="130"/>
			<point x="165" y="108"/>
			<point x="220" y="108" type="qcurve"/>
			<point x="310" y="108"/>
			<point x="310" y="158" type="qcurve"/>
			<point x="310" y="175"/>
			<point x="296" y="196"/>
			<point x="273" y="208"/>
			<point x="243" y="212"/>
			<point x="228" y="212" type="qcurve"/>
			<point x="111" y="212" type="line"/>
			<point x="111" y="318" type="line"/>
			<point x="229" y="318" type="line"/>
			<point x="265" y="318"/>
			<point x="294" y="347"/>
			<point x="294" y="366" type="qcurve"/>
			<point x="294" y="385"/>
			<point x="261" y="416"/>
			<point x="217" y="416" type="qcurve"/>
			<point x="173" y="416"/>
			<point x="95" y="400"/>
			<point x="71" y="393" type="qcurve"/>
		</contour>
	</outline>
</glyph>
<glyph name="uni049D" format="2">
	<unicode hex="049D"/>
	<advance width="682"/>
	<outline>
		<contour>
			<point x="259" y="439" type="line"/>
			<point x="259" y="319" type="line"/>
			<point x="219" y="319" type="line"/>
			<point x="219" y="526" type="line"/>
			<point x="70" y="526" type="line"/>
			<point x="70" y="0" type="line"/>
			<point x="219" y="0" type="line"/>
			<point x="219" y="234" type="line"/>
			<point x="259" y="234" type="line"/>
			<point x="259" y="116" type="line"/>
			<point x="336" y="116" type="line"/>
			<point x="336" y="228" type="line"/>
			<point x="397" y="167"/>
			<point x="461" y="64"/>
			<point x="501" y="0" type="curve"/>
			<point x="672" y="0" type="line"/>
			<point x="624" y="89"/>
			<point x="529" y="210"/>
			<point x="448" y="288" type="curve"/>
			<point x="510" y="347"/>
			<point x="603" y="447"/>
			<point x="664" y="526" type="curve"/>
			<point x="487" y="526" type="line"/>
			<point x="442" y="459"/>
			<point x="393" y="396"/>
			<point x="336" y="328" type="curve"/>
			<point x="336" y="439" type="line"/>
		</contour>
	</outline>
</glyph>
<glyph name="uni049F" format="2">
	<unicode hex="049F"/>
	<advance width="606"/>
	<outline>
		<contour>
			<point x="2" y="453" type="line"/>
			<point x="72" y="453" type="line"/>
			<point x="72" y="0" type="line"/>
			<point x="221" y="0" type="line"/>
			<point x="221" y="204" type="line"/>
			<point x="288" y="148"/>
			<point x="370" y="70"/>
			<point x="413" y="0" type="curve"/>
			<point x="584" y="0" type="line"/>
			<point x="535" y="89"/>
			<point x="431" y="190"/>
			<point x="350" y="268" type="curve"/>
			<point x="431" y="340"/>
			<point x="513" y="423"/>
			<point x="596" y="526" type="curve"/>
			<point x="419" y="526" type="line"/>
			<point x="362" y="454"/>
			<point x="288" y="374"/>
			<point x="221" y="309" type="curve"/>
			<point x="221" y="453" type="line"/>
			<point x="296" y="453" type="line"/>
			<point x="296" y="526" type="line"/>
			<point x="221" y="526" type="line"/>
			<point x="221" y="571" type="line"/>
			<point x="72" y="571" type="line"/>
			<point x="72" y="526" type="line"/>
			<point x="2" y="526" type="line"/>
		</contour>
	</outline>
</glyph>
<glyph name="uni04A0" format="2">
	<unicode hex="04A0"/>
	<advance width="797"/>
	<outline>
		<contour>
			<point x="20" y="693" type="line"/>
			<point x="349" y="693" type="line"/>
			<point x="349" y="431" type="line"/>
			<point x="410" y="495"/>
			<point x="533" y="634"/>
			<point x="586" y="693" type="qcurve"/>
			<point x="771" y="693" type="line"/>
			<point x="700" y="609"/>
			<point x="557" y="453"/>
			<point x="478" y="374" type="qcurve"/>
			<point x="561" y="305"/>
			<point x="716" y="115"/>
			<point x="787" y="0" type="qcurve"/>
			<point x="602" y="0" type="line"/>
			<point x="581" y="34"/>
			<point x="524" y="113"/>
			<point x="457" y="192"/>
			<point x="385" y="265"/>
			<point x="349" y="293" type="qcurve"/>
			<point x="349" y="0" type="line"/>
			<point x="193" y="0" type="line"/>
			<point x="193" y="561" type="line"/>
			<point x="20" y="561" type="line"/>
		</contour>
	</outline>
</glyph>
<glyph name="uni04A3" format="2">
	<unicode hex="04A3"/>
	<advance width="635"/>
	<outline>
		<contour>
			<point x="523" y="122" type="line"/>
			<point x="615" y="122" type="line"/>
			<point x="615" y="-145" type="line"/>
			<point x="488" y="-145" type="line"/>
			<point x="488" y="0" type="line"/>
			<point x="374" y="0" type="line"/>
			<point x="374" y="208" type="line"/>
			<point x="219" y="208" type="line"/>
			<point x="219" y="0" type="line"/>
			<point x="70" y="0" type="line"/>
			<point x="70" y="526" type="line"/>
			<point x="219" y="526" type="line"/>
			<point x="219" y="330" type="line"/>
			<point x="374" y="330" type="line"/>
			<point x="374" y="526" type="line"/>
			<point x="523" y="526" type="line"/>
		</contour>
	</outline>
</glyph>
<glyph name="uni04A5" format="2">
	<unicode hex="04A5"/>
	<advance width="653"/>
	<outline>
		<contour>
			<point x="643" y="526" type="line"/>
			<point x="374" y="526" type="line"/>
			<point x="374" y="330" type="line"/>
			<point x="219" y="330" type="line"/>
			<point x="219" y="526" type="line"/>
			<point x="70" y="526" type="line"/>
			<point x="70" y="0" type="line"/>
			<point x="219" y="0" type="line"/>
			<point x="219" y="208" type="line"/>
			<point x="374" y="208" type="line"/>
			<point x="374" y="0" type="line"/>
			<point x="523" y="0" type="line"/>
			<point x="523" y="416" type="line"/>
			<point x="643" y="416" type="line"/>
		</contour>
	</outline>
</glyph>
<glyph name="uni04AD" format="2">
	<unicode hex="04AD"/>
	<advance width="505"/>
	<outline>
		<contour>
			<point x="495" y="404" type="line"/>
			<point x="327" y="404" type="line"/>
			<point x="327" y="122" type="line"/>
			<point x="424" y="122" type="line"/>
			<point x="424" y="-145" type="line"/>
			<point x="297" y="-145" type="line"/>
			<point x="297" y="0" type="line"/>
			<point x="178" y="0" type="line"/>
			<point x="178" y="404" type="line"/>
			<point x="10" y="404" type="line"/>
			<point x="10" y="526" type="line"/>
			<point x="495" y="526" type="line"/>
		</contour>
	</outline>
</glyph>
<glyph name="uni04B2" format="2">
	<unicode hex="04B2"/>
	<advance width="716"/>
	<outline>
		<contour>
			<point x="546" y="0" type="line"/>
			<point x="546" y="-185" type="line"/>
			<point x="696" y="-185" type="line"/>
			<point x="696" y="132" type="line"/>
			<point x="589" y="132" type="line"/>
			<point x="548" y="199"/>
			<point x="498" y="273"/>
			<point x="434" y="356" type="curve"/>
			<point x="654" y="693" type="line"/>
			<point x="476" y="693" type="line"/>
			<point x="344" y="476" type="line"/>
			<point x="209" y="693" type="line"/>
			<point x="20" y="693" type="line"/>
			<point x="243" y="358" type="line"/>
			<point x="147" y="226"/>
			<point x="69" y="108"/>
			<point x="10" y="0" type="curve"/>
			<point x="188" y="0" type="line"/>
			<point x="212" y="51"/>
			<point x="298" y="191"/>
			<point x="335" y="239" type="curve"/>
			<point x="395" y="156"/>
			<point x="439" y="77"/>
			<point x="478" y="0" type="curve"/>
		</contour>
	</outline>
</glyph>
<glyph name="uni04B3" format="2">
	<unicode hex="04B3"/>
	<advance width="587"/>
	<outline>
		<contour>
			<point x="177" y="526" type="line"/>
			<point x="14" y="526" type="line"/>
			<point x="73" y="442"/>
			<point x="132" y="355"/>
			<point x="192" y="271" type="curve"/>
			<point x="124" y="187"/>
			<point x="42" y="68"/>
			<point x="10" y="0" type="curve"/>
			<point x="164" y="0" type="line"/>
			<point x="190" y="53"/>
			<point x="233" y="126"/>
			<point x="273" y="176" type="curve"/>
			<point x="315" y="123"/>
			<point x="361" y="40"/>
			<point x="382" y="0" type="curve"/>
			<point x="440" y="0" type="line"/>
			<point x="440" y="-145" type="line"/>
			<point x="567" y="-145" type="line"/>
			<point x="567" y="122" type="line"/>
			<point x="469" y="122" type="line"/>
			<point x="437" y="170"/>
			<point x="399" y="221"/>
			<point x="358" y="273" type="curve"/>
			<point x="537" y="526" type="line"/>
			<point x="381" y="526" type="line"/>
			<point x="279" y="368" type="line"/>
		</contour>
	</outline>
</glyph>
<glyph name="uni04B8" format="2">
	<unicode hex="04B8"/>
	<advance width="680"/>
	<outline>
		<contour>
			<point x="286" y="473" type="line"/>
			<point x="286" y="361" type="line"/>
			<point x="223" y="374"/>
			<point x="206" y="413"/>
			<point x="206" y="481" type="curve" smooth="yes"/>
			<point x="206" y="693" type="line"/>
			<point x="50" y="693" type="line"/>
			<point x="50" y="481" type="line" smooth="yes"/>
			<point x="50" y="334"/>
			<point x="94" y="238"/>
			<point x="286" y="225" type="curve"/>
			<point x="286" y="107" type="line"/>
			<point x="383" y="107" type="line"/>
			<point x="383" y="225" type="line"/>
			<point x="406" y="226"/>
			<point x="426" y="228"/>
			<point x="444" y="231" type="curve"/>
			<point x="444" y="0" type="line"/>
			<point x="600" y="0" type="line"/>
			<point x="600" y="693" type="line"/>
			<point x="444" y="693" type="line"/>
			<point x="444" y="364" type="line"/>
			<point x="427" y="361"/>
			<point x="406" y="358"/>
			<point x="383" y="357" type="curve"/>
			<point x="383" y="473" type="line"/>
		</contour>
	</outline>
</glyph>
<glyph name="uni04BF" format="2">
	<unicode hex="04BF"/>
	<advance width="708"/>
	<outline>
		<contour>
			<point x="370" y="-7" type="line"/>
			<point x="275" y="13"/>
			<point x="178" y="139"/>
			<point x="170" y="227" type="qcurve"/>
			<point x="85" y="240"/>
			<point x="10" y="316"/>
			<point x="10" y="396" type="qcurve"/>
			<point x="10" y="408"/>
			<point x="14" y="439"/>
			<point x="19" y="456" type="qcurve"/>
			<point x="132" y="442" type="line"/>
			<point x="128" y="428"/>
			<point x="127" y="398"/>
			<point x="127" y="393" type="qcurve"/>
			<point x="127" y="371"/>
			<point x="145" y="341"/>
			<point x="176" y="332" type="qcurve"/>
			<point x="186" y="384"/>
			<point x="235" y="462"/>
			<point x="301" y="514"/>
			<point x="380" y="540"/>
			<point x="421" y="540" type="qcurve"/>
			<point x="533" y="540"/>
			<point x="663" y="403"/>
			<point x="663" y="270" type="qcurve"/>
			<point x="663" y="257"/>
			<point x="661" y="226"/>
			<point x="660" y="214" type="qcurve"/>
			<point x="322" y="214" type="line"/>
			<point x="327" y="168"/>
			<point x="403" y="114"/>
			<point x="467" y="114" type="qcurve"/>
			<point x="508" y="114"/>
			<point x="587" y="129"/>
			<point x="612" y="140" type="qcurve"/>
			<point x="632" y="19" type="line"/>
			<point x="614" y="9"/>
			<point x="540" y="-7"/>
			<point x="497" y="-11" type="qcurve"/>
			<point x="497" y="-150" type="line"/>
			<point x="370" y="-150" type="line"/>
		</contour>
		<contour>
			<point x="519" y="316" type="line"/>
			<point x="518" y="335"/>
			<point x="507" y="371"/>
			<point x="484" y="399"/>
			<point x="449" y="417"/>
			<point x="423" y="417" type="qcurve"/>
			<point x="398" y="417"/>
			<point x="362" y="400"/>
			<point x="338" y="372"/>
			<point x="325" y="335"/>
			<point x="322" y="316" type="qcurve"/>
		</contour>
	</outline>
</glyph>
<glyph name="uni04C6" format="2">
	<unicode hex="04C6"/>
	<advance width="675"/>
	<outline>
		<contour>
			<point x="408" y="404" type="line"/>
			<point x="408" y="0" type="line"/>
			<point x="500" y="0" type="line"/>
			<point x="487" y="-41"/>
			<point x="469" y="-69"/>
			<point x="437" y="-108" type="curve"/>
			<point x="529" y="-166" type="line"/>
			<point x="604" y="-99"/>
			<point x="657" y="11"/>
			<point x="654" y="122" type="curve"/>
			<point x="557" y="122" type="line"/>
			<point x="557" y="526" type="line"/>
			<point x="162" y="526" type="line"/>
			<point x="162" y="466" type="line" smooth="yes"/>
			<point x="162" y="372"/>
			<point x="161" y="258"/>
			<point x="131" y="191" type="curve"/>
			<point x="112" y="152"/>
			<point x="78" y="128"/>
			<point x="10" y="115" type="curve"/>
			<point x="30" y="-9" type="line"/>
			<point x="176" y="4"/>
			<point x="239" y="72"/>
			<point x="271" y="156" type="curve" smooth="yes"/>
			<point x="298" y="228"/>
			<point x="303" y="326"/>
			<point x="306" y="404" type="curve"/>
		</contour>
	</outline>
</glyph>
<glyph name="uni04C7" format="2">
	<unicode hex="04C7"/>
	<advance width="734"/>
	<outline>
		<contour>
			<point x="498" y="428" type="line"/>
			<point x="236" y="428" type="line"/>
			<point x="236" y="693" type="line"/>
			<point x="80" y="693" type="line"/>
			<point x="80" y="0" type="line"/>
			<point x="236" y="0" type="line"/>
			<point x="236" y="294" type="line"/>
			<point x="498" y="294" type="line"/>
			<point x="498" y="21" type="line" smooth="yes"/>
			<point x="498" y="-32"/>
			<point x="486" y="-61"/>
			<point x="445" y="-61" type="curve" smooth="yes"/>
			<point x="420" y="-61"/>
			<point x="412" y="-60"/>
			<point x="392" y="-53" type="curve"/>
			<point x="372" y="-174" type="line"/>
			<point x="404" y="-185"/>
			<point x="440" y="-187"/>
			<point x="459" y="-187" type="curve" smooth="yes"/>
			<point x="596" y="-187"/>
			<point x="654" y="-122"/>
			<point x="654" y="17" type="curve" smooth="yes"/>
			<point x="654" y="693" type="line"/>
			<point x="498" y="693" type="line"/>
		</contour>
	</outline>
</glyph>
<glyph name="uni04CF" format="2">
	<unicode hex="04CF"/>
	<advance width="289"/>
	<outline>
		<contour>
			<point x="70" y="0" type="line"/>
			<point x="219" y="0" type="line"/>
			<point x="219" y="693" type="line"/>
			<point x="70" y="693" type="line"/>
		</contour>
	</outline>
</glyph>
<glyph name="uni04E8" format="2">
	<unicode hex="04E8"/>
	<advance width="790"/>
	<outline>
		<contour>
			<point x="740" y="347" type="curve" smooth="yes"/>
			<point x="740" y="584"/>
			<point x="585" y="709"/>
			<point x="395" y="709" type="curve" smooth="yes"/>
			<point x="211" y="709"/>
			<point x="50" y="584"/>
			<point x="50" y="347" type="curve" smooth="yes"/>
			<point x="50" y="110"/>
			<point x="205" y="-14"/>
			<point x="395" y="-14" type="curve" smooth="yes"/>
			<point x="591" y="-14"/>
			<point x="740" y="110"/>
		</contour>
		<contour>
			<point x="395" y="572" type="curve" smooth="yes"/>
			<point x="495" y="572"/>
			<point x="559" y="505"/>
			<point x="575" y="401" type="curve"/>
			<point x="215" y="401" type="line"/>
			<point x="231" y="505"/>
			<point x="295" y="572"/>
		</contour>
		<contour>
			<point x="395" y="123" type="curve" smooth="yes"/>
			<point x="295" y="123"/>
			<point x="231" y="187"/>
			<point x="215" y="291" type="curve"/>
			<point x="574" y="291" type="line"/>
			<point x="558" y="187"/>
			<point x="495" y="123"/>
		</contour>
	</outline>
</glyph>
<glyph name="uni04E9" format="2">
	<unicode hex="04E9"/>
	<advance width="607"/>
	<outline>
		<contour>
			<point x="562" y="264" type="curve" smooth="yes"/>
			<point x="562" y="411"/>
			<point x="471" y="540"/>
			<point x="304" y="540" type="curve" smooth="yes"/>
			<point x="155" y="540"/>
			<point x="45" y="429"/>
			<point x="45" y="264" type="curve" smooth="yes"/>
			<point x="45" y="112"/>
			<point x="135" y="-14"/>
			<point x="304" y="-14" type="curve" smooth="yes"/>
			<point x="461" y="-14"/>
			<point x="562" y="98"/>
		</contour>
		<contour>
			<point x="304" y="106" type="curve" smooth="yes"/>
			<point x="244" y="106"/>
			<point x="205" y="151"/>
			<point x="193" y="219" type="curve"/>
			<point x="414" y="219" type="line"/>
			<point x="403" y="147"/>
			<point x="364" y="106"/>
		</contour>
		<contour>
			<point x="304" y="420" type="curve" smooth="yes"/>
			<point x="374" y="420"/>
			<point x="403" y="362"/>
			<point x="414" y="309" type="curve"/>
			<point x="192" y="309" type="line"/>
			<point x="204" y="380"/>
			<point x="244" y="420"/>
		</contour>
	</outline>
</glyph>
<glyph name="uni1FC1" format="2">
	<unicode hex="1FC1"/>
	<advance width="536"/>
	<outline>
		<contour>
			<point x="226" y="660" type="qcurve"/>
			<point x="226" y="630"/>
			<point x="186" y="594"/>
			<point x="159" y="594" type="qcurve"/>
			<point x="131" y="594"/>
			<point x="93" y="630"/>
			<point x="93" y="660" type="qcurve"/>
			<point x="93" y="691"/>
			<point x="131" y="727"/>
			<point x="159" y="727" type="qcurve"/>
			<point x="186" y="727"/>
			<point x="226" y="691"/>
		</contour>
		<contour>
			<point x="442" y="660" type="qcurve"/>
			<point x="442" y="630"/>
			<point x="403" y="594"/>
			<point x="376" y="594" type="qcurve"/>
			<point x="349" y="594"/>
			<point x="309" y="630"/>
			<point x="309" y="660" type="qcurve"/>
			<point x="309" y="691"/>
			<point x="349" y="727"/>
			<point x="376" y="727" type="qcurve"/>
			<point x="403" y="727"/>
			<point x="442" y="691"/>
		</contour>
		<contour>
			<point x="347" y="764" type="line"/>
			<point x="346" y="783"/>
			<point x="331" y="811"/>
			<point x="308" y="829"/>
			<point x="280" y="837"/>
			<point x="267" y="837" type="qcurve"/>
			<point x="253" y="837"/>
			<point x="226" y="829"/>
			<point x="203" y="811"/>
			<point x="188" y="783"/>
			<point x="187" y="764" type="qcurve"/>
			<point x="110" y="764" type="line"/>
			<point x="112" y="806"/>
			<point x="139" y="865"/>
			<point x="181" y="904"/>
			<point x="237" y="922"/>
			<point x="267" y="922" type="qcurve"/>
			<point x="297" y="922"/>
			<point x="353" y="904"/>
			<point x="395" y="865"/>
			<point x="422" y="806"/>
			<point x="424" y="764" type="qcurve"/>
		</contour>
	</outline>
</glyph>
<glyph name="uni1FDF" format="2">
	<unicode hex="1FDF"/>
	<advance width="391"/>
	<outline>
		<contour>
			<point x="347" y="764" type="line"/>
			<point x="342" y="875"/>
			<point x="271" y="922"/>
			<point x="190" y="922" type="curve" smooth="yes"/>
			<point x="109" y="922"/>
			<point x="38" y="875"/>
			<point x="33" y="764" type="curve"/>
			<point x="110" y="764" type="line"/>
			<point x="113" y="816"/>
			<point x="154" y="837"/>
			<point x="190" y="837" type="curve" smooth="yes"/>
			<point x="226" y="837"/>
			<point x="267" y="816"/>
			<point x="270" y="764" type="curve"/>
		</contour>
		<contour>
			<point x="267" y="622" type="line"/>
			<point x="251" y="635"/>
			<point x="231" y="652"/>
			<point x="218" y="667" type="curve"/>
			<point x="243" y="678"/>
			<point x="250" y="698"/>
			<point x="250" y="717" type="curve" smooth="yes"/>
			<point x="250" y="744"/>
			<point x="231" y="769"/>
			<point x="192" y="769" type="curve" smooth="yes"/>
			<point x="161" y="769"/>
			<point x="131" y="750"/>
			<point x="131" y="710" type="curve" smooth="yes"/>
			<point x="131" y="674"/>
			<point x="148" y="638"/>
			<point x="230" y="580" type="curve"/>
		</contour>
	</outline>
</glyph>
<glyph name="uni1FEF" format="2">
	<unicode hex="1FEF"/>
	<advance width="286"/>
	<outline>
		<contour>
			<point x="12" y="686" type="line"/>
			<point x="223" y="579" type="line"/>
			<point x="274" y="658" type="line"/>
			<point x="76" y="789" type="line"/>
		</contour>
	</outline>
</glyph>
<glyph name="uni1FFD" format="2">
	<unicode hex="1FFD"/>
	<advance width="286"/>
	<outline>
		<contour>
			<point x="203" y="789" type="line"/>
			<point x="5" y="658" type="line"/>
			<point x="56" y="579" type="line"/>
			<point x="267" y="686" type="line"/>
		</contour>
	</outline>
</glyph>
<glyph name="foursuperior" format="2">
	<unicode hex="2074"/>
	<advance width="363"/>
	<outline>
		<contour>
			<point x="202" y="701" type="line"/>
			<point x="131" y="626"/>
			<point x="76" y="554"/>
			<point x="20" y="459" type="curve"/>
			<point x="20" y="387" type="line"/>
			<point x="207" y="387" type="line"/>
			<point x="207" y="301" type="line"/>
			<point x="301" y="301" type="line"/>
			<point x="301" y="387" type="line"/>
			<point x="347" y="387" type="line"/>
			<point x="347" y="470" type="line"/>
			<point x="301" y="470" type="line"/>
			<point x="301" y="701" type="line"/>
		</contour>
		<contour>
			<point x="207" y="470" type="line"/>
			<point x="125" y="470" type="line"/>
			<point x="149" y="517"/>
			<point x="176" y="555"/>
			<point x="207" y="590" type="curve"/>
		</contour>
	</outline>
</glyph>
<glyph name="uni20B9" format="2">
	<unicode hex="20B9"/>
	<advance width="568"/>
	<outline>
		<contour>
			<point x="45" y="523" type="line"/>
			<point x="45" y="424" type="line"/>
			<point x="326" y="424" type="line"/>
			<point x="296" y="372"/>
			<point x="228" y="356"/>
			<point x="150" y="356" type="curve" smooth="yes"/>
			<point x="45" y="356" type="line"/>
			<point x="45" y="255" type="line"/>
			<point x="112" y="191"/>
			<point x="203" y="93"/>
			<point x="269" y="0" type="curve"/>
			<point x="449" y="0" type="line"/>
			<point x="390" y="90"/>
			<point x="296" y="197"/>
			<point x="230" y="261" type="curve"/>
			<point x="345" y="276"/>
			<point x="452" y="318"/>
			<point x="481" y="424" type="curve"/>
			<point x="546" y="424" type="line"/>
			<point x="565" y="523" type="line"/>
			<point x="487" y="523" type="line"/>
			<point x="481" y="549"/>
			<point x="467" y="574"/>
			<point x="447" y="594" type="curve"/>
			<point x="576" y="594" type="line"/>
			<point x="595" y="693" type="line"/>
			<point x="45" y="693" type="line"/>
			<point x="45" y="594" type="line"/>
			<point x="216" y="594" type="line" smooth="yes"/>
			<point x="267" y="594"/>
			<point x="322" y="581"/>
			<point x="338" y="523" type="curve"/>
		</contour>
	</outline>
	<guideline y="523"/>
</glyph>
<glyph name="trademark" format="2">
	<unicode hex="2122"/>
	<advance width="854"/>
	<outline>
		<contour>
			<point x="30" y="693" type="line"/>
			<point x="30" y="590" type="line"/>
			<point x="132" y="590" type="line"/>
			<point x="132" y="341" type="line"/>
			<point x="250" y="341" type="line"/>
			<point x="250" y="590" type="line"/>
			<point x="352" y="590" type="line"/>
			<point x="352" y="693" type="line"/>
		</contour>
		<contour>
			<point x="684" y="693" type="line"/>
			<point x="663" y="642"/>
			<point x="634" y="570"/>
			<point x="607" y="510" type="curve"/>
			<point x="580" y="570"/>
			<point x="556" y="633"/>
			<point x="528" y="693" type="curve"/>
			<point x="422" y="693" type="line"/>
			<point x="411" y="614"/>
			<point x="400" y="506"/>
			<point x="391" y="341" type="curve"/>
			<point x="505" y="341" type="line"/>
			<point x="505" y="350"/>
			<point x="508" y="443"/>
			<point x="508" y="527" type="curve"/>
			<point x="567" y="378" type="line"/>
			<point x="646" y="378" type="line"/>
			<point x="705" y="528" type="line"/>
			<point x="709" y="341" type="line"/>
			<point x="824" y="341" type="line"/>
			<point x="813" y="506"/>
			<point x="804" y="614"/>
			<point x="791" y="693" type="curve"/>
		</contour>
	</outline>
</glyph>
<glyph name="partialdiff" format="2">
	<unicode hex="2202"/>
	<advance width="612"/>
	<outline>
		<contour>
			<point x="251" y="650" type="curve" smooth="yes"/>
			<point x="351" y="650"/>
			<point x="407" y="591"/>
			<point x="414" y="484" type="curve"/>
			<point x="379" y="503"/>
			<point x="345" y="513"/>
			<point x="300" y="513" type="curve" smooth="yes"/>
			<point x="140" y="513"/>
			<point x="37" y="397"/>
			<point x="37" y="226" type="curve" smooth="yes"/>
			<point x="37" y="75"/>
			<point x="136" y="-12"/>
			<point x="271" y="-12" type="curve" smooth="yes"/>
			<point x="492" y="-12"/>
			<point x="562" y="200"/>
			<point x="562" y="388" type="curve" smooth="yes"/>
			<point x="562" y="584"/>
			<point x="502" y="775"/>
			<point x="266" y="775" type="curve" smooth="yes"/>
			<point x="219" y="775"/>
			<point x="167" y="768"/>
			<point x="107" y="745" type="curve"/>
			<point x="130" y="628" type="line"/>
			<point x="177" y="647"/>
			<point x="216" y="650"/>
		</contour>
		<contour>
			<point x="314" y="394" type="curve" smooth="yes"/>
			<point x="345" y="394"/>
			<point x="384" y="385"/>
			<point x="415" y="364" type="curve"/>
			<point x="410" y="219"/>
			<point x="371" y="115"/>
			<point x="274" y="115" type="curve" smooth="yes"/>
			<point x="221" y="115"/>
			<point x="178" y="149"/>
			<point x="178" y="229" type="curve" smooth="yes"/>
			<point x="178" y="311"/>
			<point x="211" y="394"/>
		</contour>
	</outline>
</glyph>
<glyph name="infinity" format="2">
	<unicode hex="221E"/>
	<advance width="636"/>
	<outline>
		<contour>
			<point x="318" y="212" type="curve"/>
			<point x="350" y="169"/>
			<point x="391" y="138"/>
			<point x="447" y="138" type="curve" smooth="yes"/>
			<point x="546" y="138"/>
			<point x="606" y="195"/>
			<point x="606" y="298" type="curve" smooth="yes"/>
			<point x="606" y="398"/>
			<point x="546" y="458"/>
			<point x="447" y="458" type="curve" smooth="yes"/>
			<point x="391" y="458"/>
			<point x="351" y="425"/>
			<point x="318" y="384" type="curve"/>
			<point x="286" y="427"/>
			<point x="245" y="458"/>
			<point x="189" y="458" type="curve" smooth="yes"/>
			<point x="90" y="458"/>
			<point x="30" y="401"/>
			<point x="30" y="298" type="curve" smooth="yes"/>
			<point x="30" y="198"/>
			<point x="90" y="138"/>
			<point x="189" y="138" type="curve" smooth="yes"/>
			<point x="245" y="138"/>
			<point x="285" y="171"/>
		</contour>
		<contour>
			<point x="265" y="298" type="curve"/>
			<point x="244" y="258"/>
			<point x="220" y="242"/>
			<point x="191" y="242" type="curve" smooth="yes"/>
			<point x="160" y="242"/>
			<point x="144" y="270"/>
			<point x="144" y="298" type="curve" smooth="yes"/>
			<point x="144" y="326"/>
			<point x="160" y="354"/>
			<point x="191" y="354" type="curve" smooth="yes"/>
			<point x="220" y="354"/>
			<point x="246" y="335"/>
		</contour>
		<contour>
			<point x="371" y="298" type="curve"/>
			<point x="392" y="338"/>
			<point x="416" y="354"/>
			<point x="445" y="354" type="curve" smooth="yes"/>
			<point x="476" y="354"/>
			<point x="492" y="326"/>
			<point x="492" y="298" type="curve" smooth="yes"/>
			<point x="492" y="270"/>
			<point x="476" y="242"/>
			<point x="445" y="242" type="curve" smooth="yes"/>
			<point x="416" y="242"/>
			<point x="390" y="261"/>
		</contour>
	</outline>
</glyph>
<glyph name="approxequal" format="2">
	<unicode hex="2248"/>
	<advance width="568"/>
	<outline>
		<contour>
			<point x="386" y="315" type="curve" smooth="yes"/>
			<point x="489" y="315"/>
			<point x="532" y="413"/>
			<point x="545" y="487" type="curve"/>
			<point x="443" y="515" type="line"/>
			<point x="427" y="448"/>
			<point x="403" y="442"/>
			<point x="381" y="442" type="curve" smooth="yes"/>
			<point x="323" y="442"/>
			<point x="262" y="517"/>
			<point x="182" y="517" type="curve" smooth="yes"/>
			<point x="78" y="517"/>
			<point x="36" y="419"/>
			<point x="23" y="345" type="curve"/>
			<point x="125" y="317" type="line"/>
			<point x="141" y="384"/>
			<point x="165" y="390"/>
			<point x="187" y="390" type="curve" smooth="yes"/>
			<point x="245" y="390"/>
			<point x="306" y="315"/>
		</contour>
		<contour>
			<point x="387" y="71" type="curve" smooth="yes"/>
			<point x="490" y="71"/>
			<point x="533" y="169"/>
			<point x="546" y="243" type="curve"/>
			<point x="444" y="271" type="line"/>
			<point x="428" y="204"/>
			<point x="404" y="198"/>
			<point x="382" y="198" type="curve" smooth="yes"/>
			<point x="324" y="198"/>
			<point x="263" y="273"/>
			<point x="183" y="273" type="curve" smooth="yes"/>
			<point x="79" y="273"/>
			<point x="37" y="175"/>
			<point x="24" y="101" type="curve"/>
			<point x="126" y="73" type="line"/>
			<point x="142" y="140"/>
			<point x="166" y="146"/>
			<point x="188" y="146" type="curve" smooth="yes"/>
			<point x="246" y="146"/>
			<point x="307" y="71"/>
		</contour>
	</outline>
</glyph>
<glyph name="greaterequal" format="2">
	<unicode hex="2265"/>
	<advance width="568"/>
	<outline>
		<contour>
			<point x="518" y="452" type="line"/>
			<point x="86" y="625" type="line"/>
			<point x="50" y="506" type="line"/>
			<point x="356" y="393" type="line"/>
			<point x="50" y="279" type="line"/>
			<point x="86" y="160" type="line"/>
			<point x="518" y="333" type="line"/>
		</contour>
		<contour>
			<point x="519" y="121" type="line"/>
			<point x="49" y="121" type="line"/>
			<point x="49" y="0" type="line"/>
			<point x="519" y="0" type="line"/>
		</contour>
	</outline>
</glyph>
<glyph name="lozenge" format="2">
	<unicode hex="25CA"/>
	<advance width="590"/>
	<outline>
		<contour>
			<point x="47" y="347" type="curve"/>
			<point x="140" y="200"/>
			<point x="220" y="93"/>
			<point x="298" y="-17" type="curve"/>
			<point x="376" y="93"/>
			<point x="456" y="200"/>
			<point x="549" y="347" type="curve"/>
			<point x="456" y="494"/>
			<point x="376" y="601"/>
			<point x="298" y="711" type="curve"/>
			<point x="220" y="601"/>
			<point x="140" y="494"/>
		</contour>
		<contour>
			<point x="399" y="347" type="curve"/>
			<point x="364" y="288"/>
			<point x="331" y="245"/>
			<point x="298" y="198" type="curve"/>
			<point x="265" y="245"/>
			<point x="231" y="288"/>
			<point x="196" y="347" type="curve"/>
			<point x="231" y="406"/>
			<point x="265" y="449"/>
			<point x="298" y="496" type="curve"/>
			<point x="331" y="449"/>
			<point x="364" y="406"/>
		</contour>
	</outline>
</glyph>
<glyph name="uniE0FF" format="2">
	<unicode hex="E0FF"/>
	<advance width="782"/>
	<outline>
		<contour>
			<point x="753" y="346" type="qcurve"/>
			<point x="753" y="271"/>
			<point x="697" y="139"/>
			<point x="599" y="42"/>
			<point x="467" y="-15"/>
			<point x="391" y="-15" type="qcurve"/>
			<point x="316" y="-15"/>
			<point x="184" y="42"/>
			<point x="86" y="139"/>
			<point x="29" y="271"/>
			<point x="29" y="346" type="qcurve"/>
			<point x="29" y="422"/>
			<point x="86" y="555"/>
			<point x="184" y="653"/>
			<point x="316" y="709"/>
			<point x="391" y="709" type="qcurve"/>
			<point x="467" y="709"/>
			<point x="599" y="653"/>
			<point x="697" y="555"/>
			<point x="753" y="422"/>
		</contour>
		<contour>
			<point x="143" y="395" type="qcurve"/>
			<point x="124" y="395"/>
			<point x="96" y="366"/>
			<point x="96" y="346" type="qcurve"/>
			<point x="96" y="326"/>
			<point x="124" y="299"/>
			<point x="143" y="299" type="qcurve"/>
			<point x="163" y="299"/>
			<point x="192" y="326"/>
			<point x="192" y="346" type="qcurve"/>
			<point x="192" y="366"/>
			<point x="163" y="395"/>
		</contour>
		<contour>
			<point x="563" y="135" type="qcurve"/>
			<point x="563" y="158"/>
			<point x="532" y="180"/>
			<point x="516" y="180" type="qcurve"/>
			<point x="494" y="180"/>
			<point x="467" y="151"/>
			<point x="467" y="131" type="qcurve"/>
			<point x="467" y="110"/>
			<point x="496" y="84"/>
			<point x="515" y="84" type="qcurve"/>
			<point x="535" y="84"/>
			<point x="563" y="115"/>
		</contour>
		<contour>
			<point x="249" y="346" type="qcurve"/>
			<point x="249" y="383"/>
			<point x="282" y="444"/>
			<point x="311" y="464" type="qcurve"/>
			<point x="273" y="524" type="line"/>
			<point x="243" y="501"/>
			<point x="197" y="438"/>
			<point x="187" y="399" type="qcurve"/>
			<point x="198" y="391"/>
			<point x="213" y="363"/>
			<point x="213" y="346" type="qcurve"/>
			<point x="213" y="331"/>
			<point x="198" y="303"/>
			<point x="187" y="294" type="qcurve"/>
			<point x="197" y="256"/>
			<point x="243" y="194"/>
			<point x="273" y="170" type="qcurve"/>
			<point x="311" y="232" type="line"/>
			<point x="282" y="250"/>
			<point x="249" y="311"/>
		</contour>
		<contour>
			<point x="298" y="536" type="qcurve"/>
			<point x="331" y="476" type="line"/>
			<point x="359" y="490"/>
			<point x="391" y="490" type="qcurve"/>
			<point x="419" y="490"/>
			<point x="468" y="470"/>
			<point x="506" y="435"/>
			<point x="529" y="389"/>
			<point x="531" y="362" type="qcurve"/>
			<point x="601" y="362" type="line"/>
			<point x="598" y="400"/>
			<point x="565" y="470"/>
			<point x="538" y="496" type="qcurve"/>
			<point x="531" y="495"/>
			<point x="521" y="494"/>
			<point x="516" y="494" type="qcurve"/>
			<point x="504" y="494"/>
			<point x="481" y="502"/>
			<point x="462" y="517"/>
			<point x="450" y="538"/>
			<point x="449" y="550" type="qcurve"/>
			<point x="433" y="555"/>
			<point x="406" y="558"/>
			<point x="391" y="558" type="qcurve"/>
			<point x="342" y="558"/>
		</contour>
		<contour>
			<point x="331" y="217" type="qcurve"/>
			<point x="298" y="159" type="line"/>
			<point x="319" y="148"/>
			<point x="366" y="138"/>
			<point x="391" y="138" type="qcurve"/>
			<point x="406" y="138"/>
			<point x="433" y="141"/>
			<point x="449" y="144" type="qcurve"/>
			<point x="450" y="157"/>
			<point x="462" y="178"/>
			<point x="481" y="193"/>
			<point x="504" y="201"/>
			<point x="516" y="201" type="qcurve"/>
			<point x="521" y="201"/>
			<point x="531" y="200"/>
			<point x="538" y="199" type="qcurve"/>
			<point x="565" y="225"/>
			<point x="598" y="295"/>
			<point x="601" y="336" type="qcurve"/>
			<point x="531" y="336" type="line"/>
			<point x="529" y="308"/>
			<point x="506" y="260"/>
			<point x="468" y="225"/>
			<point x="419" y="205"/>
			<point x="391" y="205" type="qcurve"/>
			<point x="374" y="205"/>
			<point x="345" y="212"/>
		</contour>
		<contour>
			<point x="516" y="513" type="qcurve"/>
			<point x="532" y="513"/>
			<point x="563" y="537"/>
			<point x="563" y="559" type="qcurve"/>
			<point x="563" y="576"/>
			<point x="537" y="609"/>
			<point x="515" y="609" type="qcurve"/>
			<point x="497" y="609"/>
			<point x="467" y="584"/>
			<point x="467" y="560" type="qcurve"/>
			<point x="467" y="541"/>
			<point x="496" y="513"/>
		</contour>
	</outline>
	<guideline y="750"/>
</glyph>
<glyph name="ubuntu" format="2">
	<unicode hex="F200"/>
	<advance width="3511"/>
	<outline>
		<contour>
			<point x="440" y="15" type="line"/>
			<point x="408" y="7"/>
			<point x="303" y="-11"/>
			<point x="234" y="-11" type="qcurve"/>
			<point x="174" y="-11"/>
			<point x="92" y="24"/>
			<point x="42" y="88"/>
			<point x="20" y="175"/>
			<point x="20" y="228" type="qcurve"/>
			<point x="20" y="520" type="line"/>
			<point x="113" y="520" type="line"/>
			<point x="113" y="248" type="line"/>
			<point x="113" y="153"/>
			<point x="173" y="71"/>
			<point x="244" y="71" type="qcurve"/>
			<point x="259" y="71"/>
			<point x="291" y="73"/>
			<point x="320" y="76"/>
			<point x="342" y="79"/>
			<point x="347" y="81" type="qcurve"/>
			<point x="347" y="520" type="line"/>
			<point x="440" y="520" type="line"/>
		</contour>
		<contour>
			<point x="661" y="497" type="line"/>
			<point x="678" y="508"/>
			<point x="747" y="532"/>
			<point x="792" y="532" type="qcurve"/>
			<point x="848" y="532"/>
			<point x="935" y="492"/>
			<point x="995" y="420"/>
			<point x="1026" y="320"/>
			<point x="1026" y="260" type="qcurve"/>
			<point x="1026" y="197"/>
			<point x="989" y="96"/>
			<point x="921" y="26"/>
			<point x="825" y="-12"/>
			<point x="765" y="-12" type="qcurve"/>
			<point x="699" y="-12"/>
			<point x="600" y="6"/>
			<point x="568" y="15" type="qcurve"/>
			<point x="568" y="760" type="line"/>
			<point x="661" y="776" type="line"/>
		</contour>
		<contour>
			<point x="661" y="81" type="line"/>
			<point x="675" y="77"/>
			<point x="726" y="70"/>
			<point x="764" y="70" type="qcurve"/>
			<point x="839" y="70"/>
			<point x="929" y="169"/>
			<point x="929" y="260" type="qcurve"/>
			<point x="929" y="300"/>
			<point x="913" y="370"/>
			<point x="877" y="421"/>
			<point x="820" y="450"/>
			<point x="780" y="450" type="qcurve"/>
			<point x="742" y="450"/>
			<point x="678" y="424"/>
			<point x="661" y="410" type="qcurve"/>
		</contour>
		<contour>
			<point x="1531" y="15" type="line"/>
			<point x="1499" y="7"/>
			<point x="1394" y="-11"/>
			<point x="1325" y="-11" type="qcurve"/>
			<point x="1265" y="-11"/>
			<point x="1183" y="24"/>
			<point x="1133" y="88"/>
			<point x="1111" y="175"/>
			<point x="1111" y="228" type="qcurve"/>
			<point x="1111" y="520" type="line"/>
			<point x="1204" y="520" type="line"/>
			<point x="1204" y="248" type="line"/>
			<point x="1204" y="153"/>
			<point x="1264" y="71"/>
			<point x="1335" y="71" type="qcurve"/>
			<point x="1350" y="71"/>
			<point x="1382" y="73"/>
			<point x="1411" y="76"/>
			<point x="1433" y="79"/>
			<point x="1438" y="81" type="qcurve"/>
			<point x="1438" y="520" type="line"/>
			<point x="1531" y="520" type="line"/>
		</contour>
		<contour>
			<point x="1653" y="505" type="line"/>
			<point x="1685" y="513"/>
			<point x="1791" y="531"/>
			<point x="1860" y="531" type="qcurve"/>
			<point x="1922" y="531"/>
			<point x="2004" y="496"/>
			<point x="2053" y="433"/>
			<point x="2073" y="345"/>
			<point x="2073" y="292" type="qcurve"/>
			<point x="2073" y="0" type="line"/>
			<point x="1980" y="0" type="line"/>
			<point x="1980" y="272" type="line"/>
			<point x="1980" y="320"/>
			<point x="1967" y="388"/>
			<point x="1937" y="430"/>
			<point x="1887" y="449"/>
			<point x="1850" y="449" type="qcurve"/>
			<point x="1835" y="449"/>
			<point x="1803" y="447"/>
			<point x="1774" y="444"/>
			<point x="1751" y="440"/>
			<point x="1746" y="439" type="qcurve"/>
			<point x="1746" y="0" type="line"/>
			<point x="1653" y="0" type="line"/>
		</contour>
		<contour>
			<point x="2282" y="520" type="line"/>
			<point x="2479" y="520" type="line"/>
			<point x="2479" y="442" type="line"/>
			<point x="2282" y="442" type="line"/>
			<point x="2282" y="202" type="line"/>
			<point x="2282" y="163"/>
			<point x="2294" y="112"/>
			<point x="2318" y="83"/>
			<point x="2354" y="71"/>
			<point x="2378" y="71" type="qcurve"/>
			<point x="2420" y="71"/>
			<point x="2471" y="90"/>
			<point x="2481" y="94" type="qcurve"/>
			<point x="2499" y="17" type="line"/>
			<point x="2485" y="10"/>
			<point x="2415" y="-11"/>
			<point x="2370" y="-11" type="qcurve"/>
			<point x="2317" y="-11"/>
			<point x="2248" y="16"/>
			<point x="2206" y="70"/>
			<point x="2189" y="149"/>
			<point x="2189" y="201" type="qcurve"/>
			<point x="2189" y="665" type="line"/>
			<point x="2282" y="681" type="line"/>
		</contour>
		<contour>
			<point x="2974" y="15" type="line"/>
			<point x="2942" y="7"/>
			<point x="2837" y="-11"/>
			<point x="2768" y="-11" type="qcurve"/>
			<point x="2708" y="-11"/>
			<point x="2626" y="24"/>
			<point x="2576" y="88"/>
			<point x="2554" y="175"/>
			<point x="2554" y="228" type="qcurve"/>
			<point x="2554" y="520" type="line"/>
			<point x="2647" y="520" type="line"/>
			<point x="2647" y="248" type="line"/>
			<point x="2647" y="153"/>
			<point x="2707" y="71"/>
			<point x="2778" y="71" type="qcurve"/>
			<point x="2793" y="71"/>
			<point x="2825" y="73"/>
			<point x="2854" y="76"/>
			<point x="2876" y="79"/>
			<point x="2881" y="81" type="qcurve"/>
			<point x="2881" y="520" type="line"/>
			<point x="2974" y="520" type="line"/>
		</contour>
		<contour>
			<point x="3475" y="560" type="qcurve"/>
			<point x="3475" y="515"/>
			<point x="3441" y="437"/>
			<point x="3383" y="379"/>
			<point x="3304" y="345"/>
			<point x="3259" y="345" type="qcurve"/>
			<point x="3214" y="345"/>
			<point x="3136" y="379"/>
			<point x="3078" y="437"/>
			<point x="3044" y="515"/>
			<point x="3044" y="560" type="qcurve"/>
			<point x="3044" y="605"/>
			<point x="3078" y="684"/>
			<point x="3136" y="742"/>
			<point x="3214" y="776"/>
			<point x="3259" y="776" type="qcurve"/>
			<point x="3304" y="776"/>
			<point x="3383" y="742"/>
			<point x="3441" y="684"/>
			<point x="3475" y="605"/>
		</contour>
		<contour>
			<point x="3113" y="589" type="qcurve"/>
			<point x="3102" y="589"/>
			<point x="3084" y="572"/>
			<point x="3084" y="560" type="qcurve"/>
			<point x="3084" y="549"/>
			<point x="3102" y="532"/>
			<point x="3113" y="532" type="qcurve"/>
			<point x="3125" y="532"/>
			<point x="3142" y="549"/>
			<point x="3142" y="560" type="qcurve"/>
			<point x="3142" y="572"/>
			<point x="3125" y="589"/>
		</contour>
		<contour>
			<point x="3304" y="432" type="qcurve"/>
			<point x="3304" y="419"/>
			<point x="3322" y="404"/>
			<point x="3332" y="404" type="qcurve"/>
			<point x="3345" y="404"/>
			<point x="3361" y="423"/>
			<point x="3361" y="434" type="qcurve"/>
			<point x="3361" y="448"/>
			<point x="3343" y="462"/>
			<point x="3333" y="462" type="qcurve"/>
			<point x="3319" y="462"/>
			<point x="3304" y="443"/>
		</contour>
		<contour>
			<point x="3175" y="560" type="qcurve"/>
			<point x="3175" y="582"/>
			<point x="3195" y="618"/>
			<point x="3212" y="629" type="qcurve"/>
			<point x="3190" y="665" type="line"/>
			<point x="3171" y="651"/>
			<point x="3144" y="614"/>
			<point x="3138" y="591" type="qcurve"/>
			<point x="3154" y="581"/>
			<point x="3154" y="560" type="qcurve"/>
			<point x="3154" y="540"/>
			<point x="3138" y="529" type="qcurve"/>
			<point x="3144" y="506"/>
			<point x="3171" y="470"/>
			<point x="3190" y="456" type="qcurve"/>
			<point x="3212" y="492" type="line"/>
			<point x="3195" y="503"/>
			<point x="3175" y="539"/>
		</contour>
		<contour>
			<point x="3259" y="645" type="qcurve"/>
			<point x="3293" y="645"/>
			<point x="3340" y="600"/>
			<point x="3343" y="568" type="qcurve"/>
			<point x="3384" y="568" type="line"/>
			<point x="3381" y="616"/>
			<point x="3346" y="649" type="qcurve"/>
			<point x="3338" y="647"/>
			<point x="3333" y="647" type="qcurve"/>
			<point x="3319" y="647"/>
			<point x="3295" y="666"/>
			<point x="3293" y="681" type="qcurve"/>
			<point x="3278" y="685"/>
			<point x="3259" y="685" type="qcurve"/>
			<point x="3229" y="685"/>
			<point x="3204" y="672" type="qcurve"/>
			<point x="3224" y="637" type="line"/>
			<point x="3240" y="645"/>
		</contour>
		<contour>
			<point x="3259" y="476" type="qcurve"/>
			<point x="3240" y="476"/>
			<point x="3224" y="484" type="qcurve"/>
			<point x="3204" y="449" type="line"/>
			<point x="3229" y="436"/>
			<point x="3259" y="436" type="qcurve"/>
			<point x="3278" y="436"/>
			<point x="3293" y="440" type="qcurve"/>
			<point x="3295" y="455"/>
			<point x="3319" y="474"/>
			<point x="3333" y="474" type="qcurve"/>
			<point x="3338" y="474"/>
			<point x="3346" y="472" type="qcurve"/>
			<point x="3381" y="505"/>
			<point x="3384" y="553" type="qcurve"/>
			<point x="3343" y="553" type="line"/>
			<point x="3340" y="521"/>
			<point x="3293" y="476"/>
		</contour>
		<contour>
			<point x="3333" y="658" type="qcurve"/>
			<point x="3343" y="658"/>
			<point x="3361" y="673"/>
			<point x="3361" y="687" type="qcurve"/>
			<point x="3361" y="698"/>
			<point x="3346" y="716"/>
			<point x="3332" y="716" type="qcurve"/>
			<point x="3321" y="716"/>
			<point x="3303" y="701"/>
			<point x="3303" y="688" type="qcurve"/>
			<point x="3303" y="676"/>
			<point x="3322" y="658"/>
		</contour>
	</outline>
	<guideline y="650"/>
</glyph>
<glyph name="caron.asc" format="2">
	<advance width="368"/>
	<outline>
		<contour>
			<point x="197" y="792" type="line"/>
			<point x="49" y="899" type="line"/>
			<point x="92" y="962" type="line"/>
			<point x="197" y="902" type="line"/>
			<point x="300" y="962" type="line"/>
			<point x="343" y="899" type="line"/>
		</contour>
	</outline>
</glyph>
<glyph name="dieresis_acute" format="2">
	<advance width="458"/>
	<outline>
		<contour>
			<point x="290" y="880" type="line"/>
			<point x="171" y="710" type="line"/>
			<point x="234" y="663" type="line"/>
			<point x="369" y="816" type="line"/>
		</contour>
		<contour>
			<point x="163" y="653" type="curve" smooth="yes"/>
			<point x="163" y="692"/>
			<point x="134" y="716"/>
			<point x="99" y="716" type="curve" smooth="yes"/>
			<point x="63" y="716"/>
			<point x="35" y="692"/>
			<point x="35" y="653" type="curve" smooth="yes"/>
			<point x="35" y="614"/>
			<point x="63" y="590"/>
			<point x="99" y="590" type="curve" smooth="yes"/>
			<point x="134" y="590"/>
			<point x="163" y="614"/>
		</contour>
		<contour>
			<point x="428" y="653" type="curve" smooth="yes"/>
			<point x="428" y="692"/>
			<point x="399" y="716"/>
			<point x="364" y="716" type="curve" smooth="yes"/>
			<point x="329" y="716"/>
			<point x="300" y="692"/>
			<point x="300" y="653" type="curve" smooth="yes"/>
			<point x="300" y="614"/>
			<point x="329" y="590"/>
			<point x="364" y="590" type="curve" smooth="yes"/>
			<point x="399" y="590"/>
			<point x="428" y="614"/>
		</contour>
	</outline>
</glyph>
<glyph name="dieresis_macron" format="2">
	<advance width="376"/>
	<outline>
		<contour>
			<point x="158" y="649" type="curve" smooth="yes"/>
			<point x="158" y="688"/>
			<point x="129" y="712"/>
			<point x="94" y="712" type="curve" smooth="yes"/>
			<point x="58" y="712"/>
			<point x="30" y="688"/>
			<point x="30" y="649" type="curve" smooth="yes"/>
			<point x="30" y="610"/>
			<point x="58" y="586"/>
			<point x="94" y="586" type="curve" smooth="yes"/>
			<point x="129" y="586"/>
			<point x="158" y="610"/>
		</contour>
		<contour>
			<point x="346" y="649" type="curve" smooth="yes"/>
			<point x="346" y="688"/>
			<point x="317" y="712"/>
			<point x="282" y="712" type="curve" smooth="yes"/>
			<point x="247" y="712"/>
			<point x="218" y="688"/>
			<point x="218" y="649" type="curve" smooth="yes"/>
			<point x="218" y="610"/>
			<point x="247" y="586"/>
			<point x="282" y="586" type="curve" smooth="yes"/>
			<point x="317" y="586"/>
			<point x="346" y="610"/>
		</contour>
		<contour>
			<point x="57" y="740" type="line"/>
			<point x="317" y="740" type="line"/>
			<point x="317" y="820" type="line"/>
			<point x="57" y="820" type="line"/>
		</contour>
	</outline>
</glyph>
<glyph name="double_grave" format="2">
	<advance width="450"/>
	<outline>
		<contour>
			<point x="222" y="729" type="line"/>
			<point x="362" y="577" type="line"/>
			<point x="429" y="628" type="line"/>
			<point x="309" y="799" type="line"/>
		</contour>
		<contour>
			<point x="20" y="729" type="line"/>
			<point x="160" y="577" type="line"/>
			<point x="227" y="628" type="line"/>
			<point x="107" y="799" type="line"/>
		</contour>
	</outline>
</glyph>
<glyph name="ring_acute" format="2">
	<advance width="324"/>
	<outline>
		<contour>
			<point x="230" y="868" type="line"/>
			<point x="59" y="804" type="line"/>
			<point x="28" y="865" type="line"/>
			<point x="190" y="949" type="line"/>
		</contour>
		<contour>
			<point x="234" y="691" type="qcurve"/>
			<point x="234" y="667"/>
			<point x="217" y="630"/>
			<point x="189" y="605"/>
			<point x="152" y="592"/>
			<point x="132" y="592" type="qcurve"/>
			<point x="112" y="592"/>
			<point x="76" y="605"/>
			<point x="48" y="630"/>
			<point x="31" y="667"/>
			<point x="31" y="691" type="qcurve"/>
			<point x="31" y="715"/>
			<point x="48" y="752"/>
			<point x="76" y="777"/>
			<point x="112" y="790"/>
			<point x="132" y="790" type="qcurve"/>
			<point x="152" y="790"/>
			<point x="189" y="777"/>
			<point x="217" y="752"/>
			<point x="234" y="715"/>
		</contour>
		<contour>
			<point x="171" y="691" type="qcurve"/>
			<point x="171" y="711"/>
			<point x="147" y="732"/>
			<point x="132" y="732" type="qcurve"/>
			<point x="118" y="732"/>
			<point x="93" y="711"/>
			<point x="93" y="691" type="qcurve"/>
			<point x="93" y="671"/>
			<point x="118" y="650"/>
			<point x="132" y="650" type="qcurve"/>
			<point x="147" y="650"/>
			<point x="171" y="671"/>
		</contour>
	</outline>
</glyph>
